<?xml version="1.0" encoding="utf-8"?>
<svg version="1.1" xmlns:xlink="http://www.w3.org/1999/xlink" width="8px" height="13px" xmlns="http://www.w3.org/2000/svg">
  <g transform="matrix(1 0 0 1 -270 -164 )">
    <path d="M 0.527721354166665 11.2817817826705  C 0.383338122739109 11.4053388865331  0.301791944394306 11.5755921466081  0.301791944394306 11.7534803875755  C 0.301791944394306 12.1155951212352  0.632978807380802 12.4091471134277  1.04151850689431 12.4091471134277  C 1.2422097359974 12.4091471134277  1.43428756059155 12.3368698417362  1.57368489583333 12.2088973721591  L 7.49153645833333 6.96355202414773  C 7.78030580453723 6.70751526149442  7.78030580453723 6.29248473850558  7.49153645833333 6.03644797585227  L 1.57369791666667 0.791091086647727  C 1.43430058142488 0.663118617070565  1.24222275683072 0.590841345379077  1.04153152772763 0.590841345379077  C 0.632991828214119 0.590841345379077  0.301804965227625 0.884393337571652  0.301804965227625 1.24650807123135  C 0.301804965227625 1.42439631219869  0.383351143572434 1.59464957227375  0.527734374999999 1.71820667613636  L 5.92255208333333 6.5  L 0.527734375000001 11.2817817826705  Z " fill-rule="nonzero" fill="#d7d7d7" stroke="none" transform="matrix(1 0 0 1 270 164 )" />
  </g>
</svg>