<?xml version="1.0" encoding="utf-8"?>
<svg version="1.1" xmlns:xlink="http://www.w3.org/1999/xlink" width="33px" height="24px" xmlns="http://www.w3.org/2000/svg">
  <g transform="matrix(1 0 0 1 -207 -169 )">
    <path d="M 31.2872339007092 20.0396982591876  C 33.1295968439716 14.7649775241779  30.3252036524823 12.6987420889748  30.3252036524823 12.6987420502901  C 27.203373864696 10.7148340051622  24.4544192911482 8.10356117143214  22.2238085815603 5.00310638297873  C 21.3814604075893 3.54459612917952  20.2799608020373 2.28482650084553  18.9842509219858 1.29806978723404  C 15.8119796594884 -0.112976706100506  12.167015067546 1.07250678589258  10.2209390070922 4.1482378336557  C 8.3286594153203 6.53785502156849  6.17706449648489 8.6676148621833  3.81351744680851 10.4906348162476  C 1.76192657350487 11.7156515966855  0.428090473473509 14.0012472480995  0.278848262411343 16.5474693230174  C 0.573959787234038 23.8229462282399  5.87596358156028 23.7447348549323  5.87596358156028 23.7447348549323  C 7.91321781900113 23.806060610184  9.94773896114149 23.5419537999204  11.9149125531915 22.960802205029  C 14.050719751773 21.7494353191489  18.9175590780142 22.5333679303675  18.9175590425532 22.5333679303675  C 19.7278652836879 22.6770586073501  25.3233132978723 23.7447348162476  25.3233132978723 23.7447348549323  C 29.0047046099291 24.384976827853  31.2872339007092 20.0396982591876  31.2872339007092 20.0396982591876  Z " fill-rule="nonzero" fill="#b8741a" stroke="none" transform="matrix(1 0 0 1 207 169 )" />
  </g>
</svg>