<?xml version="1.0" encoding="utf-8"?>
<svg version="1.1" xmlns:xlink="http://www.w3.org/1999/xlink" width="33px" height="33px" xmlns="http://www.w3.org/2000/svg">
  <defs>
    <mask fill="white" id="clip4">
      <path d="M 0 8.5  C 0 13.1944203733  3.8055796267 17  8.5 17  C 13.1944203733 17  17 13.1944203733  17 8.5  C 17 3.8055796267  13.1944203733 0  8.5 0  C 3.8055796267 0  0 3.8055796267  0 8.5  Z " fill-rule="evenodd" />
    </mask>
    <filter x="260px" y="204px" width="33px" height="33px" filterUnits="userSpaceOnUse" id="filter5">
      <feOffset dx="0" dy="3" in="SourceAlpha" result="shadowOffsetInner" />
      <feGaussianBlur stdDeviation="4" in="shadowOffsetInner" result="shadowGaussian" />
      <feComposite in2="shadowGaussian" operator="atop" in="SourceAlpha" result="shadowComposite" />
      <feColorMatrix type="matrix" values="0 0 0 0 0  0 0 0 0 0  0 0 0 0 0  0 0 0 0.149019607843137 0  " in="shadowComposite" />
    </filter>
    <g id="widget6">
      <path d="M 0 8.5  C 0 13.1944203733  3.8055796267 17  8.5 17  C 13.1944203733 17  17 13.1944203733  17 8.5  C 17 3.8055796267  13.1944203733 0  8.5 0  C 3.8055796267 0  0 3.8055796267  0 8.5  Z " fill-rule="nonzero" fill="#ffffff" stroke="none" transform="matrix(1 0 0 1 268 209 )" />
      <path d="M 0 8.5  C 0 13.1944203733  3.8055796267 17  8.5 17  C 13.1944203733 17  17 13.1944203733  17 8.5  C 17 3.8055796267  13.1944203733 0  8.5 0  C 3.8055796267 0  0 3.8055796267  0 8.5  Z " stroke-width="1" stroke="#000000" fill="none" stroke-opacity="0.0392156862745098" transform="matrix(1 0 0 1 268 209 )" mask="url(#clip4)" />
    </g>
  </defs>
  <g transform="matrix(1 0 0 1 -260 -204 )">
    <use xlink:href="#widget6" filter="url(#filter5)" />
    <use xlink:href="#widget6" />
  </g>
</svg>