<?xml version="1.0" encoding="utf-8"?>
<svg version="1.1" xmlns:xlink="http://www.w3.org/1999/xlink" width="32px" height="19px" xmlns="http://www.w3.org/2000/svg">
  <g transform="matrix(1 0 0 1 -254 -208 )">
    <path d="M 7.02996078431373 0.492252157252268  C 7.9918431372549 0.229317964301354  8.95811764705882 0.111641122700945  9.94949019607843 0.0564801032007528  C 11.0412549019608 -0.004809918466128  12.1317647058824 9.32832672218559E-05  13.2235294117647 9.32832672218559E-05  C 13.2310588235294 9.32832672218559E-05  18.7557647058823 9.32832672218559E-05  18.7557647058823 9.32832672218559E-05  C 19.868862745098 9.32832672218559E-05  20.9593725490196 -0.004809918466128  22.0505098039216 0.0564801032007528  C 23.0425098039216 0.111641122700945  24.0087843137255 0.229317964301354  24.9706666666667 0.492252157252268  C 26.9954509803922 1.04508815268753  28.7636078431373 2.19979216089154  30.0417254901961 3.83684863961391  C 31.3123137254902 5.4634858146529  32 7.45479861860983  32 9.49943374141694  C 32 11.5465204650907  31.3123137254902 13.5366074686143  30.0417254901961 15.1632446436533  C 28.7636078431373 16.799688222159  26.9954509803922 17.9550051305797  24.9706666666667 18.507841126015  C 24.0087843137255 18.7707753189659  23.0425098039216 18.8878392603496  22.0505098039216 18.9436131800665  C 20.9593725490196 19.0049032017334  19.868862745098 18.9993870997833  18.7770980392157 18.9993870997833  C 18.769568627451 18.9993870997833  13.2436078431373 19  13.2436078431373 19  C 12.1317647058824 18.9993870997833  11.0412549019608 19.0049032017334  9.94949019607843 18.9436131800665  C 8.95811764705882 18.8878392603496  7.9918431372549 18.7707753189659  7.02996078431373 18.507841126015  C 5.00517647058824 17.9550051305797  3.23701960784314 16.799688222159  1.95890196078431 15.1632446436533  C 0.688313725490196 13.5366074686143  0 11.5465204650907  0 9.50004664163361  C 0 7.45479861860983  0.688313725490196 5.4634858146529  1.95890196078431 3.83684863961391  C 3.23701960784314 2.19979216089154  5.00517647058824 1.04508815268753  7.02996078431373 0.492252157252268  Z " fill-rule="nonzero" fill="#4cd964" stroke="none" transform="matrix(1 0 0 1 254 208 )" />
  </g>
</svg>