<?xml version="1.0" encoding="utf-8"?>
<svg version="1.1" xmlns:xlink="http://www.w3.org/1999/xlink" width="29px" height="26px" xmlns="http://www.w3.org/2000/svg">
  <g transform="matrix(1 0 0 1 -260 -107 )">
    <path d="M 28.0243577326829 14  C 28.0243577326829 6.27609756097561  21.7619187082927 0.0136585365853659  14.0379024390244 0.0136585365853659  C 6.314 0.0136585365853659  0.0516748058536585 6.27609756097561  0.0516748058536585 14  C 0.0516748058536585 18.7573821229268  2.42791870829268 22.9594309034146  6.05767480585366 25.4861463414634  C 6.76621139121951 23.0183902439024  8.55878048780488 21.1604878048781  10.9976260253659 20.314  C 11.0884324248242 20.2825129558413  11.1797681381897 20.2525736610196  11.2715934868293 20.2241951219512  C 11.2976585365854 20.2161138302439  11.3236097560976 20.207577244878  11.3499024390244 20.1996097560976  C 11.588501247123 20.1281907053959  11.8299737783402 20.0667498216496  12.0736910478049 20.0154471453659  C 12.1065853658537 20.0085040468293  12.1399349502439 20.0023577053659  12.1730569014634 19.995756097561  C 12.3930329187602 19.9516425605031  12.6145667601741 19.9156883993898  12.8372032429268 19.8879674887805  C 12.8748780487805 19.8831870009756  12.9123251941463 19.8779512195122  12.9501138302439 19.8736260253659  C 13.0780574289579 19.8587252319041  13.2062829970575 19.8463542470873  13.3347154380488 19.8365203160976  L 13.841333342439 19.8365203160976  C 13.8897073170732 19.83982112  13.9412682926829 19.83982112  13.9929430985366 19.8365203160976  L 14.0381300721951 19.8365203160976  C 10.4740487804878 19.8365203160976  7.57320324292683 17.0045365853659  7.45858536585366 13.4683414634146  C 7.45460163512195 13.4658373892683  7.45061787707317 13.4637886087805  7.44663414634146 13.4612845619512  C 7.22001626926829 9.22429268292683  11.0466829268293 6.61960975609756  13.8222113912195 6.67196748878049  C 13.8940325385366 6.66957724487805  13.9657398556098 6.66650407414634  14.0381300721951 6.66650407414634  C 14.1068780487805 6.66650407414634  14.1748292682927 6.66957724487805  14.2428943180488 6.67162602536586  C 15.0457886360976 6.65796748878049  15.934845537561 6.86512195121952  16.7891870009756 7.26884553756098  C 17.356775538745 7.53048541279088  17.8842378153773 7.8715748734548  18.3557073170732 8.28185365853659  C 19.7381788526829 9.45853658536586  20.7423089521951 11.2336910478049  20.6231382204878 13.4611707317073  L 20.6177886087805 13.4643577326829  C 20.5052195121951 17.0024878048781  17.6036910478049 19.8364065131707  14.0381300721951 19.8364065131707  L 14.7479187082927 19.8364065131707  C 14.8761622751432 19.8462348764658  15.004198291429 19.8586058699619  15.1319512195122 19.873512195122  C 15.1701951219512 19.8778373892683  15.2078699278049 19.8830731707317  15.2458861697561 19.8879674887805  C 15.3770613740245 19.9041380637019  15.5078397967381 19.9233791133935  15.6381138302439 19.9456748058537  C 15.7282601717073 19.9609268292683  15.8176097560976 19.9775447336585  15.9063902439024 19.9953008039024  C 15.9406504156098 20.0021300721951  15.9750243902439 20.0083902439024  16.0089430985366 20.0156748058537  C 16.2515789013187 20.0667929677034  16.491986657855 20.1279676487282  16.7295447063415 20.1990406595122  C 16.7577723395122 20.2075772448781  16.7856585365854 20.2166829268293  16.8138861697561 20.2254471453659  C 16.903577217561 20.253333315122  16.9924715356098 20.2823577053659  17.0805690965854 20.3129756097561  C 19.5186178770732 21.1587804878049  21.3118699004878 23.0161138302439  22.0225690965854 25.4833008039024  C 25.6499349502439 22.9563577053659  28.0243577053659 18.7556747785366  28.0243577326829 14  Z " fill-rule="nonzero" fill="#f08e83" stroke="none" transform="matrix(1 0 0 1 260 107 )" />
  </g>
</svg>