<?xml version="1.0" encoding="utf-8"?>
<svg version="1.1" xmlns:xlink="http://www.w3.org/1999/xlink" width="14px" height="14px" xmlns="http://www.w3.org/2000/svg">
  <g transform="matrix(1 0 0 1 -267 -113 )">
    <path d="M 7.03801626926829 13.8364065131707  C 10.6034634146341 13.8364065131707  13.5049918790244 11.002487804878  13.6176748058537 7.46435773268292  C 11.8760975609756 8.55134961170732  7.30925205073171 6.9791382204878  5.95227641365854 4.58263414634146  C 4.68681299902439 6.80248780487805  2.54253658536586 8.76863414634146  0.458471535609757 7.46822763317073  C 0.573089412682927 11.004422755122  3.47382112 13.8364064858537  7.03801626926829 13.8364065131707  Z M 11.3555934868293 2.28185365853658  C 10.8841165363038 1.87158477296775  10.3566557364996 1.53049626731144  9.78907317073171 1.26884553756098  C 10.3534014733277 1.53637367147262  10.8800916652126 1.87696385478206  11.3555934868293 2.28185365853658  Z M 7.02845529365854 0.679479683902438  C 7.09879675707317 0.674585365853658  7.17073170731708 0.672764245853658  7.24278048780488 0.671626025365853  C 7.17460163512195 0.669577244878049  7.10676421853659 0.666504074146341  7.03801626926829 0.666504074146341  C 6.96562602536586 0.666504074146341  6.89391870829269 0.669577244878049  6.82209756097561 0.671967488780488  C 6.89130080390244 0.673333342439024  6.96050407414634 0.674813026341463  7.02845529365854 0.679479683902438  Z " fill-rule="nonzero" fill="#fce9ea" stroke="none" transform="matrix(1 0 0 1 267 113 )" />
  </g>
</svg>