<?xml version="1.0" encoding="utf-8"?>
<svg version="1.1" xmlns:xlink="http://www.w3.org/1999/xlink" width="8px" height="4px" xmlns="http://www.w3.org/2000/svg">
  <g transform="matrix(1 0 0 1 -270 -126 )">
    <path d="M 0.93764226731707 1.33505690146341  C 1.01143351814414 1.54431648231615  1.106397479982 1.74549515954179  1.22105690146341 1.93546341463415  C 1.31507317073171 1.79352846439024  1.43230892487805 1.74754470634146  1.57299187902439 1.84645529365854  L 2.80544714536585 2.71115446243903  L 3.95401626926829 3.52213007219513  C 3.98201626926829 3.52281299902439  4.00978863609756 3.52429268292683  4.03790243902439 3.52429268292683  C 4.06487804878049 3.52429268292683  4.09151219512195 3.52292682926829  4.11848780487805 3.52224390243902  L 5.26728456195122 2.71115446243903  L 6.49973982829269 1.84645529365854  C 6.64110568195122 1.74663414634146  6.75856909658537 1.79421139121951  6.85281299902439 1.93899187902439  C 6.96869252188861 1.7475674470371  7.06457901389657 1.54473356484132  7.13895934048781 1.33369104780488  L 7.08056909658537 1.3129756097561  C 6.99215142387477 1.28236676740529  6.90324553916003 1.25318681330452  6.8138861697561 1.22544714536586  C 6.78565853658537 1.21668292682927  6.75777233951219 1.20757721756097  6.72954470634146 1.1990406595122  C 6.49198665785496 1.12796764872822  6.25157890131868 1.06679296770344  6.00894309853658 1.01567480585366  C 5.97491058731707 1.00850407414634  5.94042278243902 1.0021300995122  5.90639024390244 0.995300803902438  C 5.77629835654305 0.969324172960626  5.64567920531862 0.94606167530214  5.51461787707317 0.925528464390247  C 5.42522089700329 0.91175071113156  5.33563482707619 0.899229151167162  5.24588616975609 0.88796748878049  C 5.2078699004878 0.883073170731706  5.17019512195122 0.877837416585372  5.13195121951219 0.873512195121954  C 5.00419829142902 0.858605869961934  4.87616227514318 0.846234876465793  4.74791870829268 0.836406513170729  L 3.99294309853658 0.836406513170729  C 3.94126829268292 0.83970731707317  3.88970731707317 0.83970731707317  3.84133334243902 0.836406513170729  L 3.33471543804878 0.836406513170736  C 3.20628299723888 0.846240435072929  3.07805742913976 0.858611410782203  2.9501138302439 0.873512195121954  C 2.91221139121951 0.877837389268294  2.87487804878048 0.883073170731706  2.83720324292682 0.887853658536585  C 2.70603167597986 0.904285757119148  2.57522198881051 0.92348787236223  2.44486177951219 0.945447145365854  C 2.35357721756097 0.960926829268296  2.26297560975609 0.977658536585366  2.17305690146341 0.995642267317074  C 2.1399349502439 1.00224390243903  2.10669916878049 1.00839024390244  2.07369104780487 1.01533334243903  C 1.829973778741 1.06663600971236  1.58850124752762 1.12807688434405  1.34990243902439 1.19949592585366  C 1.32360975609756 1.20734958439024  1.29777236682926 1.216  1.27159348682926 1.22408129170731  C 1.1595280198227 1.25878180475082  1.04818744425606 1.29578148477041  0.93764226731707 1.33505690146341  Z " fill-rule="nonzero" fill="#fefefe" stroke="none" transform="matrix(1 0 0 1 270 126 )" />
  </g>
</svg>