<?xml version="1.0" encoding="utf-8"?>
<svg version="1.1" xmlns:xlink="http://www.w3.org/1999/xlink" width="8px" height="8px" xmlns="http://www.w3.org/2000/svg">
  <g transform="matrix(1 0 0 1 -268 -64 )">
    <path d="M 0.417662703703705 6.45890061111111  L 2.13734407407407 4.73839898148148  C 2.15785064814815 4.71830253703704  2.17835722222222 4.7035377962963  2.20050431481481 4.68713255555555  C 1.89929457559311 4.22428651528232  1.73895360101693 3.68393987525094  1.73895360101693 3.13171368608692  C 1.73895360101693 1.55679402930051  3.01567824052682 0.28006938979062  4.59059789731323 0.28006938979062  C 6.16551755409964 0.28006938979062  7.44224219360953 1.55679402930051  7.44224219360953 3.13171368608692  C 7.44224219360953 4.70663334287332  6.16551755409964 5.98335798238321  4.59059789731323 5.98335798238321  C 4.03884808673592 5.98335798238321  3.4989467361525 5.82329329449677  3.03635231481481 5.52257040740741  C 3.020675691821 5.5447318377344  3.00354944563638 5.56583137293487  2.98508587037037 5.58573066666667  L 1.2654045 7.3062322962963  C 1.15227886855554 7.42531101966324  0.995232071573739 7.49273265690604  0.83098484679228 7.49273265690604  C 0.500054658759197 7.49273265690604  0.231782735681168 7.224460733828  0.231782735681168 6.89353054579492  C 0.231782735681168 6.72938410053004  0.299121921543179 6.57242455986726  0.418072833333333 6.45931074074074  Z M 2.63934501851852 3.13806588888889  C 2.64047438512164 4.21251757788691  3.51096786379177 5.08337795639197  4.58541898148148 5.08496009259259  C 5.6608425480253 5.08496013579122  6.53231316049077 4.21348952332574  6.53231316049077 3.13847604319862  C 6.53231316049077 2.06346256307151  5.6608425480253 1.19199195060603  4.58582906789818 1.19199195060603  C 3.51097575949872 1.19199195060603  2.6395715067382 2.06321260435171  2.63934501851852 3.13806588888889  Z " fill-rule="nonzero" fill="#fffcfc" stroke="none" transform="matrix(1 0 0 1 268 64 )" />
  </g>
</svg>