<?xml version="1.0" encoding="utf-8"?>
<svg version="1.1" xmlns:xlink="http://www.w3.org/1999/xlink" width="21px" height="20px" xmlns="http://www.w3.org/2000/svg">
  <g transform="matrix(1 0 0 1 -265 -52 )">
    <path d="M 1.16275972222222 6.21196396296296  C 0.989839994460863 5.96756883551204  0.9485634253946 5.6536213949869  1.05243435185185 5.37283492592593  C 1.12912894444445 5.24282324074074  1.20623366666667 5.07754024074074  1.29195114814815 4.91758896296296  C 1.69675094444445 4.12275412962963  2.24632714814815 3.03098407407407  3.19168024074074 2.9440362037037  L 3.48738505555556 2.91450672222222  L 4.04557401851852 0.51810838888889  C 5.23328611279088 0.972620156598172  6.270785925093 1.74921823223063  7.04158461111111 2.76070740740741  C 8.25598398148149 4.53370587037037  8.74034927777778 7.48829318518519  8.74937216666667 7.5182327962963  L 8.80556018518519 7.87873837037037  L 9.17180761111111 7.87873837037037  C 9.34898442592593 7.87873837037037  13.7455940740741 7.85207981481481  15.577651462963 12.1568200185185  C 16.512473137864 14.2027790657332  16.6678024372443 16.5197379333625  16.0144415185185 18.672169  C 18.3858218333333 18.6516624259259  19.6953717037037 18.5081164074074  20.1481568703704 17.9511578333333  C 20.529169037037 17.469663462963  20.4110511666667 16.5891111296296  20.0714622962963 14.9079821111111  C 19.7349062848503 13.7049267069316  19.260521806021 12.544769720102  18.6577390185185 11.4505735925926  C 17.7964628703704 9.71612748148148  17.0533045925926 8.20069161111111  17.455233462963 7.23114074074074  C 17.6189486030638 6.85338355094437  17.9447470634078 6.56994944148018  18.3415276296296 6.46009351851852  L 18.3480897407407 6.45804287037037  C 18.503583067781 6.40838817035415  18.6699009569717 6.49411714933492  18.7196688703704 6.64957427777778  C 18.772844942799 6.80934628416958  18.6889647956376 6.98238321289068  18.5305982592593 7.03960933333333  C 18.305896703386 7.09645975365037  18.1196720138377 7.25320893615393  18.0253162407407 7.46491568518518  C 17.7296114259259 8.1916687037037  18.4764608888889 9.71038562962963  19.2073152222222 11.1876792962963  C 19.836580329624 12.3218651059574  20.3257579951569 13.5282830041121  20.6641022962963 14.7804312222222  C 21.018866037037 16.452947462963  21.2108075740741 17.599265  20.6198080925926 18.3260180185185  C 19.9984588703704 19.0982956296296  18.6052421851852 19.2611178333333  15.7859982777778 19.2762926851852  C 15.7568789444444 19.3431441111111  15.7298102592593 19.4022030555556  15.7060226296296 19.4518289814815  L 8.1833907037037 19.4518289814815  C 8.21078686915442 19.3980336965675  8.24557514572845 19.3483361505904  8.28674383333333 19.3041816296296  C 8.48196642592593 19.0798397037037  8.94295422222222 18.8120238333333  9.99166048148148 18.8120238333333  C 10.4493672407407 18.8120238333333  10.8119234814815 18.8120238333333  10.8779546481481 18.4281407592593  C 10.9439858148148 18.0442576851852  10.6093185185185 17.935982962963  10.2869551481481 17.8166346851852  C 10.1877033333333 17.778492462963  10.0708158518519 17.7346083888889  9.94326496296296 17.683341962963  C 11.27492259505 16.4921650982575  11.5170690662004 14.4983169977918  10.5092464259259 13.0230177407407  C 10.6523150126011 13.007742555913  10.7960158650831 12.9991205069887  10.9398845 12.997179462963  C 11.1589516351628 12.979073690135  11.3275245379147 12.7959935590974  11.3275245379147 12.5761794814815  C 11.3275245379147 12.3563654038656  11.1589516351628 12.173285272828  10.9398845 12.1551795  C 10.5645785625226 12.1577137561092  10.190462231681 12.1976946028634  9.82309642592593 12.2745277592593  C 9.19345323942336 11.7597517067173  8.40517882633621 11.4785300599882  7.59188618123253 11.4785300599882  C 6.38298762322744 11.4785300599882  5.25841066156896 12.0980090886913  4.61237574074074 13.1198087777778  L 4.14728662962963 12.2466388333333  L 4.14728662962963 6.94773987037037  L 2.32712303703704 6.94773987037037  C 1.83833746710106 6.91890890278825  1.39862118526193 6.64104662204176  1.16275972222222 6.21196396296296  Z " fill-rule="nonzero" fill="#fffcfc" stroke="none" transform="matrix(1 0 0 1 265 52 )" />
  </g>
</svg>