<?xml version="1.0" encoding="utf-8"?>
<svg version="1.1" xmlns:xlink="http://www.w3.org/1999/xlink" width="10px" height="16px" xmlns="http://www.w3.org/2000/svg">
  <g transform="matrix(1 0 0 1 -21 -53 )">
    <path d="M 9.34034830729167 13.8852698863636  C 9.52082734657611 14.0373401680407  9.62276006950712 14.2468826419792  9.62276006950712 14.4658220154775  C 9.62276006950712 14.911501687674  9.208776490774 15.2727964472957  8.69810186638212 15.2727964472957  C 8.44723783000325 15.2727964472957  8.20714054926056 15.1838398052138  8.03289388020833 15.0263352272727  L 0.635579427083333 8.57052556818182  C 0.274617744328463 8.25540339876236  0.274617744328463 7.74459660123764  0.635579427083333 7.42947443181818  L 8.03287760416667 0.973650568181818  C 8.2071242732189 0.816145990240696  8.4472215539616 0.727189348158864  8.69808559034047 0.727189348158864  C 9.20876021473235 0.727189348158864  9.62274379346547 1.08848410778049  9.62274379346547 1.53416377997705  C 9.62274379346547 1.75310315347531  9.52081107053446 1.96264562741385  9.34033203125 2.11471590909091  L 2.59680989583333 8  L 9.34033203125 13.8852698863636  Z " fill-rule="nonzero" fill="#fdfdfd" stroke="none" transform="matrix(1 0 0 1 21 53 )" />
  </g>
</svg>