<?xml version="1.0" encoding="utf-8"?>
<svg version="1.1" xmlns:xlink="http://www.w3.org/1999/xlink" width="8px" height="8px" xmlns="http://www.w3.org/2000/svg">
  <g transform="matrix(1 0 0 1 -269 -61 )">
    <path d="M 6.65674560531154 4.26137203041551  C 6.5009811135934 4.26137203041551  6.35606414676876 4.34113113680108  6.272727265625 4.472727265625  L 4.477272734375 6.29090908203125  L 4.477272734375 0.700000000000001  C 4.477272734375 0.448961474898093  4.27376580049253 0.245454541015626  4.02272727539063 0.245454541015626  C 3.77168875028872 0.245454541015626  3.56818181640625 0.448961474898093  3.56818181640625 0.700000000000001  L 3.56818181640625 6.26818181640625  L 1.772727265625 4.45  C 1.68637061323531 4.34916059105562  1.56024335288083 4.2911165557184  1.4274801885309 4.2911165557184  C 1.1764416688224 4.2911165557184  0.972934739312151 4.49462348522865  0.972934739312151 4.74566200493715  C 0.972934739312151 4.87842516928709  1.03097877464937 5.00455242964156  1.13181818359375 5.09090908203125  L 3.7 7.6636363671875  C 3.78534845400399 7.74968757506999  3.9015283934696 7.79809015590192  4.02272727539063 7.79809015590192  C 4.14392615731166 7.79809015590192  4.26010609677726 7.74968757507  4.34545455078125 7.6636363671875  L 6.9136363671875 5.09090908203125  C 7.0373401077196 5.00616492256457  7.11129105453029 4.8658647636555  7.11129105453029 4.71591747963426  C 7.11129105453029 4.46487895992576  6.90778412502004 4.26137203041551  6.65674560531154 4.26137203041551  Z " fill-rule="nonzero" fill="#ffffff" stroke="none" transform="matrix(1 0 0 1 269 61 )" />
  </g>
</svg>