<?xml version="1.0" encoding="utf-8"?>
<svg version="1.1" xmlns:xlink="http://www.w3.org/1999/xlink" width="15px" height="15px" xmlns="http://www.w3.org/2000/svg">
  <g transform="matrix(1 0 0 1 -274 -537 )">
    <path d="M 14.6428571451823 1.54761904296875  L 14.6428571451823 11.8238095214844  L 13.4523809570313 10.7267857096354  L 13.4523809570313 2.14285714518229  C 13.4523809570313 1.81411621881153  13.1858837811885 1.54761904296875  12.8571428548177 1.54761904296875  L 2.14285714518229 1.54761904296875  C 1.81411621881153 1.54761904296875  1.54761904296875 1.81411621881153  1.54761904296875 2.14285714518229  L 1.54761904296875 12.8571428548177  C 1.54761904296875 13.1858837811885  1.81411621881153 13.4523809570313  2.14285714518229 13.4523809570313  L 10.5416666666667 13.4523809570313  L 11.7380952311198 14.6428571451823  L 1.54761904296875 14.6428571451823  C 0.890137199216234 14.6428571451823  0.357142854817708 14.1098628007838  0.357142854817708 13.4523809570313  L 0.357142854817708 1.54761904296875  C 0.357142854817708 0.890137199216235  0.890137199216235 0.357142854817708  1.54761904296875 0.357142854817708  L 13.4523809570313 0.357142854817708  C 14.1098628007838 0.357142854817708  14.6428571451823 0.890137199216235  14.6428571451823 1.54761904296875  Z M 13.0523809570312 13.8767857096354  L 9.26309523111979 10.0875  C 8.55832199044782 10.6128665395694  7.70276842078239 10.8966617251793  6.82372614553827 10.8966617251793  C 4.5695496372618 10.8966617251793  2.74217852184035 9.06929060975789  2.74217852184035 6.81511410148142  C 2.74217852184035 5.73473040461752  3.17052734724948 4.69841892334528  3.93333333333333 3.93333333333333  C 4.69897554155576 3.16561530712509  5.73865590510021 2.73414088136958  6.82290631841662 2.73414088136958  C 9.076754080634 2.73414088136958  10.9038586947187 4.56124549545429  10.9038586947187 6.81509325767166  C 10.9038586947187 7.69784629236897  10.6176238733934 8.55680043623651  10.0880952311198 9.26309523111979  L 13.8767857096354 13.0523809570312  C 13.995546812515 13.1627470886943  14.0630193107995 13.3175598457803  14.0630193107995 13.4796859774662  C 14.0630193107995 13.8018520815342  13.8018520815342 14.0630193107995  13.4796859774662 14.0630193107995  C 13.3175598457803 14.0630193107995  13.1627470886943 13.995546812515  13.0523809570312 13.8767857096354  Z M 6.90476190592448 9.88134473884912  C 7.6942007565894 9.88134473884912  8.45130624721168 9.56774137648624  9.00952381184896 9.00952381184896  C 9.56774137648623 8.45130624721168  9.88134473884912 7.6942007565894  9.88134473884912 6.90476190592448  C 9.88134473884912 5.26084060069206  8.5486832111569 3.92817907299984  6.90476190592448 3.92817907299984  C 6.11532305525956 3.92817907299984  5.35821756463728 4.24178243536272  4.8 4.8  C 4.24178243536272 5.35821756463728  3.92817907299983 6.11532305525956  3.92817907299983 6.90476190592448  C 3.92817907299983 8.5486832111569  5.26084060069206 9.88134473884912  6.90476190592448 9.88134473884912  Z " fill-rule="nonzero" fill="#aaaaaa" stroke="none" transform="matrix(1 0 0 1 274 537 )" />
  </g>
</svg>