<?xml version="1.0" encoding="utf-8"?>
<svg version="1.1" xmlns:xlink="http://www.w3.org/1999/xlink" width="20px" height="13px" xmlns="http://www.w3.org/2000/svg">
  <g transform="matrix(1 0 0 1 -263 -55 )">
    <path d="M 19.2291695316041 8.59090909179687  C 19.2291695316041 6.52458838581025  17.6050022693956 4.82319235627285  15.5409090820312 4.727272734375  C 15.0235234057507 2.0763421737912  12.7009481252067 0.163244847589202  10 0.163244847589202  C 7.29905187479333 0.163244847589202  4.97647659424929 2.0763421737912  4.45909091796875 4.727272734375  C 2.39499773060437 4.82319235627285  0.770830468395869 6.52458838581025  0.770830468395869 8.59090909179687  C 0.770830468395869 10.7270393050051  2.5025061539793 12.4587149905885  4.6386363671875 12.4587149905885  C 4.69850905515256 12.4587149905885  4.75837367192034 12.4573247687963  4.81818181640625 12.4545454492188  L 5.422727265625 12.4545454492188  C 5.67376574701819 12.4545454492188  5.87727267652843 12.2510385197085  5.87727267652843 12  C 5.87727267652843 11.7489614802915  5.67376574701819 11.5454545507813  5.42272722730968 11.5454545507813  L 4.81818181640625 11.5454545507813  C 4.81060619802223 11.5455128247756  4.8030303835271 11.545541962096  4.79545454101563 11.545541962096  C 3.16365586540065 11.545541962096  1.84082167071653 10.2227077674119  1.84082167071653 8.59090909179687  C 1.84082167071653 6.9679790035031  3.14984519089465 5.64884734252384  4.772727265625 5.6363636328125  L 5.227272734375 5.74090908203125  L 5.2863636328125 5.24090908203125  C 5.58171174979228 2.87234477807725  7.59491069226347 1.09459058600027  9.98181818359375 1.09459058600027  C 12.368725674924 1.09459058600027  14.3819246173952 2.87234477807725  14.677272734375 5.24090908203125  L 14.7681818164063 5.73181818359375  L 15.222727265625 5.6363636328125  C 16.8456093441628 5.64884733718903  18.154632870224 6.96797899973682  18.154632870224 8.59090909179687  C 18.154632870224 10.2227077673704  16.8317986755735 11.5455419620209  15.2 11.5455419620209  C 15.1924241607438 11.5455419620209  15.184848349504 11.5455128247255  15.177272734375 11.5454545507813  L 14.4954545507813 11.5454545507813  C 14.2444160693881 11.5454545507813  14.0409091398778 11.7489614802915  14.0409091398778 12  C 14.0409091398778 12.2510385197085  14.2444160693881 12.4545454492188  14.4954545890966 12.4545454492188  L 15.1818181835938 12.4545454492187  C 15.2416263280796 12.4573247687963  15.3014909448475 12.4587149905885  15.3613636328125 12.4587149905885  C 17.4974938460207 12.4587149905885  19.2291695316041 10.7270393050051  19.2291695316041 8.59090909179687  Z " fill-rule="nonzero" fill="#ffffff" stroke="none" transform="matrix(1 0 0 1 263 55 )" />
  </g>
</svg>