<?xml version="1.0" encoding="utf-8"?>
<svg version="1.1" xmlns:xlink="http://www.w3.org/1999/xlink" width="9px" height="6px" xmlns="http://www.w3.org/2000/svg">
  <g transform="matrix(1 0 0 1 -170 -517 )">
    <path d="M 1.15959303694252 0.439148755185304  C 1.15959303694252 0.447287497914615  1.16006530323943 0.455420268252531  1.16100776103896 0.463511336727274  C 1.17447097558441 0.612860456727273  1.52533658805195 4.13143753309091  4.48970904935065 5.22935022545454  C 5.46502089974026 5.59058900945454  6.49644657662338 5.41188804654545  7.31955222233766 4.73909758254545  C 8.0952796987013 4.10505924654545  8.52343029818182 3.14191566545454  8.33751468467532 2.44888587054545  C 8.22271769766234 2.02155745745454  7.89004283844156 1.72765527272727  7.40053701818182 1.62156654545454  C 7.38254763790802 1.61764567512162  7.36413535932831 1.61566578760398  7.34566198290435 1.61566578760398  C 7.212390128692 1.61566578760398  7.1043519444628 1.71650142621791  7.1043519444628 1.84088849014944  C 7.1043519444628 1.90072616733853  7.12986473334348 1.95810417420709  7.17525950961039 2.00035889454545  C 7.31574963116883 2.131483008  7.53886891636363 2.39219650909091  7.45397876571428 2.66413277672727  C 7.3841961787013 2.88743705018182  7.04443001142857 3.30824283927273  5.55217205610389 3.617300544  C 3.3360867864935 4.07618698472727  1.64095574025974 0.394256308363636  1.62410102649351 0.35703894109091  C 1.6284804366158 0.3666653305484  1.63212091645475 0.376570179335353  1.63499492571428 0.386678557090907  L 1.62420380883117 0.357134853818181  C 1.58552144032854 0.275557541302028  1.49893212150641 0.222946798984253  1.40335058094943 0.222946798984253  C 1.26996520683023 0.222946798984253  1.16183499653385 0.32386832859421  1.16183499653385 0.448361344438797  C 1.16183499653385 0.477114022519911  1.16772876986233 0.505601213383942  1.17919849558441 0.532286749090908  C 1.25432525922078 0.698517975272728  3.0490429277922 4.59723030109091  5.65669176311688 4.05738646690909  C 6.97988881870129 3.78333994472727  7.74061149506493 3.356874816  7.91748312311688 2.79017306181818  C 8.03197178181818 2.42356269381818  7.8896317464935 2.02980665018182  7.51677280831168 1.68170906181818  C 7.56201487228584 1.72397615735561  7.58742789439194 1.78127793701828  7.58742789439194 1.84102353286828  C 7.58742789439194 1.96551654871286  7.47929768409555 2.06643807832282  7.34591230997635 2.06643807832282  C 7.32752594248618 2.06643807832282  7.30919970895626 2.06447846599777  7.29128975376623 2.06059732363636  C 7.60423227428571 2.12831760872727  7.79867801766233 2.29589173527273  7.8690772425974 2.55833182254545  C 8.01121173194805 3.08791210472727  7.63825001142857 3.87954878836363  7.00147107116883 4.40001655854545  C 6.60065799272727 4.72758704290909  5.76460298805194 5.21659271563636  4.66791671688311 4.81036695272727  C 1.98380507844155 3.81633680290909  1.64527218701298 0.459290810181817  1.64218899740259 0.425430667636364  C 1.63452280533659 0.306597597948201  1.52886552994126 0.21373420973076  1.40110862135811 0.21373420973076  C 1.26772324723891 0.21373420973076  1.15959303694252 0.314655739340717  1.15959303694252 0.439148755185304  Z " fill-rule="nonzero" fill="#6e6e96" stroke="none" transform="matrix(1 0 0 1 170 517 )" />
  </g>
</svg>