<?xml version="1.0" encoding="utf-8"?>
<svg version="1.1" xmlns:xlink="http://www.w3.org/1999/xlink" width="18px" height="15px" xmlns="http://www.w3.org/2000/svg">
  <g transform="matrix(1 0 0 1 -170 -508 )">
    <path d="M 7.75068321038961 1.38638  C 13.0191143002597 1.38628009090909  17.3053477963636 3.97525  17.3053477963636 7.15743185454545  C 17.3053477963636 8.523408  17.1303260820779 10.2472896545455  15.7655061257143 11.4640885272727  C 14.3695460945455 12.7085646363636  11.9194476218182 13.3134669454545  8.27533728 13.3134669454545  C 3.95282507844156 13.3134669454545  1.5774422774026 10.3044426363636  1.5774422774026 9.30706323636363  C 1.5774422774026 8.46016003636364  1.52821421298701 8.10175490909091  1.48073328 7.75494025454545  C 1.43397174857143 7.41442041818182  1.38998507844156 7.09268512727273  1.38998507844156 6.30603234545454  C 1.38998507844156 3.26873129090909  2.45409243428571 1.38638  7.75068321038961 1.38638  Z M 17.7883789464935 7.15753176363636  C 17.7882761828571 3.716363  13.2853980716883 0.91686629090909  7.75068321038961 0.916866290909091  C 2.8259236425974 0.916866290909091  0.907056691948053 2.42782314545454  0.907056691948053 6.30603234545454  C 0.907056691948053 7.1239594  0.95535980883117 7.47616961818182  1.00201855792208 7.8169892  C 1.04949949090909 8.16390378181818  1.09441110857143 8.49153421818182  1.09441112727273 9.30716314545455  C 1.09441112727273 10.4575166909091  3.5634197361039 13.7829806545455  8.27533728 13.7829806545455  C 12.045755145974 13.7829806545455  14.6026343314286 13.1376116363636  16.0918090971429 11.8102037636364  C 17.5954748072727 10.4697066545455  17.7883789464935 8.61962881818182  17.7883789464935 7.15753176363636  Z " fill-rule="nonzero" fill="#6e6e96" stroke="none" transform="matrix(1 0 0 1 170 508 )" />
  </g>
</svg>