<?xml version="1.0" encoding="utf-8"?>
<svg version="1.1" xmlns:xlink="http://www.w3.org/1999/xlink" width="19px" height="11px" xmlns="http://www.w3.org/2000/svg">
  <g transform="matrix(1 0 0 1 -169 -507 )">
    <path d="M 18.8124728281212 6.74585783111111  C 18.8124728281212 5.74299404444444  18.3658589478788 4.86723459555555  17.6523499995151 4.12815377777778  C 17.4204874307879 3.19387356444444  16.1581020606061 2.20361276444444  14.4554815592727 1.71952215111111  C 14.2925680166693 1.67331077285667  14.1280385854751 1.63257892061386  13.9621914269091 1.59740040888889  C 13.1267774283636 0.853630133333333  11.7007720174545 0.363482293333332  10.0809740499394 0.363482275555555  C 8.69911363975758 0.363482275555555  7.45819328581818 0.720566257777777  6.60465552581818 1.28721116444444  C 6.20335147460107 1.32127219124107  5.80649592319807 1.39336214119112  5.41982768581818 1.50243854222222  C 3.78150095515152 1.96259328  2.56720936145455 2.98851365333333  2.24260175418182 4.05458762666667  C 0.391751221333333 5.72120752  -0.03987765139394 7.52597153777778  1.79588663272727 7.52597153777778  C 2.83531943466667 7.52597153777778  3.49010337648485 7.32012312888889  4.222141088 7.52597153777778  C 6.98312813769697 8.30266584888889  8.05465720436364 10.9507537777778  12.9850273871515 10.9507537777778  C 14.9424942021818 10.9507537777778  18.8124728281212 10.2248621155556  18.8124728281212 6.74585783111111  Z " fill-rule="nonzero" fill="#8dbfaa" stroke="none" transform="matrix(1 0 0 1 169 507 )" />
  </g>
</svg>