<?xml version="1.0" encoding="utf-8"?>
<svg version="1.1" xmlns:xlink="http://www.w3.org/1999/xlink" width="20px" height="13px" xmlns="http://www.w3.org/2000/svg">
  <g transform="matrix(1 0 0 1 -169 -507 )">
    <path d="M 17.591741 4.22438343127273  C 17.6194182363636 4.25524603636364  17.6389022 4.29296700654545  17.6483943818182 4.33390931054546  C 17.3931044181818 3.22524546618182  16.0602010727273 2.12437521163636  14.3316232727273 1.59472299054546  C 14.1657089478477 1.54395459989856  13.9981452183077 1.49920961717522  13.8292366181818 1.46056936290909  C 13.8698032363636 1.46992166690909  13.9071724909091 1.49028891345455  13.9378472545455 1.51948889890909  C 13.0388868727273 0.657206349090909  11.547414 0.142413893818183  9.94822972727273 0.142413893818183  C 8.59424372727273 0.142413893818183  7.29531241818182 0.516194356363637  6.38446183636364 1.16794613236364  C 6.41793429090909 1.14404579781818  6.45690223636364 1.12939384290909  6.49726901818181 1.12586075490909  C 6.09260196363636 1.16223084072727  5.68393818181818 1.24214109381818  5.28266834545454 1.36361714036364  C 3.63442443636364 1.86261458618182  2.34098861818182 2.99310046690909  1.98777921818182 4.24371152872727  C 1.99956950909091 4.20173007563636  2.02205101818182 4.16390518109091  2.05282570909091 4.13408172509091  C 0.7723792 5.37689919709091  0.1444958 6.70648526836364  0.453341690909091 7.52138280872727  C 0.579138200000001 7.85328574254546  0.910065927272727 8.24909607127273  1.77225654545455 8.24909609018182  C 2.15414234545455 8.24909609018182  2.48656883636364 8.21937653963636  2.77982756363636 8.19319007709091  C 3.28401274545455 8.14809117672727  3.68238498181818 8.11255242909091  4.10084069090909 8.23932812654545  C 5.05565510909091 8.52883392872727  5.81053403636364 9.08176301381818  6.60957661818182 9.66711339927273  C 8.03300549090909 10.7097915316364  9.646478 11.8917150938182  12.8141717636364 11.8917151127273  C 13.4485498181818 11.8917151127273  15.0795079454545 11.8064013032727  16.5234199636364 11.0149884378182  C 18.0124948181818 10.1988439185455  18.7996471818182 8.87112831563636  18.7996471818182 7.17513969309091  C 18.7996471818182 6.11188648436364  18.3932815272727 5.11908731927273  17.591741 4.22438343127273  Z M 17.2481237090909 4.55732549527273  C 17.9661329636364 5.35861022981818  18.3301334727273 6.23938957672727  18.3301334909091 7.17513969309091  C 18.3301334909091 8.69987720727273  17.6486941454545 9.84646985163637  16.3045000727273 10.5831197585455  C 14.9154429272727 11.3442935083636  13.2817870181818 11.4035247607273  12.8141717636364 11.4035247607273  C 9.79515567272727 11.4035247607273  8.31317498181818 10.3179299316364  6.87995416363636 9.26797779345454  C 6.04793870909091 8.65851922472728  5.26208527272727 8.08283287854545  4.23213267272727 7.77056979636364  C 3.72954618181818 7.61823112581818  3.2708236 7.65927735418182  2.73956069090909 7.70666238254546  C 2.44180567272727 7.73326450472727  2.13385903636364 7.76080183272727  1.77215661818182 7.76080183272727  C 1.29205161818182 7.76080183272727  0.995295781818182 7.61999768872727  0.890082345454545 7.34233812945455  C 0.701637381818182 6.84531505745455  1.08542163636364 5.74091171490909  2.37306221818182 4.49113197236364  C 2.40383689090909 4.461204592  2.4263184 4.42337971636364  2.43810870909091 4.38139824436364  C 2.7474542 3.28655503563636  3.91549318181818 2.28606618618182  5.41396030909091 1.83237547054545  C 5.78071794110314 1.72091552850125  6.15711749309768 1.64719784006507  6.53773572727273 1.612284544  C 6.57821529271833 1.60868722455739  6.61709495413254 1.59418225067585  6.65054290909091 1.57019916654545  C 7.48505630909091 0.97321034909091  8.68696743636363 0.630708132363637  9.94812981818182 0.630708151272728  C 11.4324086181818 0.630708151272728  12.8047794909091 1.09718035345455  13.6191094909091 1.87851350109091  C 13.6496625332174 1.90780181983498  13.6871415495122 1.92813358432958  13.7277201454545 1.93743303709091  C 13.8903863090909 1.97484225309091  14.0488559272727 2.01713546036364  14.1986326909091 2.06306566109091  C 15.7468588727273 2.53753928290909  16.9775463272727 3.51807654545455  17.1915702363636 4.44769571054546  C 17.2010624181818 4.48874193890909  17.2205464 4.52646290909091  17.2481237090909 4.55732549527273  Z " fill-rule="nonzero" fill="#6e6e96" stroke="none" transform="matrix(1 0 0 1 169 507 )" />
  </g>
</svg>