<?xml version="1.0" encoding="utf-8"?>
<svg version="1.1" xmlns:xlink="http://www.w3.org/1999/xlink" width="19px" height="6px" xmlns="http://www.w3.org/2000/svg">
  <g transform="matrix(1 0 0 1 -170 -512 )">
    <path d="M 0.483606820363635 2.14589031029015  C 0.52051333241054 2.14589031029015  0.556623560249385 2.13572365803726  0.587539970909091 2.11662845672727  L 0.58541372121212 2.11797133963636  C 0.601107472484849 2.10876291490909  2.20956544775758 1.23444226909091  6.29297913890909 4.11581561018182  C 8.54457730327273 5.70465238690909  12.5432447117576 5.96651694545454  15.2066267393939 4.69968722618182  C 16.8641909769697 3.911311872  17.7770612460606 2.61215675345454  17.7770612276364 1.041640896  C 17.7770285283081 0.942068397231316  17.6918154855848 0.86136536317208  17.5867111762424 0.86136536317208  C 17.4816068669 0.86136536317208  17.3963938241767 0.942068397231318  17.3963611248485 1.041640896  C 17.3963611248485 2.87066405236364  16.112713257697 3.86517381818182  15.0359191873939 4.37739239563636  C 12.5313984581818 5.568636288  8.63175357769697 5.31645977018182  6.52038670739394 3.82670948072727  C 2.18303794715152 0.766059648  0.451257434181817 1.77035334981818  0.37967366981818 1.81457297454545  C 0.325792070838839 1.84785238691772  0.293301137117975 1.90466480369411  0.293301137117975 1.96560071563636  C 0.293301137117975 2.06517190931682  0.378503893700927 2.14589031029015  0.483606820363635 2.14589031029015  Z " fill-rule="nonzero" fill="#ffffff" stroke="none" transform="matrix(1 0 0 1 170 512 )" />
  </g>
</svg>