<?xml version="1.0" encoding="utf-8"?>
<svg version="1.1" xmlns:xlink="http://www.w3.org/1999/xlink" width="16px" height="8px" xmlns="http://www.w3.org/2000/svg">
  <g transform="matrix(1 0 0 1 -170 -507 )">
    <path d="M 8.42077513398602 7.79268090181818  C 12.063119914965 7.79268090181818  15.115968179021 6.40171865212121  15.9418732844755 4.52837996606061  C 15.9349866338462 4.52006681212121  15.9283951351049 4.51164706909091  15.9212133504895 4.50344048484849  C 15.6959217857343 3.48422570666667  14.4693125191608 2.40394119757576  12.8149444386014 1.87584234666667  C 12.6566478730745 1.82542993359062  12.4967812133048 1.78099518568749  12.3356341706294 1.74261862787879  C 11.5238958724476 0.931232872727273  10.1383035703497 0.396526138181818  8.56441080839161 0.396526118787879  C 7.22171243412587 0.396526118787879  6.01595986349651 0.786072281212122  5.18661145062937 1.40423036121212  C 4.79668038268583 1.44138784373079  4.41107174369129 1.52003142550592  4.03536170965035 1.63902386424243  C 2.44346529118881 2.14101085090909  1.26358681958042 3.26019671272727  0.948178636083917 4.42318650181818  C 0.926141386293708 4.44546150787879  0.905284690349651 4.4678431030303  0.883640964475527 4.49011810909091  C 1.68485254265734 6.3827476169697  4.75403197762238 7.79268092121212  8.42077513398602 7.79268090181818  Z " fill-rule="nonzero" fill="#9ad1ba" stroke="none" transform="matrix(1 0 0 1 170 507 )" />
  </g>
</svg>