<?xml version="1.0" encoding="utf-8"?>
<svg version="1.1" xmlns:xlink="http://www.w3.org/1999/xlink" width="18px" height="9px" xmlns="http://www.w3.org/2000/svg">
  <g transform="matrix(1 0 0 1 -170 -507 )">
    <path d="M 16.8714419283117 4.47065796155844  C 16.9129462163555 4.38220463908354  16.8977029507047 4.27752341166104  16.8326966711688 4.2045797361039  L 16.826427547013 4.19769397402597  C 16.8203641577285 4.19071951581409  16.8141623101423 4.18386664637982  16.8078257018182 4.17713945142857  C 16.836602025974 4.20776568935065  16.8570537662338 4.24548321662338  16.8668171719481 4.28638671584416  C 16.6042332093507 3.18990599064935  15.2332469111688 2.10113321142857  13.455281174026 1.57730134441558  C 13.2846264336881 1.52709084775152  13.1122751627737 1.48283756813319  12.9385405963636 1.44462193246753  C 12.9802662607792 1.4538714638961  13.0187032083117 1.47401489454546  13.0502544124675 1.50289398233766  C 12.1257122306494 0.649984282597403  10.5916258285714 0.140848887272728  8.94675057662338 0.140848905974027  C 7.55407926233767 0.140848905974027  6.21803563012987 0.510521890909091  5.28116074597403 1.15511155948052  C 5.31558955636364 1.13147386597403  5.35567087168831 1.11698292155844  5.39719099012987 1.1134886587013  C 4.98096201974026 1.14945907324675  4.56062212987013 1.22849119168831  4.14788744103896 1.34863233662338  C 2.45255084883117 1.84214629402597  1.12215972155844 2.96020925298701  0.758858624415584 4.1970773361039  C 0.771286096295669 4.15594177280454  0.794159688654535 4.11872792338893  0.825249712207792 4.08906334753247  L 0.781879679999999 4.13058346597403  L 0.756392091428571 4.15504334337662  C 0.682211589312191 4.22634867079662  0.661044134764452 4.3366747604638  0.703566981818181 4.43037110025974  C 1.60138829922078 6.38829163636364  4.92937018597402 7.75578367168831  8.79659983168831 7.75578369038961  C 12.6270368976623 7.75578369038961  15.9476191667532 6.40483804051948  16.8714419283117 4.47065796155844  Z M 16.4356861651948 4.26254347636364  C 15.6025088041558 6.00690258701299  12.3899405236364 7.27295806753247  8.79659983168832 7.27295806753247  C 5.17026913246753 7.27295806753247  1.95132894545455 5.99282273454546  1.14250869818182 4.22914237714286  C 1.1850958309692 4.3228310703683  1.16392098157363 4.4331957024423  1.08968358857143 4.50447013402597  L 1.11722663688312 4.47795481558442  L 1.15566358441559 4.44126499948052  C 1.18608427636364 4.41207758337662  1.21013306181818 4.37374341818182  1.22205467220779 4.33325101090909  C 1.54023860571429 3.25043904623377  2.74165012987013 2.26094457974026  4.28293060363637 1.81223947636364  C 4.66016702513466 1.70200436884739  5.04732085004333 1.62909676489952  5.43881389090909 1.59456713142857  C 5.48045001536742 1.59100934296884  5.52044052425062 1.57666376440469  5.55484413506493 1.55294423064935  C 6.41320077506493 0.962515729870131  7.64945222025974 0.623777273766234  8.94664781298701 0.623777292467533  C 10.4733345787013 0.623777292467533  11.8849160477922 1.08512342649351  12.7225126192208 1.85787049558442  C 12.7539386055951 1.88683696467196  12.7924884509268 1.90694530318311  12.8342264353247 1.91614256415584  C 13.0015402036364 1.95314068987013  13.1645375251948 1.99496913662338  13.3185936249351 2.04039460987013  C 14.9110548405195 2.50965423584416  16.1769047937662 3.47941636363637  16.3970436716883 4.39881993350649  C 16.406909841039 4.43972341402598  16.4272588176623 4.47744096  16.4559323594805 4.50806717922078  C 16.4580905828571 4.5102254025974  16.4611737537662 4.51371966545455  16.4644624893506 4.51752225662338  L 16.4745342046753 4.52862170181818  C 16.4093904012894 4.45574826745333  16.394096937218 4.35100018143458  16.4356861651948 4.26254347636364  Z " fill-rule="nonzero" fill="#6e6e96" stroke="none" transform="matrix(1 0 0 1 170 507 )" />
  </g>
</svg>