<?xml version="1.0" encoding="utf-8"?>
<svg version="1.1" xmlns:xlink="http://www.w3.org/1999/xlink" width="10px" height="4px" xmlns="http://www.w3.org/2000/svg">
  <g transform="matrix(1 0 0 1 -174 -507 )">
    <path d="M 9.50067859553289 1.8760004383648  C 9.50067859553289 1.76472244097603  9.43179138631293 1.66681215594995  9.33162327272727 1.63571991272727  C 9.16566046679106 1.58367629402922  8.99806547227864 1.53774901852018  8.82913669090909 1.49801985939394  C 8.86970330909091 1.50761196606061  8.90707256363637 1.52850144969697  8.93774734545454 1.55845015272727  C 8.03888689090909 0.674057793939394  6.547414 0.146065532121212  4.94822972727273 0.146065532121212  C 3.59424372727273 0.146065532121212  2.29531241818182 0.529430109090909  1.38446183636364 1.19789346909091  C 1.4179019992968 1.17335656481214  1.45673396550584 1.1584847471842  1.49716910909091 1.15472897939394  C 1.47838456363636 1.15654081939394  1.4600996 1.15888556606061  1.44401283636364 1.16080397575758  C 1.43367375062931 1.16222184679363  1.4233143129184 1.16346542495028  1.4129384 1.16453424484849  C 1.29290748241029 1.17734104799793  1.20150206673267 1.28507928689044  1.20150206673267 1.41375118692176  C 1.20150206673267 1.4630293417582  1.21513014773764 1.51121258651298  1.24068012727272 1.55226856727273  C 1.990763 2.75735707151515  3.6743778 3.53602309818182  5.52995110909091 3.53602309818182  C 7.10185781818182 3.53602309818182  8.56045774545454 2.98159924363636  9.43184081818182 2.05308319030303  C 9.47591338871437 2.00614207333269  9.50067859553289 1.94243445312037  9.50067859553289 1.8760004383648  Z M 9.04915567272727 1.97165684363636  C 9.01285244304675 1.87803301674753  9.03300486040207 1.77030108135742  9.10021367272727 1.69870809212121  C 8.31495974545454 2.53556623515152  6.9803578 3.03510190545454  5.53015094545455 3.03510188606061  C 3.82755176363636 3.03510188606061  2.29741069090909 2.34436352  1.6319582 1.27516322909091  C 1.65751215053666 1.31622131315849  1.67114249459895 1.36440837652574  1.67114249459895 1.41369062636067  C 1.67114249459895 1.54232407735177  1.57979008211696 1.65004324757846  1.45979985454545 1.66289755151515  C 1.47388825454545 1.66140544  1.48707741818182 1.65970018909091  1.49986689090909 1.65810148848485  C 1.51365554545454 1.65628964848485  1.52664485454545 1.65469096727273  1.53803547272727 1.65362517333333  C 1.57844295744557 1.64988492079788  1.61724625025262 1.63501089943293  1.65064283636364 1.61046068363636  C 2.48515623636363 0.99816446060606  3.68706736363636 0.646880135757575  4.94822972727273 0.646880155151515  C 6.43250852727273 0.646880155151515  7.8048794 1.1253131830303  8.61920941818182 1.92668051393939  C 8.64976245539351 1.95671981219876  8.68724146506639 1.97757290379461  8.72782005454545 1.98711080727273  C 8.89048621818181 2.02547923393939  9.04895583636363 2.06885688242424  9.19873261818181 2.11596478060606  C 9.13103028145482 2.09436992894537  9.07607380262063 2.0413493510777  9.04915567272727 1.97165684363636  Z " fill-rule="nonzero" fill="#6e6e96" stroke="none" transform="matrix(1 0 0 1 174 507 )" />
  </g>
</svg>