<?xml version="1.0" encoding="utf-8"?>
<svg version="1.1" xmlns:xlink="http://www.w3.org/1999/xlink" width="15px" height="13px" xmlns="http://www.w3.org/2000/svg">
  <g transform="matrix(1 0 0 1 -171 -507 )">
    <path d="M 14.7705052909091 10.4719312407273  C 14.8299563818182 10.4345220247273  14.8703231636364 10.3716537410909  14.8810143818182 10.3001605672727  C 14.9200822363636 10.0355942487273  14.9125884 9.93500499490909  14.8990994909091 9.75242720872727  C 14.8941036 9.68425929309091  14.8884082909091 9.60725863854545  14.8835123272727 9.500954112  C 14.6961664727273 5.42875253818182  12.8993448 2.10889195636364  10.0767670909091 0.620108868363636  C 10.068305981792 0.615660055368166  10.0595977313115 0.6117390078558  10.0506885454545 0.608366530909091  C 9.26143790909091 0.310131895272727  8.35318518181818 0.152493592727273  7.42414954545455 0.152493592727273  C 6.30247241818182 0.152493592727273  5.2399466 0.375909777454546  4.35137767272727 0.798530058181818  C 4.34469959081116 0.801716864870302  4.33816482927033 0.805218967147364  4.33179378181818 0.809025435636364  C 1.83774578181818 2.30456296436364  0.358263018181819 5.07242970472727  0.562495000000001 7.86055974836364  C 0.563993763636363 7.88134265454545  0.566191963636363 7.90087858181818  0.568190309090909 7.91802447563636  C 0.569389327272728 7.92851983418182  0.570488418181818 7.93839172218182  0.571287763636364 7.94712053672727  C 0.58199138605564 8.06711835218563  0.675332179325976 8.1610143548385  0.791006981818183 8.168146688  C 0.9679614 8.17905770618182  1.12882903636364 8.206075488  1.28280236363636 8.25044697454545  C 2.28967396363637 8.540784096  3.08422023636364 9.09454448145454  3.92542812727273 9.68062229963636  C 5.41979863636364 10.7219495476364  7.1134052 11.9021065658182  10.4368708181818 11.9021065469091  C 11.6312881090909 11.9018987170909  13.4537886363636 11.3005454923636  14.7705052909091 10.4719312407273  Z M 14.5274053090909 10.0542988378182  C 13.2757351272727 10.8419707854545  11.5554504909091 11.413708384  10.4368708181818 11.4139162138182  C 7.25618774545455 11.4139162138182  5.69577158181818 10.3265548407273  4.18671314545455 9.27514789381818  C 3.31313189090909 8.66641673890909  2.48811067272727 8.09135386327273  1.40819918181818 7.78002600581818  C 1.22205232727273 7.72630221527273  1.02931090909091 7.69388087709091  0.818983963636364 7.68078765527273  C 0.934622447901026 7.68800591783876  1.02791819796867 7.78185660159694  1.0387032 7.90181380654546  C 1.03730434545455 7.88674621090909  1.03570567272727 7.87261384  1.0343068 7.86004018327273  C 1.03277126995642 7.84805645859392  1.03153853008865 7.83603287222511  1.03060985454546 7.82398185163636  C 0.83996670909091 5.22154702254545  2.22782483636364 2.63428369454545  4.56620092727273 1.23216530036364  C 4.55980618181818 1.23601014254545  4.55331152727273 1.23943932509091  4.54661703636364 1.24266065890909  C 5.37433603636364 0.848928609454545  6.3693174 0.640787850181817  7.42404961818182 0.640787850181817  C 8.29912963636364 0.640787850181817  9.151928 0.788242529454545  9.89032049090909 1.06725297309091  C 9.88138710548651 1.06394404229577  9.8726750576425 1.0600212849517  9.86424194545454 1.05551063563636  C 12.5344450181818 2.46396782981818  14.2353456 5.62982710254545  14.4144982 9.52423095709091  C 14.4197938363636 9.63760167854546  14.4259887454545 9.72198026327273  14.4309846363636 9.78983644363636  C 14.4431746 9.955268336  14.4478707454545 10.0170974705455  14.4168962363636 10.2260695301818  C 14.4274713696387 10.1546243218217  14.4679389988202 10.0917231272748  14.5274053090909 10.0542988378182  Z " fill-rule="nonzero" fill="#6e6e96" stroke="none" transform="matrix(1 0 0 1 171 507 )" />
  </g>
</svg>