<?xml version="1.0" encoding="utf-8"?>
<svg version="1.1" xmlns:xlink="http://www.w3.org/1999/xlink" width="9px" height="13px" xmlns="http://www.w3.org/2000/svg">
  <g transform="matrix(1 0 0 1 -175 -507 )">
    <path d="M 7.46927771844156 11.8608524887273  C 7.57656345566016 11.8559251866003  7.66799638216737 11.7805308345018  7.69434968103896 11.6752611985455  C 7.81911560103896 11.1622352872727  7.83555922285714 10.8224348581818  7.85827196883117 10.1626816814545  C 8.00112585974026 5.99446309090909  7.20289118337663 2.56237486109091  5.7232742587013 0.982043087999998  C 5.26377801974026 0.491254891636362  4.76173393246754 0.226688554181816  4.27099483636364 0.216712760727271  C 3.74438810805195 0.205905647999998  3.1896216748052 0.468705441454544  2.66671477402598 0.976639531636362  C 1.34886189506494 2.25634665454545  0.463476062337668 4.78437869236363  0.410856498701302 7.417052656  C 0.395748935064939 8.17708333236363  0.449601755844157 8.92786562909091  0.571078958961042 9.64830488581818  C 0.580842345974028 9.706497008  0.611057491948054 9.75897383854545  0.656174655584417 9.79627913018182  C 1.70907980259741 10.6677061541818  3.19219099012987 11.5965979054545  6.20938859844156 11.8796610210909  C 6.49211599168831 11.9062631432727  6.84544813714286 11.8895328901818  7.18716698181818 11.8734261454545  L 7.46927771844156 11.8608524887273  Z M 7.1643514535065 11.3857553774545  C 6.83938454025975 11.4009268974545  6.50311263584416 11.4168258123636  6.25368357818182 11.3934450618182  C 3.37379015688312 11.1233712625455  2.0083535812987 10.2845733876364  0.961820340779223 9.41834209018182  C 1.00693750441559 9.45564740072727  1.03715265038961 9.50822813672728  1.0469160374026 9.56631633454545  C 0.930680247272729 8.876012288  0.878985631168834 8.15630042618182  0.893476556883118 7.42692452509091  C 0.954317922077924 4.37744949672727  2.0667283948052 2.23597938909091  3.0009312187013 1.32890969309091  C 3.42949291012987 0.912628193454546  3.86535143688312 0.696797768727273  4.26112866701299 0.705007018181818  C 4.61970222545455 0.712281042909091  5.00396891844156 0.924162701090909  5.37240864623377 1.31779084509091  C 6.44771821090909 2.46625393890909  7.53854644987013 5.38832979927273  7.37554912831169 10.1458475229091  C 7.35201419844156 10.8320988974545  7.33402900987013 11.1118367549091  7.22529560103897 11.5586691243636  C 7.2514496016224 11.4532286459648  7.34305711879831 11.3777248009837  7.45047034597403 11.3730778152727  L 7.1643514535065 11.3857553774545  Z " fill-rule="nonzero" fill="#6e6e96" stroke="none" transform="matrix(1 0 0 1 175 507 )" />
  </g>
</svg>