<?xml version="1.0" encoding="utf-8"?>
<svg version="1.1" xmlns:xlink="http://www.w3.org/1999/xlink" width="20px" height="8px" xmlns="http://www.w3.org/2000/svg">
  <g transform="matrix(1 0 0 1 -169 -512 )">
    <path d="M 18.9180497818182 1.84342766545455  C 18.9180497818182 0.632903621818182  18.3332309454545 0.788295776969697  18.3851881818182 1.27685381818182  C 18.2618896181818 4.91183645090909  14.5372540909091 5.67771298909091  12.6377169454545 5.67771298909091  C 7.77222005454545 5.67771298909091  6.71469014545454 2.78867661575758  3.99003185454545 1.94148032  C 3.26772612727273 1.71691841939394  2.62145785454545 1.94148032  1.5957018 1.94148032  C 1.09491381818182 1.94148032  0.766484036363634 1.79013816242424  0.590029218181816 1.53381573818182  C 0.367712127272725 2.37674887757576  0.684351618181816 2.97700167757576  1.68402912727272 2.97700167757576  C 2.70968527272727 2.97700167757576  3.35595354545454 2.7524397769697  4.07825927272727 2.97700167757576  C 6.80291754545454 3.82419797333333  7.86044745454545 6.71323434666667  12.7259443454545 6.71323434666667  C 14.6576550181818 6.71323434666667  18.9180497636364 5.63870508606061  18.9180497818182 1.84342766545455  Z " fill-rule="nonzero" fill="#8dbfaa" stroke="none" transform="matrix(1 0 0 1 169 512 )" />
  </g>
</svg>