<?xml version="1.0" encoding="utf-8"?>
<svg version="1.1" xmlns:xlink="http://www.w3.org/1999/xlink" width="20px" height="8px" xmlns="http://www.w3.org/2000/svg">
  <g transform="matrix(1 0 0 1 -169 -512 )">
    <path d="M 18.1517802181818 1.30488409212121  C 18.1505310031682 1.29256882105548  18.1501302615432 1.2801724041835  18.1505812181818 1.26779459878788  C 18.0133940909091 5.31054840242424  13.1874646363636 5.42714581333333  12.6376170181818 5.42714581333333  C 9.61870083636363 5.42714581333333  8.13662023636364 4.31371521939394  6.70339941818182 3.23684123151515  C 5.87138396363636 2.61175552  5.08563043636364 2.02130798545454  4.05557792727273 1.70103813818181  C 3.55299143636364 1.54479334787878  3.09416892727273 1.58689204363636  2.56300594545455 1.63549207272727  C 2.26525092727273 1.66277630060606  1.95720436363636 1.69101971393939  1.59550196363636 1.69101971393939  C 1.31892950909091 1.69101971393939  0.952830727272727 1.63794338909091  0.779073690909092 1.38556437333333  C 0.734803293009021 1.32140862268531  0.664571072392255 1.28352961976344  0.589889003601457 1.28352961976344  C 0.484729212387328 1.28352961976344  0.392381468253392 1.35807893562101  0.363815345454546 1.46603149575757  C 0.228426745454546 1.97984874666666  0.274488836363637 2.41724887272727  0.497405436363637 2.73123054545454  C 0.731213072727273 3.06045300363636  1.13028472727273 3.22735569454545  1.68382929090909 3.22735569454545  C 2.06571509090909 3.22735569454545  2.39814158181818 3.19687410424242  2.69150023636364 3.17001621333333  C 3.19568541818182 3.12376093090909  3.59405765454546 3.08731093333333  4.01241343636364 3.21744385939394  C 4.96732778181818 3.51437288727273  5.72210678181818 4.08137305212121  6.52124929090909 4.68183901090909  C 7.94477807272727 5.75125248  9.55805074545455 6.96348177454545  12.7258444363636 6.96348177454545  C 14.3932725454545 6.96348177454545  19.1525568363636 6.02281570909091  19.1525568363636 1.84332107636363  C 19.1525568363636 1.08884848484848  18.9435288181818 0.812702351515149  18.7681730909091 0.713903650909089  C 18.6348827636364 0.638658889696966  18.4819086181818 0.647185202424239  18.3591096363636 0.736498385454542  C 18.2058357454546 0.848086574545452  18.1263011818182 1.06593400242424  18.1517802181818 1.30488409212121  Z M 18.5473547636364 1.15588668121212  C 18.5826257454545 1.18146563878788  18.6832429636364 1.36307620848485  18.6832429636364 1.84332107636364  C 18.6832429636364 5.61408533333333  14.2714727636364 6.46277374060606  12.7259443454545 6.46277374060606  C 9.70692825454545 6.46277374060606  8.22494756363636 5.34934314666667  6.79162683636363 4.272256  C 5.95961138181818 3.64727687757576  5.17385785454545 3.05682932363636  4.14390525454545 2.73666608484848  C 3.64131876363636 2.58031472484848  3.18249625454545 2.62241342060606  2.65133327272727 2.67112  C 2.35347832727272 2.69840422787879  2.04553169090909 2.72664764121212  1.68382929090909 2.72664766060606  C 1.40975478181818 2.72664766060606  1.04645369090909 2.67506342787879  0.87169747272727 2.42886599757576  C 0.706533363636361 2.19631067151515  0.750197436363633 1.85067504484848  0.815843436363634 1.60159996121212  C 0.787243700362898 1.70950050569357  0.694919478109463 1.78399724853376  0.589797477156634 1.78399724853376  C 0.515158305549522 1.78399724853376  0.444961124066203 1.74616150976333  0.400684999999997 1.68206708363636  C 0.633693290909089 2.02034876121212  1.03566256363636 2.19194090666666  1.59560189090909 2.19194092606061  C 1.97748769090909 2.19194092606061  2.30991418181818 2.1613527660606  2.60327281818182 2.13449485575757  C 3.10755790909091 2.08823957333333  3.50583023636363 2.05178957575757  3.92418603636363 2.18181591272727  C 4.87910038181818 2.47874494060606  5.63387938181818 3.04585169454545  6.43302187272727 3.64631765333333  C 7.85645074545454 4.71583769212121  9.46982332727273 5.92806700606061  12.6375171090909 5.92806700606061  C 13.2573071818182 5.92806700606061  14.8534939090909 5.84386961454545  16.2843166909091 5.06339174787879  C 17.7555062727273 4.2609586230303  18.5630418545455 2.95472665212121  18.6195953272727 1.28601960727273  C 18.6200949090909 1.27354986666666  18.6195953272727 1.2610801260606  18.6181964727273 1.24882354424242  C 18.6116018909091 1.18615511272727  18.6253905454545 1.1514103660606  18.6306862 1.14405639757576  C 18.6160982 1.16398665696969  18.5677379818182 1.17070114909091  18.5473547636364 1.15588668121212  Z " fill-rule="nonzero" fill="#6e6e96" stroke="none" transform="matrix(1 0 0 1 169 512 )" />
  </g>
</svg>