<?xml version="1.0" encoding="utf-8"?>
<svg version="1.1" xmlns:xlink="http://www.w3.org/1999/xlink" width="25px" height="14px" xmlns="http://www.w3.org/2000/svg">
  <g transform="matrix(1 0 0 1 -165 -512 )">
    <path d="M 12.2596133636364 7.97510350809917  C 12.2597132727273 7.98171624727273  12.2600130363636 7.98853245619835  12.2605126181818 7.9951452138843  C 12.2736018545455 8.15354579570248  12.6148211090909 11.8852682419835  15.4968499090909 13.0498228046281  C 16.5173103272727 13.4621526558678  17.6126091636364 13.2035436006612  18.4267393272727 12.3578248806612  C 19.1517428363636 11.6048879973554  19.4609884 10.6010738909091  19.1786207090909 9.91670605487603  C 19.0641149272727 9.63927613090909  18.7430790545455 9.17394262214876  17.8778908909091 9.17394262214876  C 15.5605974545455 9.17394262214876  14.3327077090909 8.55203974082645  14.2285933636364 7.32552887008264  C 14.1744379272727 6.68663634776859  13.7514859090909 6.41805731173553  13.3562111272727 6.4354539107438  C 12.8113594 6.45946324892562  12.2596133636364 6.99601089322314  12.2596133636364 7.97510350809917  Z M 13.3766942727273 6.91309727471074  C 13.5923168727273 6.90363595900826  13.7359986545455 7.07322734016529  13.7610780181818 7.3668330631405  C 13.8495052727273 8.40920453024794  14.6356584545455 9.6518912  17.8779908181818 9.6518912  C 18.3306184181818 9.6518912  18.6225782 9.80317037752066  18.7458767636364 10.1018628072727  C 18.9502086545455 10.5974114538843  18.6689400545455 11.4233937004959  18.0916150545455 12.0232201785124  C 17.7663826363636 12.360978652562  16.8792125636364 13.0940772998347  15.6700074363636 12.6055483504132  C 13.0605543818182 11.5511722049587  12.7314251636364 7.99077062347107  12.7284276363636 7.95496007669421  C 12.7291270545455 7.96167456  12.7294268181818 7.96838902479339  12.7294268181818 7.97510350809917  C 12.7294268181818 7.30365593652892  13.0628524909091 6.92683143669422  13.3766942727273 6.91309727471074  Z M 19.3754587636364 7.02693816595041  C 19.3765578545455 7.03355090512397  19.3777568727273 7.04006191867769  19.3793555636364 7.04657291371901  C 19.4041351818182 7.15247850314049  20.0118351818182 9.64354897719008  22.0889262545455 10.1323831404959  C 22.8393088727273 10.3090959259504  23.5716063818182 10.0132520727273  24.0477146545455 9.34109236628099  C 24.4727649454545 8.74126586975207  24.5801765636364 8.00664120859504  24.3089996727273 7.55453317818182  C 24.1953931454545 7.3653070492562  23.9126257818182 7.06203655933884  23.2937349818182 7.15776869818182  C 21.7994644 7.38860423404959  20.9506627454545 7.12104254677686  20.7707108181818 6.36271374280992  C 20.6602017454545 5.89575247603306  20.3004976909091 5.74488025652892  20.0132340363636 5.80215676033058  C 19.6173597454545 5.88110270942149  19.2712445090909 6.32720840991736  19.3754587636364 7.02693816595041  Z M 20.1036596363636 6.27094925487603  C 20.2436444545455 6.24317573553719  20.2976000727273 6.40422142413223  20.3143862545455 6.47492687603306  C 20.4841465818182 7.19073066842975  21.1510978545455 7.97215320595041  23.3641770363636 7.6303253553719  C 23.6314571272727 7.58902116231405  23.8145065272727 7.6472132707438  23.9083293272727 7.80357917355372  C 24.0752919636364 8.08212817190082  23.9692791818182 8.63464812694215  23.6670278545455 9.06142427504132  C 23.4931708909091 9.30670610776859  23.0017752 9.85668270016529  22.1946392727273 9.66654096661157  C 20.3977176909091 9.24373246942149  19.8412755090909 6.95836911867768  19.8359798727273 6.9353771292562  C 19.8373787272727 6.94178639867769  19.8386776545455 6.94839913785124  19.8397767454546 6.95501189553719  C 19.7766287090909 6.53210167272727  19.9560810545455 6.30045225785124  20.1036596363636 6.27094925487603  Z M 3.84433705454546 1.83725890380165  C 6.20029867272727 1.29989738049587  8.4450518 2.35264576793388  8.84832001818182 4.18427334876033  C 9.00968725454545 4.91716854479339  8.86011030909091 5.68190661818182  8.41577589090909 6.39547224330578  C 7.78139783636364 7.41464825123967  6.64803030909091 8.17440134347107  5.3063342 8.48052040991736  C 4.17076849090909 8.73973985586777  3.16859303636364 8.61725154644628  2.4080188 8.12638268561983  C 1.72268265454545 7.68404116628099  1.25296912727273 6.96213329983471  1.04973632727273 6.03858770512397  C 0.839209545454546 5.08218186578512  0.975797163636364 4.14988709024794  1.43412007272727 3.41353292694215  C 1.92131923636364 2.63099131504132  2.75473352727273 2.08579623404959  3.84433705454546 1.83725890380165  Z M 9.30644309090909 4.07979202909091  C 8.84662141818182 1.99097969983471  6.35027529090909 0.77576133553719  3.74152165454545 1.37080632066116  C 2.52792014545455 1.64772756099173  1.59288943636364 2.26566279140496  1.03754636363636 3.15767070413223  C 0.512078690909091 4.0017616846281  0.353609072727273 5.06203841586777  0.591613254545455 6.14306900628099  C 0.822723109090909 7.19307056132231  1.36387787272727 8.01854414280992  2.15662563636364 8.53006510016529  C 3.02471141818182 9.09031688727273  4.14938609090909 9.23447464198347  5.40894976363636 8.94707473719008  C 6.87114672727273 8.61358910942149  8.11162612727273 7.7768230214876  8.8123496 6.6516396614876  C 9.32472803636364 5.82860771702479  9.49558745454545 4.93914316694215  9.30644309090909 4.07979202909091  Z " fill-rule="nonzero" fill="#6e6e96" stroke="none" transform="matrix(1 0 0 1 165 512 )" />
  </g>
</svg>