<?xml version="1.0" encoding="utf-8"?>
<svg version="1.1" xmlns:xlink="http://www.w3.org/1999/xlink" width="11px" height="6px" xmlns="http://www.w3.org/2000/svg">
  <g transform="matrix(1 0 0 1 -173 -508 )">
    <path d="M 9.35601987555555 1.39547968581818  L 8.11184353777778 1.82184890181818  C 8.11184353777778 1.82184890181818  8.88326218666667 3.34459604945455  8.72069370666667 4.65679643345455  L 10.0774174577778 4.20184274618182  C 10.0774174577778 4.20184274618182  9.73039630222222 2.03364263563636  9.35601987555555 1.39547968581818  Z M 2.46073301333333 4.68192774981818  C 2.46073301333333 4.68202366254546  3.36365235555555 4.99587744  3.79537713777778 4.99587745745455  C 3.79537713777778 4.99587745745455  3.82263472 2.47459186036364  4.63020140444444 1.68170818909091  L 4.7202784 1.59326895709091  L 3.47766520888889 1.16181594763636  C 3.47766520888889 1.16181594763636  2.46073301333333 3.14383323927273  2.46073301333333 4.68192774981818  Z M 0.151850417777777 3.49663095272727  L 0.511474542222222 3.75158920145455  C 0.511474542222222 3.75158920145455  1.48522449777778 1.03452867490909  2.79554199111111 0.628590650181818  L 2.53361527111111 0.309653061818181  C 2.53361527111111 0.309653061818181  0.570679164444445 1.75969202618182  0.151850417777777 3.49663095272727  Z " fill-rule="nonzero" fill="#6e6e96" stroke="none" transform="matrix(1 0 0 1 173 508 )" />
  </g>
</svg>