<?xml version="1.0" encoding="utf-8"?>
<svg version="1.1" xmlns:xlink="http://www.w3.org/1999/xlink" width="13px" height="8px" xmlns="http://www.w3.org/2000/svg">
  <g transform="matrix(1 0 0 1 -175 -511 )">
    <path d="M 0.903507998545453 3.61714532848485  C 0.903507998545453 3.61725189818182  0.140463799272728 4.08353493333334  0.946216846545453 4.90994833454545  C 0.946216846545453 4.90994833454545  0.198759826909089 4.32077973333333  2.865933408 4.49844691393939  C 5.53310698909091 4.67611409454545  6.68863625890909 4.62783379393939  7.05722099490909 4.24979814787879  L 7.05722099490909 6.74694361212121  C 7.05722099490909 6.74694361212121  8.03193904145454 6.95082920727273  8.40332948945455 6.56991592727273  L 8.40332948945455 3.78788485818182  C 8.40332948945455 3.78788485818182  10.1117878443636 3.24145442909091  10.3131741629091 2.82867405575757  C 10.3131741629091 2.82867405575757  10.6594172974545 5.10328261818182  10.6594172785455 5.6877617260606  C 10.6594172785455 5.6877617260606  11.33403024 5.65728013575758  11.798943728 4.5561061430303  C 11.798943728 4.5561061430303  11.5862307316364 2.64002926545455  11.3523191883636 2.15360279272727  C 11.3523191883636 2.15360279272727  12.0104097454545 1.33646176969697  12.0104097454545 1.0878130230303  C 12.0104097454545 0.839164276363635  11.5823859083636 0.839164256969697  11.5823859083636 0.839164256969697  C 11.5823859083636 0.839164256969697  7.80852287563636 5.29395238787879  0.903507998545453 3.61714532848485  Z " fill-rule="nonzero" fill="#6e6e96" stroke="none" transform="matrix(1 0 0 1 175 511 )" />
  </g>
</svg>