<?xml version="1.0" encoding="utf-8"?>
<svg version="1.1" xmlns:xlink="http://www.w3.org/1999/xlink" width="10px" height="3px" xmlns="http://www.w3.org/2000/svg">
  <g transform="matrix(1 0 0 1 -174 -510 )">
    <path d="M 9.18594312727273 0.805967541818182  C 9.31044069090909 0.710765869090909  9.52056781818182 0.839300116363636  9.65515709090909 1.09301138181818  C 9.78964643636364 1.34672264727273  9.79763985454546 1.62956993454545  9.67284252727273 1.72477158545455  C 9.54824503636364 1.81997325818182  9.39177378181818 1.62717187636364  9.25718452727273 1.37334074181818  C 9.12269518181818 1.11962947636364  9.06114581818182 0.901169214545454  9.18594312727273 0.805967541818182  Z M 1.34839150909091 0.418326479999999  C 1.19871465454546 0.354299149090909  0.931134800000002 0.569282290909091  0.750583363636365 0.898411483636364  C 0.570131836363637 1.22754069818182  0.545152381818182 1.54611857454545  0.695029072727275 1.61002599272727  C 0.844705927272728 1.67393341090909  1.04923765454546 1.40535438545455  1.22978909090909 1.07622519272727  C 1.41024061818182 0.747095978181817  1.4982682 0.482114007272727  1.34839150909091 0.418326479999999  Z " fill-rule="nonzero" fill="#ffffff" stroke="none" transform="matrix(1 0 0 1 174 510 )" />
  </g>
</svg>