<?xml version="1.0" encoding="utf-8"?>
<svg version="1.1" xmlns:xlink="http://www.w3.org/1999/xlink" width="15px" height="14px" xmlns="http://www.w3.org/2000/svg">
  <g transform="matrix(1 0 0 1 -25 -626 )">
    <path d="M 6.22367857142857 0.60375  C 6.40492857142857 0.23625  6.76475 0  7.15135714285714 0  C 7.53707142857143 0  7.92367857142857 0.23625  8.07814285714286 0.60375  L 9.72635714285714 4.018875  L 13.4093928571429 4.675125  C 13.796 4.727625  14.1308214285714 5.016375  14.2343928571429 5.410125  C 14.3629642857143 5.80475  14.2593928571429 6.22475  13.9763571428571 6.514375  L 11.3236785714286 9.0615  L 11.9933214285714 12.739125  C 12.0701071428571 13.159125  11.88975 13.552875  11.5808214285714 13.789125  C 11.4263571428571 13.920375  11.2201071428571 14  10.9888571428571 14  C 10.8343928571429 14  10.6540357142857 13.9475  10.4995714285714 13.86875  L 7.15135714285714 12.161625  L 3.77635714285714 13.867875  C 3.44242857142857 14.0525  3.00403571428571 14.02625  2.69510714285714 13.789125  C 2.37280834975754 13.5388171812204  2.21480194313472 13.1366190552714  2.28260714285714 12.739125  L 2.97903571428571 9.0615  L 0.324571428571429 6.540625  C 0.0415357142857143 6.251875  -0.0620357142857143 5.805625  0.0415357142857143 5.43725  C 0.157607142857143 5.082875  0.419214285714286 4.813375  0.771 4.724125  L 4.57457142857143 4.018875  L 6.22367857142857 0.60375  Z M 8.81028571428571 5.18875  L 7.15135714285714 1.75  L 5.49421428571429 5.184375  L 1.5835 5.90625  L 4.42725 8.60825  L 3.70403571428571 12.427625  L 7.15403571428571 10.682  L 10.57725 12.427625  L 9.88171428571428 8.609125  L 12.7183214285714 5.88525  L 8.81117857142857 5.18875  Z " fill-rule="nonzero" fill="#555555" stroke="none" transform="matrix(1 0 0 1 25 626 )" />
  </g>
</svg>