<?xml version="1.0" encoding="utf-8"?>
<svg version="1.1" xmlns:xlink="http://www.w3.org/1999/xlink" width="15px" height="15px" xmlns="http://www.w3.org/2000/svg">
  <g transform="matrix(1 0 0 1 -25 -749 )">
    <path d="M 7.3835323828125 1.77783739746094  L 7.38453231445313 1.77683746582031  C 5.07667847167969 1.77683746582031  3.22979544433594 3.65071879394531  3.22979544433594 5.99057059570313  C 3.22979544433594 8.33042239746094  5.07567854003906 10.2033037939453  7.3835323828125 10.2033037939453  C 9.69038627929687 10.2033037939453  11.536269375 8.33142234375  11.536269375 5.99057059570313  C 11.536269375 3.65071877929687  9.69038627929688 1.77783739746094  7.3835323828125 1.77783739746094  Z M 2.53783927734375 7.5104743359375  L 2.53783927734375 3.65071879394531  L 2.42284655273438 3.65071879394531  C 3.23079537597656 1.77683746582031  5.07667847167969 0.489918969726563  7.38453231445313 0.489918969726563  C 9.57639350097656 0.489918969726563  11.5372693066406 1.77683746582031  12.4612107861328 3.76671143554687  L 12.3452181298828 3.76671143554687  L 12.3452181298828 7.62746692382812  C 13.3841523339844 7.62746692382812  14.3070938818359 6.80851879394531  14.3070938818359 5.75558547363281  C 14.3070938818359 5.05362993164063  13.9611157910156 4.35167438964844  13.2681596777344 4.11768921386719  C 12.4612107861328 1.77783739746094  10.1533569580078 0.020948671875  7.49952502441406 0.020948671875  C 4.61470772460937 -0.21303650390625  2.42284655273438 1.54185234375  1.49990500488281 3.88270409179687  C 0.922941547851563 4.23268192382812  0.576963457031251 4.93563741210937  0.576963457031251 5.63759295410156  C 0.576963457031251 6.69052627441406  1.38491228027344 7.50947440429688  2.53783927734375 7.50947440429688  Z M 14.9990500634766 15  C 14.8840573535156 12.5421556640625  13.4991450585938 10.7872668017578  11.5372693066406 9.73433349609375  C 10.3843423242187 10.7872668017578  8.99943002929687 11.3722297558594  7.38453231445313 11.3722297558594  C 5.76863465332031 11.3722297558594  4.2687296484375 10.7872668017578  3.23079537597656 9.73433349609375  C 1.26891963867188 10.7872668017578  0 12.5421556640625  0 15  L 14.9990500634766 15  Z " fill-rule="nonzero" fill="#333333" stroke="none" transform="matrix(1 0 0 1 25 749 )" />
  </g>
</svg>