<?xml version="1.0" standalone="no"?><!DOCTYPE svg PUBLIC "-//W3C//DTD SVG 1.1//EN" "http://www.w3.org/Graphics/SVG/1.1/DTD/svg11.dtd"><svg t="1679486170508" class="icon" viewBox="0 0 1024 1024" version="1.1" xmlns="http://www.w3.org/2000/svg" p-id="8317" xmlns:xlink="http://www.w3.org/1999/xlink" width="32" height="32"><path d="M739.328 1012.736l-593.92 0c-74.752 0-135.168-60.416-135.168-135.168l0-737.28c0-74.752 60.416-135.168 135.168-135.168l607.232 0c74.752 0 135.168 60.416 135.168 135.168l0 416.768c0 11.264-9.216 20.48-20.48 20.48s-20.48-9.216-20.48-20.48L846.848 140.288c0-51.2-41.984-94.208-94.208-94.208l-607.232 0c-51.2 0-94.208 41.984-94.208 94.208l0 737.28c0 51.2 41.984 94.208 94.208 94.208l593.92 0c90.112 0 163.84-73.728 163.84-163.84 0-11.264 9.216-20.48 20.48-20.48s20.48 9.216 20.48 20.48C945.152 920.576 852.992 1012.736 739.328 1012.736z" p-id="8318"></path><path d="M224.256 293.888m-53.248 0a5.2 5.2 0 1 0 106.496 0 5.2 5.2 0 1 0-106.496 0Z" p-id="8319"></path><path d="M678.912 314.368 395.264 314.368c-11.264 0-20.48-9.216-20.48-20.48s9.216-20.48 20.48-20.48l283.648 0c11.264 0 20.48 9.216 20.48 20.48S690.176 314.368 678.912 314.368z" p-id="8320"></path><path d="M224.256 487.424m-53.248 0a5.2 5.2 0 1 0 106.496 0 5.2 5.2 0 1 0-106.496 0Z" p-id="8321"></path><path d="M678.912 507.904 395.264 507.904c-11.264 0-20.48-9.216-20.48-20.48s9.216-20.48 20.48-20.48l283.648 0c11.264 0 20.48 9.216 20.48 20.48S690.176 507.904 678.912 507.904z" p-id="8322"></path><path d="M224.256 681.984m-53.248 0a5.2 5.2 0 1 0 106.496 0 5.2 5.2 0 1 0-106.496 0Z" p-id="8323"></path><path d="M678.912 702.464 395.264 702.464c-11.264 0-20.48-9.216-20.48-20.48s9.216-20.48 20.48-20.48l283.648 0c11.264 0 20.48 9.216 20.48 20.48S690.176 702.464 678.912 702.464z" p-id="8324"></path></svg>