<?xml version="1.0" encoding="utf-8"?>
<svg version="1.1" xmlns:xlink="http://www.w3.org/1999/xlink" width="7px" height="11px" xmlns="http://www.w3.org/2000/svg">
  <g transform="matrix(1 0 0 1 -276 -659 )">
    <path d="M 6.87972508591065 5.24649298597194  C 6.95990836197022 5.31997327989312  7 5.40447561790247  7 5.5  C 7 5.59552438209753  6.95990836197022 5.68002672010688  6.87972508591065 5.75350701402806  L 1.27491408934708 10.8897795591182  C 1.19473081328751 10.9632598530394  1.10252004581901 11  0.998281786941581 11  C 0.894043528064147 11  0.801832760595647 10.9632598530394  0.721649484536082 10.8897795591182  L 0.120274914089347 10.3386773547094  C 0.0400916380297824 10.2651970607882  0 10.1806947227789  0 10.0851703406814  C 0 9.98964595858383  0.0400916380297824 9.90514362057448  0.120274914089347 9.83166332665331  L 4.84707903780069 5.5  L 0.120274914089347 1.16833667334669  C 0.0400916380297824 1.09485637942552  0 1.01035404141617  0 0.914829659318638  C 0 0.819305277221107  0.0400916380297824 0.734802939211756  0.120274914089347 0.661322645290581  L 0.721649484536082 0.110220440881764  C 0.801832760595647 0.0367401469605875  0.894043528064147 0  0.998281786941581 0  C 1.10252004581901 0  1.19473081328751 0.0367401469605875  1.27491408934708 0.110220440881764  L 6.87972508591065 5.24649298597194  Z " fill-rule="nonzero" fill="#aaaaaa" stroke="none" transform="matrix(1 0 0 1 276 659 )" />
  </g>
</svg>