<?xml version="1.0" encoding="utf-8"?>
<svg version="1.1" xmlns:xlink="http://www.w3.org/1999/xlink" width="12px" height="9px" xmlns="http://www.w3.org/2000/svg">
  <g transform="matrix(1 0 0 1 -281 -148 )">
    <path d="M 2.64336143092105 8.31811072716346  C 2.62820723684211 8.32364783653846  2.26562911184211 8.45469275841346  1.84524054276316 8.45469275841346  C 1.23795024671052 8.45469275841346  0.813071546052633 8.18645057091346  0.616067023026315 7.67888221153846  C 0.600912828947372 7.64073768028846  0.597545230263158 7.59767127403846  0.604841694078948 7.55706580528846  C 0.610454358552632 7.52814978966346  1.18575246710526 4.64577674278846  3.81247944078947 4.07791541466346  C 3.81360197368421 4.07730018028846  3.82875616776315 4.07422400841346  3.83493009868421 4.07299353966346  C 3.93371299342105 4.05207557091346  4.02800575657895 4.03607947716346  4.12285978618421 4.02377478966346  C 4.21939761513158 4.00962439903846  4.31930304276315 3.99855018028846  4.42145353618421 3.99178260216346  C 4.51518503289473 3.60972205528846  4.88618215460526 2.78284705528846  6.34547491776316 2.78284705528846  C 6.4246134868421 2.78284705528846  6.50711965460526 2.78530799278846  6.59243215460526 2.79022986778846  C 6.68672491776315 2.79576697716346  6.76193462171052 2.87759314903846  6.76866981907894 2.98033728966346  C 6.77540501644737 3.08369666466346  6.710859375 3.17536658653846  6.61825041118421 3.19566932091346  C 6.6165666118421 3.19628455528846  6.5862582236842 3.20243689903846  6.53686677631579 3.21535682091346  C 6.37634457236842 3.25903846153846  5.83135485197367 3.43007361778846  5.65006578947368 3.76845252403846  C 5.61133840460526 3.84105018028846  5.59225534539473 3.91733924278846  5.59281661184211 3.99916541466346  C 5.64613692434211 4.00285682091346  5.71292763157895 4.00777869591346  5.79094366776316 4.01147010216346  C 5.96156866776315 4.02008338341346  6.13219366776316 4.02439002403846  6.30225740131579 4.02439002403846  C 7.47586554276316 4.02439002403846  8.40420024671053 3.81767127403846  8.9166365131579 3.44360877403846  C 9.04853412828948 3.34824744591346  9.15461348684211 3.23996619591346  9.23319078947369 3.12307166466346  C 9.46274876644737 2.78100135216346  9.52055921052632 2.44939002403846  9.40549958881579 2.13746619591346  C 9.18155427631579 1.53146033653846  8.32730674342105 1.00789588341346  7.22778577302632 0.803022836538463  C 7.13798314144737 0.786411508413461  7.0717537006579 0.700278695913462  7.07231496710527 0.600610727163463  C 7.07287623355264 0.500327524038462  7.13910567434212 0.415425180288463  7.22890830592106 0.399429086538461  C 7.23901110197368 0.397583383413461  7.48260074013158 0.354516977163463  7.84125 0.354516977163463  C 8.63993215460527 0.354516977163463  10.0475884046053 0.570464242788463  10.6571237664474 1.98857947716346  C 10.7564679276316 1.98427283653846  10.8900493421053 1.95105018028846  11.0045476973684 1.82431189903846  C 11.1723663651316 1.63851111778846  11.2588013980263 1.29274939903846  11.2554337993421 0.82271033653846  C 11.2548725328947 0.723657602163458  11.3188569078947 0.63814002403846  11.407537006579 0.61968299278846  C 11.4193236019737 0.617222055288461  11.4311101973684 0.615991586538458  11.4423355263158 0.615991586538458  C 11.5186677631579 0.615991586538458  11.588826069079 0.66767127403846  11.6168893914474 0.747651742788459  C 11.6281147203947 0.780259164663459  11.8919099506579 1.55422400841346  11.5865810032895 2.28081580528846  C 11.4131496710526 2.69425330528846  11.0949115953947 3.00433143028846  10.6408470394737 3.20305213341346  C 10.5875267269737 3.37285682091346  10.4522615131579 3.70631385216346  10.138513569079 4.04346228966346  C 10.1368297697369 4.04530799278846  10.1351459703947 4.04715369591346  10.1329009046053 4.04899939903846  C 10.0947347861842 4.09022010216346  10.059375 4.12590369591346  10.0217701480263 4.16097205528846  C 9.52280427631579 4.63285682091346  8.82795641447369 4.92140174278846  7.95350328947369 5.02045447716346  C 8.07978824013158 5.16380408653846  8.3334806743421 5.32561072716346  8.83862047697368 5.32561072716346  C 8.83862047697368 5.32561072716346  8.89418585526316 5.32499549278846  8.89474712171053 5.32499549278846  C 8.9806208881579 5.32499549278846  9.05583059210527 5.38959510216346  9.0765974506579 5.48126502403846  C 9.09736430921053 5.57478064903846  9.05583059210527 5.67137244591346  8.97725328947369 5.71320838341346  C 8.96883429276316 5.71751502403846  8.76677837171053 5.82518103966346  8.45022409539474 5.87686072716346  C 8.33628700657895 5.89593299278846  8.21954358552632 5.90516150841346  8.10392269736843 5.90516150841346  C 7.50785773026317 5.90516150841346  6.93031455592106 5.65291541466346  6.42966488486842 5.17426307091346  C 6.34828125 5.16749549278846  6.18832031250001 5.15826697716346  5.97896792763158 5.15826697716346  C 5.65792351973684 5.15826697716346  5.34585937500001 5.18041541466346  5.05007195723685 5.22532752403846  C 4.37879728618422 5.32684119591346  3.48301603618422 5.59446814903846  3.02446134868422 6.29583533653846  C 2.72530633223684 6.75295447716346  2.63887129934211 7.35465369591346  2.76740131578948 8.08493689903846  C 2.78536184210527 8.18583533653845  2.73204152960527 8.28550330528846  2.64336143092105 8.31811072716346  Z " fill-rule="nonzero" fill="#724638" stroke="none" transform="matrix(1 0 0 1 281 148 )" />
  </g>
</svg>