<?xml version="1.0" encoding="utf-8"?>
<svg version="1.1" xmlns:xlink="http://www.w3.org/1999/xlink" width="13px" height="10px" xmlns="http://www.w3.org/2000/svg">
  <g transform="matrix(1 0 0 1 -281 -148 )">
    <path d="M 7.26090049342105 0.60368689903847  C 7.25921669407895 0.601225961538463  7.49326480263158 0.559390024038463  7.84125 0.559390024038463  C 8.62814555921053 0.559390024038463  9.995390625 0.775337289663462  10.5319613486842 2.18483924278846  C 10.5319613486842 2.18483924278846  10.5718112664474 2.19345252403846  10.6346731085526 2.19345252403846  C 10.8748951480263 2.19345252403846  11.4518770559211 2.06425330528846  11.4417742598684 0.82024939903846  C 11.4417742598684 0.82024939903846  12.0108984375 2.45123572716346  10.4870600328947 3.04801307091346  C 10.4870600328947 3.04801307091346  10.4096052631579 3.46452674278846  10.0066159539474 3.89826697716346  C 10.0054934210526 3.89826697716346  10.0054934210526 3.89949744591346  10.0049321546053 3.90011268028846  C 9.9723787006579 3.93518103966346  9.93758018092106 3.97086463341346  9.90053659539474 4.00593299278846  C 9.48856702302632 4.39476111778846  8.7993318256579 4.77005408653846  7.65098067434211 4.84265174278846  C 7.65098067434211 4.84265174278846  7.65266447368421 4.85372596153846  7.65771587171053 4.87218299278846  C 7.69363692434211 5.00384314903846  7.89457031250001 5.53171424278846  8.83862047697368 5.53171424278846  C 8.85714226973684 5.53171424278846  8.87622532894737 5.53109900841346  8.8953083881579 5.53109900841346  C 8.8953083881579 5.53109900841346  8.7140193256579 5.62830603966346  8.42272203947369 5.67629432091347  C 8.32730674342105 5.69229041466346  8.22066611842105 5.70213416466347  8.10448396381579 5.70213416466347  C 7.66276726973685 5.70213416466347  7.08634662828948 5.55324744591347  6.50768092105263 4.97738807091347  C 6.50768092105263 4.97738807091347  6.30001233552631 4.95523963341347  5.97952919407895 4.95523963341347  C 5.7191015625 4.95523963341347  5.38458675986842 4.97000525841347  5.0259375 5.02414588341347  C 3.75859786184211 5.21548377403847  2.19322574013158 5.89347205528847  2.58498972039474 8.12492713341346  C 2.58498972039474 8.12492713341346  2.24149465460527 8.25105018028847  1.84580180921053 8.25105018028847  C 1.44449629934211 8.25105018028847  0.990993009868428 8.12185096153846  0.788375822368426 7.60013221153847  C 0.788375822368426 7.60013221153847  1.31372121710527 4.82665564903847  3.85064555921053 4.28032752403847  C 3.85738075657895 4.27848182091347  3.86074835526316 4.27848182091347  3.86299342105263 4.27725135216347  C 3.86411595394737 4.27725135216347  3.86411595394737 4.27725135216347  3.86411595394737 4.27725135216347  C 3.95560238486842 4.25756385216347  4.04877261513158 4.24095252403847  4.14531044407895 4.22926307091347  C 4.28338199013158 4.20896033653847  4.42875 4.19542518028847  4.57804687500001 4.19050330528847  C 4.57804687500001 4.19050330528847  4.61677425986843 2.98956580528847  6.3465974506579 2.98956580528847  C 6.42236842105263 2.98956580528847  6.50150699013158 2.99202674278847  6.58401315789474 2.99694861778847  C 6.58401315789474 2.99694861778847  6.55033717105264 3.00433143028847  6.49533305921053 3.01848182091347  C 6.19449424342105 3.10030799278847  5.24146381578947 3.42207557091347  5.43229440789474 4.19296424278847  C 5.43229440789474 4.19296424278847  5.56475328947368 4.20711463341347  5.78364720394737 4.21880408653847  C 5.78364720394737 4.21880408653847  5.7847697368421 4.21880408653847  5.7864535361842 4.21880408653847  C 5.92733141447368 4.22618689903847  6.10413034539473 4.23172400841347  6.30394120065789 4.23172400841347  C 7.1194613486842 4.23172400841347  8.31608141447368 4.13205603966347  9.02215460526315 3.61648963341347  C 9.16583881578946 3.51189978966347  9.29043996710525 3.38885291466347  9.38529399671052 3.24673377403847  C 10.2417865953947 1.96827674278847  8.89923725328947 0.908843149038471  7.26090049342105 0.60368689903847  Z M 7.84125 0.149643930288462  C 7.46744654605264 0.149643930288462  7.20982524671053 0.195171274038462  7.19859991776316 0.197016977163464  C 7.01843338815789 0.229009164663464  6.88597450657894 0.399429086538461  6.88541324013158 0.599995492788463  C 6.88485197368421 0.800561899038463  7.01618832236842 0.971597055288463  7.19635485197368 1.00543494591346  C 8.21729851973684 1.19554236778846  9.03506373355263 1.68157752403847  9.23150699013157 2.21437049278846  C 9.32187088815789 2.45923377403846  9.27304070723684 2.71640174278846  9.08221011513158 3.00187049278846  C 9.01654194078947 3.09969275841346  8.92617804276316 3.19074744591346  8.81392475328947 3.27257361778846  C 8.33067434210526 3.62571814903846  7.43938322368421 3.81951697716346  6.30225740131579 3.81951697716346  C 6.15239925986842 3.81951697716346  6.00141858552631 3.81582557091346  5.85324424342105 3.80905799278846  C 5.97840666118421 3.65340369591346  6.25342722039474 3.50328650841346  6.58401315789473 3.41284705528846  C 6.62330180921053 3.40238807091346  6.65080386513158 3.39685096153846  6.65417146381579 3.39623572716346  C 6.83938939144736 3.35624549278846  6.9684806743421 3.17167518028846  6.95501027960526 2.96557166466346  C 6.94153988486842 2.75946814903846  6.79055921052632 2.59643103966346  6.60253495065789 2.58535682091346  C 6.51497738486842 2.58043494591346  6.42854235197368 2.57797400841346  6.34547491776316 2.57797400841346  C 5.02032483552631 2.57797400841346  4.45456825657895 3.24857947716346  4.27327919407895 3.79921424278846  C 4.21434621710526 3.80536658653846  4.15541324013158 3.81274939903846  4.09760279605263 3.82136268028846  C 3.99938116776316 3.83428260216346  3.90115953947369 3.85027869591346  3.79844777960526 3.87242713341346  C 3.79395764802631 3.87304236778846  3.78890625 3.87427283653846  3.78441611842105 3.87550330528846  C 3.77936472039473 3.87673377403846  3.77431332236842 3.87796424278846  3.76813939144737 3.87919471153846  C 1.0269140625 4.47658728966346  0.444880756578945 7.39218299278846  0.421307565789475 7.51584510216346  C 0.406153371710528 7.59767127403846  0.413449835526318 7.68257361778846  0.443196957236842 7.75886268028846  C 0.668264802631576 8.33964393028846  1.16610814144737 8.65956580528846  1.84467927631579 8.65956580528846  C 2.29537623355263 8.65956580528846  2.68601768092105 8.51806189903846  2.70229440789474 8.51252478966346  C 2.87965460526316 8.44730994591346  2.98629523026315 8.24797400841346  2.95093544407895 8.04679236778846  C 2.83306949013157 7.37434119591346  2.90884046052631 6.82555213341346  3.17656455592105 6.41580603966346  C 3.59639185855263 5.77411658653846  4.4410978618421 5.52494666466346  5.07589021381578 5.42897010216346  C 5.36213610197368 5.38590369591346  5.66634251644736 5.36437049278846  5.97840666118421 5.36437049278846  C 6.13836759868421 5.36437049278846  6.26858141447368 5.37052283653846  6.35501644736842 5.37605994591346  C 7.01225945723685 5.98083533653846  7.66388980263158 6.11126502403846  8.10336143092105 6.11126502403846  C 8.22796258223685 6.11126502403846  8.35368626644737 6.10080603966346  8.47716488486842 6.08111853966346  C 8.7796875 6.03128455528846  8.98679481907895 5.93530799278846  9.04460526315789 5.90577674278846  C 9.17650287828947 5.84240760216346  9.26855057565789 5.69844275841346  9.26855057565789 5.53048377403846  C 9.26855057565789 5.30469275841346  9.1012931743421 5.12073768028846  8.8953083881579 5.12073768028846  C 8.89418585526316 5.12073768028846  8.89362458881579 5.12073768028846  8.89250205592106 5.12073768028846  C 8.88969572368422 5.12073768028846  8.88745065789474 5.12073768028846  8.88576685855264 5.12073768028846  C 8.86949013157895 5.12135291466346  8.85377467105263 5.12135291466346  8.83805921052632 5.12135291466346  C 8.758359375 5.12135291466346  8.68595600328947 5.11704627403846  8.62084909539474 5.10966346153845  C 9.23599712171053 4.95647010216346  9.74618832236842 4.69130408653845  10.1435649671053 4.31601111778846  C 10.1890275493421 4.27355994591346  10.2305612664474 4.23049353966346  10.2647985197368 4.19419471153846  C 10.2659210526316 4.19296424278846  10.2670435855263 4.19173377403845  10.268166118421 4.19050330528845  C 10.5611472039474 3.87488807091346  10.7115666118421 3.56296424278846  10.7862150493421 3.35870643028846  C 11.2453310032895 3.13906775841346  11.5703042763158 2.80561072716346  11.7543996710526 2.36756385216346  C 12.0922820723684 1.56283728966346  11.8021073190789 0.710737680288456  11.7897594572368 0.675054086538456  C 11.7336328125 0.514477914663455  11.5933162006579 0.411733774038457  11.4406517269737 0.411733774038457  C 11.4176398026316 0.411733774038457  11.3946278782895 0.414194711538456  11.3710546875 0.419116586538455  C 11.1931332236842 0.456030649038457  11.0651644736842 0.627065805288457  11.0668482730263 0.825786508413457  C 11.0702158717105 1.23368689903846  11.0006188322368 1.53699744591346  10.8704050164474 1.68096228966346  C 10.8356064967105 1.71972205528846  10.7968791118421 1.74494666466346  10.7592742598684 1.76032752403846  C 10.0795805921053 0.366206430288461  8.65789268092106 0.149643930288462  7.84125 0.149643930288462  Z " fill-rule="nonzero" fill="#33100b" stroke="none" transform="matrix(1 0 0 1 281 148 )" />
  </g>
</svg>