<?xml version="1.0" encoding="utf-8"?>
<svg version="1.1" xmlns:xlink="http://www.w3.org/1999/xlink" width="2px" height="2px" xmlns="http://www.w3.org/2000/svg">
  <g transform="matrix(1 0 0 1 -290 -149 )">
    <path d="M 0.313281249999998 0.388619791666663  C 0.22974609375 0.35248046875  0.143248697916671 0.324635416666666  0.056158854166668 0.298567708333332  C 0.23922526041667 0.30982421875  0.419329427083336 0.361367187500001  0.589954427083332 0.435423177083334  C 0.760579427083333 0.509479166666665  0.918170572916665 0.616712239583331  1.04969401041667 0.752975260416667  C 1.07990885416667 0.789114583333332  1.11427083333334 0.822291666666667  1.1415234375 0.861393229166666  L 1.2197265625 0.979882812499999  C 1.25823567708333 1.06578776041666  1.30681640625 1.14932291666666  1.32222005208333 1.24233723958333  C 1.35006510416667 1.33238932291666  1.35598958333334 1.42599609375  1.3619140625 1.51901041666667  C 1.36487630208333 1.61143229166667  1.34947265625 1.70385416666667  1.33940104166667 1.79390625  C 1.32518229166666 1.61143229166667  1.31511067708333 1.43014322916667  1.24934895833333 1.26485026041667  C 1.19069661458333 1.09955729166666  1.10182942708333 0.944928385416667  0.978007812499996 0.820514322916665  C 0.858333333333334 0.692545572916664  0.712591145833329 0.589459635416667  0.556777343749995 0.502962239583331  C 0.478574218749993 0.459121093749997  0.397408854166661 0.421204427083332  0.313281249999998 0.388619791666663  Z " fill-rule="nonzero" fill="#33100b" stroke="none" transform="matrix(1 0 0 1 290 149 )" />
  </g>
</svg>