<?xml version="1.0" encoding="utf-8"?>
<svg version="1.1" xmlns:xlink="http://www.w3.org/1999/xlink" width="4px" height="4px" xmlns="http://www.w3.org/2000/svg">
  <g transform="matrix(1 0 0 1 -281 -152 )">
    <path d="M 0.789947916666658 3.84236979166666  L 0.592662760416668 3.8364453125  C 0.634134114583337 3.41876953125  0.759140624999996 3.03486328125  0.938652343750003 2.67228515625  C 1.11934895833333 2.31207682291667  1.35218098958334 1.97793619791666  1.63833333333333 1.6965234375  C 1.70646484375 1.62365234375  1.78703776041667 1.56263020833334  1.86050130208333 1.49509114583334  L 1.97306640625 1.39615234375  L 2.09511067708333 1.30965494791667  C 2.17686848958333 1.25337239583334  2.25684895833333 1.19294270833334  2.34097656249999 1.13962239583334  L 2.60165364583332 0.994472656250004  L 2.73199218749999 0.922786458333339  L 2.86884765624999 0.864134114583339  L 3.14255859374999 0.747421875000003  C 3.32858723958332 0.679882812500004  3.51994791666666 0.627154947916672  3.70775390624999 0.566132812500003  C 3.52231770833332 0.634856770833338  3.33391927083333 0.695286458333337  3.15203776041666 0.769934895833337  L 2.88543619791666 0.897311197916669  L 2.75213541666666 0.960703125000002  L 2.62594401041666 1.03712890625  L 2.37474609374999 1.19057291666667  C 2.29417317708332 1.24685546875  2.21833984374999 1.3090625  2.14072916666665 1.36771484375  L 2.02460937499998 1.45717447916667  L 1.91796874999999 1.55848307291667  C 1.84865234374999 1.62779947916667  1.77281901041665 1.6894140625  1.70942708333332 1.7640625  C 1.44282552083332 2.04902994791667  1.23191406249999 2.38139322916667  1.07254557291665 2.73389973958334  C 0.91554687499999 3.08462890625  0.811276041666654 3.47090494791667  0.789947916666658 3.84236979166666  Z " fill-rule="nonzero" fill="#33100b" stroke="none" transform="matrix(1 0 0 1 281 152 )" />
  </g>
</svg>