<?xml version="1.0" encoding="utf-8"?>
<svg version="1.1" xmlns:xlink="http://www.w3.org/1999/xlink" width="7px" height="5px" xmlns="http://www.w3.org/2000/svg">
  <g transform="matrix(1 0 0 1 -284 -154 )">
    <path d="M 1.6921953125 1.62167271205357  C 1.1845859375 1.94032505580357  0.640274414062498 2.20184849330357  0.0642373046874958 2.32943638392857  C 0.611037109374995 2.11234654017857  1.113669921875 1.80385044642857  1.5746240234375 1.44965122767857  C 1.688462890625 1.35887974330357  1.80292382812499 1.26937779017857  1.91178613281249 1.17352818080357  C 1.9640400390625 1.12655552455357  2.02935742187499 1.07831333705357  2.0896982421875 1.03007114955357  C 2.1208017578125 1.00658482142857  2.15128320312499 0.981194196428569  2.1830087890625 0.958342633928567  L 2.28191796875 0.896770368303567  C 2.54567578124999 0.730461774553566  2.83742675781249 0.615569196428566  3.1347763671875 0.543840680803567  C 3.731341796875 0.393401227678566  4.348435546875 0.393401227678566  4.9468671875 0.472112165178566  C 5.547787109375 0.546379743303567  6.130044921875 0.726018415178566  6.6892861328125 0.956438337053567  L 6.6917744140625 0.957707868303565  C 6.781974609375 0.995159040178564  6.83236230468749 1.08973911830356  6.81992089843749 1.18368443080357  C 6.80499121093749 1.29159458705356  6.7850849609375 1.36840122767857  6.76020214843749 1.45536411830356  C 6.73905175781249 1.54169224330357  6.70297167968749 1.61913364955356  6.67435644531249 1.70101841517856  C 6.60655078124999 1.85907505580357  6.53376855468749 2.01395786830357  6.44170214843749 2.15678013392857  C 6.36021093749999 2.30658482142857  6.24948242187499 2.43417271205356  6.15057324218749 2.57064732142857  C 6.03922265624999 2.69506138392856  5.92662792968749 2.82011021205356  5.806568359375 2.93500279017856  C 5.31388867187499 3.38251255580357  4.7334970703125 3.71068638392857  4.124490234375 3.91761997767856  L 3.898056640625 4.00204380580356  C 3.8215419921875 4.02489536830356  3.7431611328125 4.04330357142856  3.6660244140625 4.06488560267857  L 3.20258203124999 4.18612583705357  C 3.04644238281249 4.21659458705357  2.8884365234375 4.23690708705357  2.73167480468749 4.26293247767856  C 2.57429101562499 4.28451450892857  2.41939550781249 4.31942661830356  2.26138964843749 4.32894810267857  L 1.78799414062499 4.35814732142856  L 1.5522294921875 4.37211216517857  C 1.47384863281249 4.37782505580356  1.39484570312499 4.38226841517857  1.31646484375 4.37782505580356  C 1.001697265625 4.37147739955356  0.686929687499998 4.36132114955357  0.374650390624998 4.34862583705357  C 0.687551757812496 4.31307896205357  0.998586914062496 4.28070591517857  1.3083779296875 4.25150669642857  C 1.6181689453125 4.21405552455357  1.9242275390625 4.15438755580357  2.230908203125 4.10741489955357  C 2.3845595703125 4.08583286830357  2.533234375 4.03949497767857  2.6843974609375 4.00648716517857  C 2.83431640625 3.96903599330357  2.9861015625 3.93729771205357  3.134154296875 3.89603794642857  L 3.5727138671875 3.75258091517857  C 3.64549609374999 3.72845982142857  3.718900390625 3.70624302455357  3.79106054687499 3.68021763392857  L 4.0006982421875 3.58817661830357  C 4.139419921875 3.52406529017857  4.28311816406249 3.47137974330358  4.41624121093749 3.39838169642857  L 4.81374414062499 3.17684849330357  C 4.94002441406249 3.09369419642857  5.060083984375 3.00292271205357  5.18387597656249 2.91722935267857  C 5.3045576171875 2.82772739955357  5.4090654296875 2.71918247767857  5.5235263671875 2.62333286830358  C 5.629900390625 2.51923130580358  5.72818749999999 2.40624302455357  5.826474609375 2.29515904017857  C 5.911076171875 2.17391880580357  6.00936328125 2.06029575892857  6.077791015625 1.92889927455357  C 6.15679394531249 1.80385044642857  6.2177568359375 1.66928013392857  6.27436523437499 1.53470982142857  C 6.29738183593749 1.46615513392857  6.32786328124999 1.39823521205358  6.34403710937499 1.32904575892857  C 6.36518749999999 1.26303013392857  6.38260546874999 1.18558872767857  6.39069238281249 1.13480747767857  L 6.52132714843749 1.36141880580357  C 5.9987880859375 1.13607700892857  5.44949999999999 0.970403180803573  4.8890146484375 0.880266462053575  C 4.33039550781249 0.786321149553574  3.75684667968749 0.772356305803574  3.206314453125 0.873284040178573  C 2.93011523437499 0.921526227678573  2.66511328125 1.01483677455358  2.4187734375 1.14115513392858  L 2.3260849609375 1.18876255580358  L 2.2389951171875 1.24589146205357  C 2.1805205078125 1.28524693080357  2.123912109375 1.31952427455358  2.0623271484375 1.36649693080357  C 1.94164550781249 1.45599888392858  1.8184755859375 1.54169224330357  1.6921953125 1.62167271205357  Z " fill-rule="nonzero" fill="#33100b" stroke="none" transform="matrix(1 0 0 1 284 154 )" />
  </g>
</svg>