<?xml version="1.0" encoding="utf-8"?>
<svg version="1.1" xmlns:xlink="http://www.w3.org/1999/xlink" width="5px" height="2px" xmlns="http://www.w3.org/2000/svg">
  <g transform="matrix(1 0 0 1 -285 -155 )">
    <path d="M 3.23412388392857 0.0735872395833278  C 3.65687779017857 0.0285611979166684  4.08217075892857 0.041595052083333  4.49095982142857 0.129869791666664  C 4.07518833705357 0.163639322916666  3.66893833705357 0.215774739583329  3.27728794642857 0.300494791666665  C 3.08368443080357 0.349075520833329  2.88944614955357 0.393509114583329  2.71107700892857 0.468157552083331  C 2.52826450892857 0.533326822916663  2.35941685267858 0.621601562499995  2.21088169642857 0.727649739583332  L 2.10170200892857 0.809407552083329  C 2.06488560267857 0.836660156249996  2.03822544642857 0.871614583333331  2.00585239955357 0.902421874999997  C 1.94618443080357 0.958704427083328  1.87382114955357 1.04697916666666  1.80336216517857 1.12103515625  C 1.65228794642857 1.26677734374999  1.49042271205357 1.40422526041666  1.30634068080356 1.51264322916667  C 0.941985212053567 1.72888671875  0.514787946428566 1.86100260416666  0.0939383370535651 1.83908203125  C 0.496379743303567 1.73718098958333  0.854387555803565 1.55470703124999  1.16224888392857 1.32483723958333  C 1.31268833705357 1.20575520833333  1.45360630580357 1.07837890624999  1.57802036830357 0.936783854166663  C 1.63895786830357 0.86272786458333  1.69291294642856 0.797558593749992  1.77289341517857 0.712246093749992  C 1.81161411830357 0.673144531249993  1.84589146205356 0.628710937499993  1.88905552455357 0.594941406249992  L 2.01854771205357 0.492447916666658  C 2.38226841517857 0.238880208333327  2.81390904017856 0.122760416666656  3.23412388392857 0.0735872395833278  Z " fill-rule="nonzero" fill="#33100b" stroke="none" transform="matrix(1 0 0 1 285 155 )" />
  </g>
</svg>