<?xml version="1.0" encoding="utf-8"?>
<svg version="1.1" xmlns:xlink="http://www.w3.org/1999/xlink" width="40px" height="37px" xmlns="http://www.w3.org/2000/svg">
  <g transform="matrix(1 0 0 1 -243 -85 )">
    <path d="M 38.6542865278385 19.9230769230769  C 38.6542865278385 8.93136960600375  30.0164395976451 0.019437148217636  19.3626240538267 0.019437148217636  C 8.70896551724138 0.019437148217636  0.0712755942809083 8.93136960600375  0.0712755942809083 19.9230769230769  C 0.0712755942809083 26.6931976364728  3.34885339074853 32.6730362856285  8.35541352531539 36.2687467166979  C 9.33270536719933 32.7569399624765  11.8052144659378 30.1130018761726  15.1691393453322 28.9083846153846  C 15.2943895514816 28.8635761294665  15.4203698457789 28.8209702099126  15.5470254990749 28.7805853658537  C 15.5829772918419 28.7690850661163  15.6187720773759 28.7569368484803  15.6550378469302 28.7455984990619  C 15.9841396512042 28.6439636961403  16.3172052115037 28.5565285923476  16.6533669624895 28.483520937636  C 16.6987384356602 28.473640374334  16.7447378624054 28.464893657636  16.7904233123633 28.4554990619137  C 17.0938385086347 28.3927221053313  17.3994024278264 28.3415565683623  17.7064872316232 28.3021075801876  C 17.7584524810765 28.2953045783114  17.8101037160639 28.2878536585366  17.8622259727502 28.2816985745591  C 18.0386999020109 28.2604935992482  18.2155627545621 28.2428887362397  18.3927109490328 28.228894295985  L 19.0914942654331 28.228894295985  C 19.1582169890664 28.2335915938462  19.2293355761144 28.2335915938462  19.3006111703953 28.228894295985  L 19.362938030614 28.228894295985  C 14.4469638351556 28.228894295985  10.4457975764508 24.1987636022514  10.2877039529016 19.1664859287054  C 10.2822091518923 19.1629224385741  10.2767143132044 19.1600068663415  10.2712195121951 19.1564434150844  C 9.95864313002523 13.1268780487805  15.2368040370059 9.4202138836773  19.0651191603028 9.49472296480301  C 19.1641828117746 9.49132146386492  19.2630894560135 9.48694810551595  19.362938030614 9.48694810551595  C 19.4577628259041 9.48694810551595  19.5514886459209 9.49132146386492  19.6453714731707 9.49423703609757  C 20.7528119118587 9.47479988787993  21.9790972931876 9.76959662288931  23.1574993116905 10.3441263419137  C 23.9403800534414 10.7164600105101  24.6679142281066 11.2018565506857  25.3182169890664 11.7857148217636  C 27.2250742795627 13.4602251407129  28.6100813133726 15.9864064911069  28.445707890328 19.1562814258912  L 28.4383291155593 19.1608167734334  C 28.2830613961312 24.1958480300188  24.280953169386 28.228732345666  19.362938030614 28.228732345666  L 20.3419568390244 28.228732345666  C 20.5188445174389 28.2427188626629  20.6954459192124 28.2603237380228  20.8716568544996 28.2815365853659  C 20.9244070647603 28.2876916693433  20.9763723142136 28.2951425891182  21.0288085100084 28.3021075801876  C 21.2097398262407 28.3251195521911  21.3901238575698 28.352501045983  21.5698121796468 28.3842295314071  C 21.6941519609756 28.4059343339587  21.8173927670311 28.4295828902064  21.9398486122792 28.454851144015  C 21.9871040215307 28.4645697181238  22.0345164003364 28.473478424015  22.0813008255677 28.4838449160225  C 22.4159708983706 28.5565899925011  22.7475678039379 28.643646269344  23.0752340777124 28.7447886308443  C 23.1141687441547 28.7569368484803  23.1526324642557 28.769894934334  23.1915671306981 28.7823670914822  C 23.3152789207738 28.8220512561351  23.4378917732548 28.8633551960976  23.5594056504626 28.9069268292683  C 26.9222315545837 30.1105722326454  29.3956826213625 32.7537004507317  30.3759573746005 36.2646972978612  C 35.3792206210261 32.6686628884053  38.6542864901598 26.6907679540713  38.6542865278385 19.9230769230769  Z " fill-rule="nonzero" fill="#f08e83" stroke="none" transform="matrix(1 0 0 1 243 85 )" />
  </g>
</svg>