<?xml version="1.0" encoding="utf-8"?>
<svg version="1.1" xmlns:xlink="http://www.w3.org/1999/xlink" width="2px" height="2px" xmlns="http://www.w3.org/2000/svg">
  <g transform="matrix(1 0 0 1 -274 -158 )">
    <path d="M 0.0695442708333426 0.470898437499997  C 0.0742838541666657 0.46556640625  0.077246093750001 0.460234374999999  0.0802083333333314 0.456679687499999  C 0.159596354166666 0.350039062499998  0.243723958333334 0.276575520833333  0.349772135416667 0.210813802083337  C 0.451673177083336 0.144459635416666  0.583196614583334 0.111282552083334  0.707610677083333 0.114837239583333  C 0.771002604166668 0.120169270833334  0.832617187500001 0.126686197916669  0.888307291666668 0.15156901041667  C 0.916152343750004 0.162233072916668  0.945774739583337 0.171712239583333  0.971842447916671 0.184153645833334  L 1.04471354166667 0.230957031250005  L 1.11580729166667 0.277760416666671  L 1.17623697916667 0.334635416666671  C 1.21474609375 0.37373697916667  1.25977213541667 0.407506510416672  1.28939453125001 0.451940104166672  C 1.35574869791667 0.536067708333339  1.42269531250001 0.618417968750004  1.4724609375 0.710839843750004  L 1.55303385416667 0.844733072916673  C 1.57791666666667 0.890351562500001  1.59865234375 0.937747395833336  1.6217578125 0.983958333333338  C 1.71773437500001 1.16761718750001  1.78527343750001 1.36253255208334  1.86229166666667 1.55211588541667  C 1.76335286458334 1.37201171875  1.67330078125001 1.18835286458334  1.55718098958334 1.02069010416667  C 1.5293359375 0.978033854166668  1.50386067708334 0.934785156250001  1.47423828125001 0.893313802083336  L 1.38122395833334 0.774231770833339  C 1.32316406250001 0.691289062500005  1.25088541666668 0.623750000000001  1.18156901041668 0.553841145833336  C 1.03938151041667 0.423502604166671  0.867571614583341 0.322786458333335  0.708203125000007 0.336412760416669  C 0.553574218750005 0.344707031250001  0.409016927083338 0.476822916666668  0.330221354166672 0.611901041666665  L 0.325481770833344 0.620195312500002  C 0.284010416666675 0.6912890625  0.193365885416673 0.714986979166667  0.122864583333339 0.673515624999998  C 0.0517708333333407 0.632044270833333  0.0280729166666731 0.541399739583331  0.0695442708333426 0.470898437499997  Z " fill-rule="nonzero" fill="#33100b" stroke="none" transform="matrix(1 0 0 1 274 158 )" />
  </g>
</svg>