<?xml version="1.0" encoding="utf-8"?>
<svg version="1.1" xmlns:xlink="http://www.w3.org/1999/xlink" width="3px" height="2px" xmlns="http://www.w3.org/2000/svg">
  <g transform="matrix(1 0 0 1 -278 -158 )">
    <path d="M 1.024142578125 1.03076171875  C 0.843386718749998 1.19427734375  0.676494140625002 1.37852864583333  0.526664062500002 1.5799609375  C 0.658898437500002 1.36371744791667  0.810328124999999 1.16110026041666  0.979886718750002 0.975664062500002  C 1.15051171875 0.79259765625  1.340865234375 0.623750000000001  1.57067578125 0.515924479166666  C 1.685314453125 0.463196614583334  1.81168359375 0.428242187499999  1.943384765625 0.430019531250001  C 2.074552734375 0.431204427083334  2.20838671875 0.473860677083332  2.323025390625 0.546139322916668  C 2.55496875 0.693658854166666  2.71173046875 0.931822916666666  2.833833984375 1.16939453125  C 2.870625 1.24048828125  2.84823046875 1.3311328125  2.78424609375 1.37141927083333  C 2.72026171875 1.41229817708333  2.638681640625 1.38741536458333  2.602423828125 1.31632161458333  C 2.600291015625 1.31217447916667  2.59869140625 1.30802734375  2.59655859375 1.30388020833333  L 2.596025390625 1.30210286458334  C 2.5059140625 1.07934244791667  2.38754296875 0.866653645833333  2.218517578125 0.735130208333336  C 2.05269140625 0.598274739583336  1.828212890625 0.578131510416673  1.615998046875 0.655149739583337  C 1.40325 0.72920572916667  1.205431640625 0.870208333333333  1.024142578125 1.03076171875  Z " fill-rule="nonzero" fill="#33100b" stroke="none" transform="matrix(1 0 0 1 278 158 )" />
  </g>
</svg>