<?xml version="1.0" encoding="utf-8"?>
<svg version="1.1" xmlns:xlink="http://www.w3.org/1999/xlink" width="19px" height="20px" xmlns="http://www.w3.org/2000/svg">
  <g transform="matrix(1 0 0 1 -253 -94 )">
    <path d="M 9.55159350829269 19.7662950188153  C 14.3904146341463 19.7662950188153  18.3282032643902 15.7178397212543  18.4811300936585 10.663368189547  C 16.1175609756098 12.2162137310105  9.91969921170732 9.97019745783972  8.07808941853659 6.54662020905923  C 6.36067478439025 9.71783972125435  3.45058536585366 12.5266202090592  0.622211369756099 10.6688966188153  C 0.77776420292683 15.7206039358885  4.71447152 19.7662949797909  9.55159350829269 19.7662950188153  Z M 15.4111625892683 3.25979094076655  C 14.7713010135552 2.67369253281107  14.0554613566781 2.18642323901634  13.2851707317073 1.81263648222996  C 14.051044856659 2.19481953067517  14.7658386885028 2.68137693540294  15.4111625892683 3.25979094076655  Z M 9.53861789853659 0.970685262717769  C 9.63408131317074 0.96369337979094  9.73170731707317 0.96109177979094  9.82948780487805 0.959465750522648  C 9.73695936195122 0.956538921254355  9.64489429658537 0.952148677351916  9.55159350829269 0.952148677351916  C 9.45334960585366 0.952148677351916  9.35603253268293 0.956538921254355  9.25856097560976 0.959953555400697  C 9.35247966243903 0.961904774912892  9.44639838634147 0.964018609059232  9.53861789853659 0.970685262717769  Z " fill-rule="nonzero" fill="#fce9ea" stroke="none" transform="matrix(1 0 0 1 253 94 )" />
  </g>
</svg>