<?xml version="1.0" encoding="utf-8"?>
<svg version="1.1" xmlns:xlink="http://www.w3.org/1999/xlink" width="2px" height="2px" xmlns="http://www.w3.org/2000/svg">
  <g transform="matrix(1 0 0 1 -278 -164 )">
    <path d="M 1.35967447916667 1.45941406249999  C 1.32827473958333 1.46415364583333  1.29095052083333 1.46770833333333  1.25184895833334 1.46770833333333  C 1.19615885416667 1.46770833333333  1.14165364583333 1.46059895833333  1.08951822916667 1.44578776041666  C 0.846022135416665 1.37647135416667  0.671842447916665 1.1608203125  0.655846354166665 0.908437499999996  C 0.655253906250001 0.904882812500001  0.654661458333337 0.887109374999994  0.654661458333337 0.871705729166663  C 0.654661458333337 0.713522135416663  0.716276041666669 0.563632812499994  0.828841145833332 0.449882812499993  C 0.942591145833338 0.336132812499997  1.09248046875 0.273925781249995  1.25244140625 0.273925781249995  C 1.41180989583333 0.273925781249995  1.56169921875 0.336132812499992  1.67485677083333 0.449290364583329  C 1.78801432291667 0.564225260416668  1.85022135416666 0.714114583333332  1.85022135416666 0.872298177083328  C 1.85022135416666 1.02870442708333  1.78623697916666 1.18214843749999  1.67485677083333 1.29412109374999  C 1.58658203125 1.3812109375  1.4781640625 1.43808593749999  1.35967447916667 1.45941406249999  Z " fill-rule="nonzero" fill="#8bb029" stroke="none" transform="matrix(1 0 0 1 278 164 )" />
  </g>
</svg>