<?xml version="1.0" encoding="utf-8"?>
<svg version="1.1" xmlns:xlink="http://www.w3.org/1999/xlink" width="3px" height="2px" xmlns="http://www.w3.org/2000/svg">
  <g transform="matrix(1 0 0 1 -278 -164 )">
    <path d="M 1.0897412109375 0.587330729166671  C 1.17172119140625 0.515052083333335  1.28369384765625 0.470618489583335  1.408330078125 0.470618489583335  C 1.5322998046875 0.470618489583335  1.6442724609375 0.515052083333335  1.7269189453125 0.587923177083335  C 1.808232421875 0.66079427083334  1.85888671875 0.760325520833334  1.85888671875 0.871113281250004  C 1.85888671875 0.980716145833336  1.80756591796875 1.08083984375  1.7269189453125 1.15311848958333  C 1.66226806640625 1.20940104166667  1.58162109375 1.24909505208333  1.4896435546875 1.26331380208334  C 1.4629833984375 1.26805338541667  1.4363232421875 1.27042317708333  1.408330078125 1.27042317708333  C 1.36634033203125 1.27042317708333  1.32501708984375 1.26568359375  1.28635986328125 1.25561197916667  C 1.1070703125 1.20999348958334  0.971103515624998 1.06721354166667  0.959106445312495 0.895403645833336  C 0.957773437499995 0.887701822916668  0.957773437499995 0.878815104166667  0.957773437499995 0.870520833333335  C 0.957773437499995 0.760325520833334  1.00909423828124 0.66079427083334  1.0897412109375 0.587330729166671  Z M 1.408330078125 0.076640624999996  C 1.1697216796875 0.076640624999996  0.94510986328125 0.15958333333333  0.77581787109375 0.309472656249994  C 0.60652587890625 0.462324218749998  0.513881835937502 0.66138671875  0.513881835937502 0.871705729166663  C 0.513881835937502 0.884147135416664  0.513881835937502 0.904882812499991  0.516547851562501 0.930358072916661  C 0.544541015625002 1.26153645833333  0.803811035156251 1.5447265625  1.1643896484375 1.63537109375  C 1.24237060546876 1.65492187499999  1.3243505859375 1.66558593749999  1.40766357421875 1.66558593749999  C 1.4656494140625 1.66558593749999  1.51963623046875 1.66084635416666  1.57295654296875 1.6513671875  C 1.7482470703125 1.62233723958333  1.9082080078125 1.54768880208333  2.03684326171875 1.43512369791666  C 2.20613525390625 1.28464192708333  2.3014453125 1.08024739583333  2.3014453125 0.871705729166663  C 2.3014453125 0.66138671875  2.2094677734375 0.462916666666662  2.0415087890625 0.311249999999992  C 1.8708837890625 0.158990885416661  1.6469384765625 0.076640624999996  1.408330078125 0.076640624999996  Z " fill-rule="nonzero" fill="#33100b" stroke="none" transform="matrix(1 0 0 1 278 164 )" />
  </g>
</svg>