<?xml version="1.0" encoding="utf-8"?>
<svg version="1.1" xmlns:xlink="http://www.w3.org/1999/xlink" width="4px" height="4px" xmlns="http://www.w3.org/2000/svg">
  <g transform="matrix(1 0 0 1 -276 -164 )">
    <path d="M 2.69198567708333 3.88608072916667  C 2.66710286458333 3.89674479166667  2.64222005208333 3.901484375  2.61733723958333 3.901484375  C 2.57645833333333 3.901484375  2.53557942708333 3.88845052083333  2.50121744791667 3.86356770833333  L 0.666998697916668 2.52641276041667  C 0.611901041666665 2.48671875  0.581686197916667 2.42095703125  0.58642578125 2.35282552083333  C 0.591165364583333 2.28469401041667  0.630859375 2.22426432291667  0.690696614583331 2.19227213541667  C 0.691881510416664 2.1916796875  0.838808593749998 2.1134765625  1.0183203125 1.98313802083333  C 1.1747265625 1.87057291666667  1.39037760416666 1.69283854166667  1.53138020833333 1.48607421875  C 1.74466145833334 1.17444661458334  2.10072265625 0.653092447916672  2.61970703125 0.653092447916672  C 2.69020833333333 0.653092447916672  2.76189453125 0.662571614583337  2.83239583333333 0.682122395833341  C 2.85846354166667 0.68923177083334  2.8880859375 0.698710937500005  2.91830078125 0.709375000000009  C 2.97991536458333 0.73366536458334  3.03501302083333 0.760917968750007  3.09248046875 0.79409505208334  C 3.119140625 0.810091145833335  3.14224609374999 0.826087239583335  3.16594401041667 0.842083333333335  C 3.30220703125 0.936875000000005  3.40944010416667 1.04055338541667  3.48586588541666 1.15015625  C 3.73943359374999 1.52102864583334  3.65530598958333 1.96299479166667  3.25421875 2.36348958333334  C 3.16712890624999 2.45057942708334  3.02197916666666 2.77464843750001  2.877421875 3.42278645833334  C 2.83595052083333 3.60585286458334  2.81225260416666 3.73500651041667  2.81225260416666 3.73737630208333  C 2.80040364583333 3.80432291666667  2.75478515624999 3.86060546875  2.69198567708333 3.88608072916667  Z " fill-rule="nonzero" fill="#8bb029" stroke="none" transform="matrix(1 0 0 1 276 164 )" />
  </g>
</svg>