<?xml version="1.0" encoding="utf-8"?>
<svg version="1.1" xmlns:xlink="http://www.w3.org/1999/xlink" width="24px" height="13px" xmlns="http://www.w3.org/2000/svg">
  <g transform="matrix(1 0 0 1 -252 -112 )">
    <path d="M 8.714743197934 1.43814994168022  C 8.66798279621234 1.44768563685637  8.62090103001435 1.45672806764227  8.57446199276901 1.46659260574525  C 8.62090103001435 1.45656368563686  8.66798279621234 1.44768563685637  8.714743197934 1.43814994168022  Z M 13.0526944045911 1.28261970601626  C 12.9990243773888 1.27555013550135  12.9458364547489 1.2679873795122  12.8918450630703 1.26173983739838  C 12.9458364547489 1.2679873400542  12.9990244159541 1.27555013550135  13.0526944045911 1.28261970601626  Z M 7.55264274180775 1.73260522623307  C 7.5155236600287 1.74411382113821  7.47904734576757 1.75644444444445  7.44208896550933 1.76811742135501  C 7.47888668281205 1.75644444444445  7.51552369859397 1.74411382113821  7.55264274180775 1.73260522623307  Z M 14.1301119081779 1.4670858306775  C 14.0822266729412 1.45656368563686  14.0336987087518 1.44735683338753  13.9853314075179 1.43765671674797  C 14.033538007231 1.44752121539295  14.0822266729412 1.45672806764227  14.1301119081779 1.4670858306775  Z M 15.2665021649354 1.77009032108401  C 15.2268120516499 1.75743089430895  15.187443341406 1.74427820314363  15.1474318636442 1.73194761929539  C 15.1872826398852 1.74427824260162  15.2266513886944 1.75743089430895  15.2665021649354 1.77009032108401  Z M 22.6197761836442 9.36476782785909  C 21.6165968436155 5.80105327089431  19.0849469282066 3.11807406092141  15.6429957086944 1.89652032520326  L 15.7254289942037 1.92644262460704  C 15.6204214743102 2.23128181588191  15.4850523091225 2.5242640901647  15.3214576886083 2.80076604747968  C 15.9826915351506 3.84262152585366  15.8167001691822 8.38555195533875  14.8230014475753 7.66758083598916  L 13.0830645624103 6.41857092552845  L 11.3476269727403 5.16956097560975  L 11.4613945480631 5.08752121539295  C 11.4234720358106 5.08850766525745  11.3857101865136 5.09048056498645  11.3476269727403 5.09048056498645  C 11.3079368594548 5.09048056498645  11.2687288507317 5.08834324379404  11.229199438967 5.08735683338753  L 11.3429670142898 5.16956097560976  L 9.6075294246198 6.41857092552846  L 7.86759253945481 7.66758083598916  C 6.86826972740316 8.38686720867209  6.70276038886658 3.82716709203253  7.370743197934 2.79566937669377  C 7.20888457812529 2.52129732517782  7.07476699592261 2.2307675673342  6.97046771879484 1.92857994579947  C 6.99874891110474 1.91822222222223  7.02686944045911 1.90802892010841  7.05515063276901 1.89800000000001  C 3.61207457974175 3.12086902850949  1.08138879632712 5.80450588487805  0.0811018522812085 9.36887804878049  C 3.27639598278336 11.6447823076423  7.15927688814922 12.98027100271  11.3474662712195 12.98027100271  C 15.5382266857963 12.98027100271  19.4231965566715 11.6431382113821  22.6197761836442 9.36476782785909  Z M 9.81176470588235 1.26173983739838  C 9.75825538020086 1.2679873400542  9.70554948499283 1.27555013550135  9.65236156235294 1.28245528455285  C 9.7055495235581 1.27555013550135  9.75841608172167 1.2679873400542  9.81176470588235 1.26173983739838  Z " fill-rule="nonzero" fill="#cfe07d" stroke="none" transform="matrix(1 0 0 1 252 112 )" />
  </g>
</svg>