<?xml version="1.0" encoding="utf-8"?>
<svg version="1.1" xmlns:xlink="http://www.w3.org/1999/xlink" width="4px" height="5px" xmlns="http://www.w3.org/2000/svg">
  <g transform="matrix(1 0 0 1 -276 -164 )">
    <path d="M 1.69548828125 1.71282784598214  C 1.924765625 1.35101143973214  2.22158203125 0.912388392857143  2.62029947916667 0.912388392857143  C 2.67243489583333 0.912388392857143  2.72575520833333 0.920005580357142  2.7814453125 0.935874720982142  C 2.80395833333333 0.942222377232146  2.82765625 0.950474330357142  2.8525390625 0.959995814732143  C 2.89815755208333 0.97903878348214  2.94436848958334 1.00379464285715  2.99235677083333 1.03426339285714  C 3.01309244791667 1.04822823660714  3.033828125 1.06282784598214  3.05574869791666 1.07869698660714  C 3.176015625 1.16883370535714  3.26369791666667 1.26150948660714  3.32412760416667 1.35482003348215  C 3.57354817708333 1.74456612723214  3.34486328125 2.13875558035714  3.11499348958333 2.38504464285715  C 2.92600260416667 2.58753487723215  2.76900390625 3.22230050223215  2.68487630208333 3.62347237723214  C 2.64162760416667 3.82596261160715  2.6179296875 3.97005440848215  2.6179296875 3.97005440848215  L 0.783710937500004 2.53738839285714  C 0.783710937500004 2.53738839285714  0.940117187500003 2.44852120535715  1.13503255208334 2.29744698660714  C 1.32224609375001 2.15272042410715  1.54441406250001 1.94959542410714  1.69548828125 1.71282784598214  Z M 2.62029947916667 0.489634486607144  C 1.99704427083333 0.489634486607144  1.60425130208333 1.10599190848214  1.36904947916667 1.47415597098214  C 1.27011067708333 1.62967354910714  1.10896484375 1.79534737723214  0.90397786458333 1.95467354910715  C 0.736315104166664 2.08480050223215  0.600052083333329 2.16351143973214  0.5988671875 2.16414620535715  C 0.479192708333334 2.23270089285715  0.399804687499999 2.36219308035714  0.390325520833334 2.50755440848214  C 0.380846354166664 2.65291573660714  0.441276041666669 2.79319893973214  0.550878906250001 2.87889229910714  L 2.38509765625 4.31155831473215  C 2.45322916666666 4.36487862723215  2.53498697916666 4.39280831473215  2.61733723958333 4.39280831473215  C 2.66710286458333 4.39280831473215  2.71686848958333 4.38265206473215  2.76485677083333 4.36233956473214  C 2.89104817708333 4.30774972098215  2.98228515625 4.18714425223214  3.00598307291666 4.04432198660714  C 3.00657552083333 4.04305245535714  3.02908854166666 3.90721261160715  3.069375 3.71868722098214  C 3.21333984375 3.03123604910714  3.34486328124999 2.74178292410714  3.39462890625 2.68401925223215  C 3.86147786458333 2.18382393973215  3.95686197916667 1.59793526785714  3.64938151041666 1.11678292410715  C 3.55873697916667 0.97649972098214  3.4355078125 0.848277064732146  3.28147135416667 0.733384486607146  C 3.25125651041667 0.711802455357144  3.22578125 0.693394252232145  3.20030598958333 0.67625558035715  C 3.19793619791667 0.67498604910715  3.19556640625 0.673081752232153  3.19319661458333 0.671812220982143  C 3.12684244791667 0.629917689732145  3.06285807291667 0.596275111607143  2.99650390625 0.568345424107147  C 2.99294921875 0.567075892857147  2.98939453125 0.565806361607147  2.98583984375 0.56390206473214  C 2.94614583333333 0.548667689732143  2.91296875 0.537241908482144  2.88156901041667 0.528355189732146  C 2.79684895833333 0.502329799107142  2.70738932291667 0.489634486607144  2.62029947916667 0.489634486607144  Z " fill-rule="nonzero" fill="#33100b" stroke="none" transform="matrix(1 0 0 1 276 164 )" />
  </g>
</svg>