<?xml version="1.0" encoding="utf-8"?>
<svg version="1.1" xmlns:xlink="http://www.w3.org/1999/xlink" width="3px" height="3px" xmlns="http://www.w3.org/2000/svg">
  <g transform="matrix(1 0 0 1 -276 -166 )">
    <path d="M 2.48410546875 2.2951318359375  C 2.42971875 2.38777587890625  2.319345703125 2.49908203125  2.107130859375 2.49908203125  C 1.8261328125 2.49908203125  1.44329296875 2.301796875  1.083380859375 1.9712109375  C 0.827443359374999 1.73660156250001  0.614695312500001 1.46266845703125  0.484593750000001 1.20073242187501  C 0.269179687500001 0.767504882812506  0.349693359375003 0.510900878906252  0.416876953125001 0.396928710937512  C 0.471796874999998 0.303618164062511  0.581636718749998 0.192312011718755  0.793851562500002 0.192312011718755  C 1.074849609375 0.192312011718755  1.457689453125 0.389597167968761  1.8176015625 0.720849609375003  C 2.0735390625 0.955458984375003  2.286287109375 1.22939208984375  2.416388671875 1.491328125  C 2.631802734375 1.9245556640625  2.5512890625 2.18115966796875  2.48410546875 2.2951318359375  Z " fill-rule="nonzero" fill="#8bb029" stroke="none" transform="matrix(1 0 0 1 276 166 )" />
  </g>
</svg>