<?xml version="1.0" encoding="utf-8"?>
<svg version="1.1" xmlns:xlink="http://www.w3.org/1999/xlink" width="3px" height="3px" xmlns="http://www.w3.org/2000/svg">
  <g transform="matrix(1 0 0 1 -276 -166 )">
    <path d="M 0.559775390624999 1.022583984375  C 0.605097656249998 0.960199218749999  0.687210937500002 0.930873046875001  0.793851562500002 0.930873046875001  C 1.026861328125 0.930873046875001  1.375576171875 1.07110546875  1.712560546875 1.319044921875  C 2.20417382812501 1.6800234375  2.485705078125 2.13324609375  2.34120703125 2.33053125  C 2.295884765625 2.3923828125  2.21323828125001 2.4222421875  2.107130859375 2.4222421875  C 1.87412109375 2.4222421875  1.52540625 2.282009765625  1.188421875 2.03407031250001  C 0.696808593750001 1.67309179687501  0.415277343750003 1.21986914062501  0.559775390624999 1.022583984375  Z M 0.793851562500002 0.575759765624998  C 0.492058593749999 0.575759765624998  0.338496093749998 0.723990234374996  0.2734453125 0.811968749999993  C -0.0528749999999988 1.25666015625  0.392349609375 1.889572265625  0.977806640625 2.31986718749999  C 1.367578125 2.6056640625  1.789341796875 2.776822265625  2.107130859375 2.776822265625  C 2.408923828125 2.776822265625  2.562486328125 2.628591796875  2.627537109375 2.54061328125  C 2.721380859375 2.41264453125  2.83815234375 2.133779296875  2.567818359375 1.698685546875  C 2.425986328125 1.470474609375  2.1972421875 1.23319921875  1.92317578125 1.03271484375  C 1.533404296875 0.746917968749999  1.111107421875 0.575759765624998  0.793851562500002 0.575759765624998  Z " fill-rule="nonzero" fill="#33100b" stroke="none" transform="matrix(1 0 0 1 276 166 )" />
  </g>
</svg>