<?xml version="1.0" encoding="utf-8"?>
<svg version="1.1" xmlns:xlink="http://www.w3.org/1999/xlink" width="11px" height="6px" xmlns="http://www.w3.org/2000/svg">
  <g transform="matrix(1 0 0 1 -256 -112 )">
    <path d="M 1.28925811756097 2.00258535219512  C 1.39072108744819 2.31647472347422  1.52129653497525 2.61824273931268  1.6789532395122 2.90319512195122  C 1.8082256097561 2.69029269658536  1.96942477170732 2.6213170595122  2.16286383365854 2.7696829404878  L 3.85748982487805 4.06673169365854  L 5.4367723702439 5.28319510829269  C 5.4752723702439 5.28421949853658  5.51345937463415 5.28643902439025  5.55211585365854 5.28643902439025  C 5.58920731707317 5.28643902439025  5.62582926829268 5.28439024390244  5.66292073170732 5.28336585365853  L 7.24251627268293 4.06673169365854  L 8.93714226390244 2.7696829404878  C 9.13152031268293 2.6199512195122  9.29303250780488 2.69131708682927  9.42261787365854 2.90848781853659  C 9.58195221759684 2.62135117055565  9.71379614410779 2.31710034726198  9.81606909317074 2.00053657170731  L 9.73578250780488 1.96946341463415  C 9.61420820782781 1.92355015110794  9.49196261634503 1.87978021995677  9.36909348341464 1.83817071804878  C 9.33028048780488 1.82502439024391  9.29193696682927 1.81136582634146  9.25312397121951 1.7985609892683  C 8.92648165455057 1.69195147309233  8.59592098931319 1.60018945155516  8.2622967604878 1.52351220878048  C 8.21550205756098 1.51275611121952  8.16808132585366 1.5031951492683  8.12128658536585 1.49295120585366  C 7.94241024024669 1.45398625944094  7.76280890731311 1.41909251295321  7.58259958097561 1.38829269658537  C 7.45967873337952 1.36762606669734  7.33649788722976 1.34884372675074  7.21309348341463 1.33195123317073  C 7.16082111317073 1.32460975609756  7.10901829268292 1.31675612487806  7.05643292682926 1.31026829268293  C 6.88077265071491 1.2879088049429  6.70472312832188 1.26935231469869  6.52838822390244 1.25460976975609  L 5.4902967604878 1.25460976975609  C 5.41924390243902 1.25956097560976  5.34834756097561 1.25956097560976  5.28183334585365 1.25460976975609  L 4.58523372731707 1.2546097697561  C 4.40863912120346 1.26936065260939  4.23232896506717 1.2879171161733  4.05640651658536 1.31026829268293  C 4.00429066292683 1.31675608390244  3.95295731707317 1.32460975609756  3.90115445902438 1.33178048780488  C 3.72079355447231 1.35642863567872  3.54093023461445 1.38523180854335  3.36168494682926 1.41817071804878  C 3.23616867414634 1.44139024390244  3.11159146341463 1.46648780487805  2.98795323951219 1.49346340097561  C 2.94241055658536 1.50336585365854  2.89671135707317 1.51258536585366  2.8513251907317 1.52300001365854  C 2.51621394576887 1.59995401456854  2.18418921535048 1.69211532651607  1.85611585365853 1.79924388878049  C 1.81996341463414 1.81102437658537  1.78443700439024 1.824  1.74844104439024 1.83612193756097  C 1.59435102725621 1.88817270712623  1.44125773585208 1.94367222715561  1.28925811756097 2.00258535219512  Z " fill-rule="nonzero" fill="#fefefe" stroke="none" transform="matrix(1 0 0 1 256 112 )" />
  </g>
</svg>