<?xml version="1.0" encoding="utf-8"?>
<svg version="1.1" xmlns:xlink="http://www.w3.org/1999/xlink" width="9px" height="12px" xmlns="http://www.w3.org/2000/svg">
  <g transform="matrix(1 0 0 1 -281 -170 )">
    <path d="M 8.02339076450892 2.95965049342107  C 8.02281947544642 2.95908922697368  8.81862513950893 2.9551603618421  8.57354213169643 3.68985814144737  C 8.32731654575894 4.42343338815789  6.82311244419643 8.03574424342105  7.08362025669643 10.2881064967105  C 7.08362025669643 10.2881064967105  6.00902553013393 10.7887561677632  5.90048060825893 10.4794983552632  C 5.79136439732143 10.1691180098684  6.44663295200892 6.08422080592105  7.08362025669643 5.12557771381579  C 7.70461146763393 4.19106907894737  6.98078822544643 5.06832853618421  6.94194056919643 5.11435238486842  C 6.95736537388393 5.07113486842105  7.22758510044643 4.30051603618421  6.49233607700893 4.30051603618421  C 6.19812220982143 4.30051603618421  5.79593470982142 3.97834909539473  5.54228236607143 3.45861636513158  C 5.51771693638393 3.51025287828947  5.49086635044643 3.56245065789474  5.46058803013393 3.61745476973684  C 4.15976283482143 5.97140625  3.85469447544643 10.2824938322368  3.85469447544643 10.2824938322368  L 2.80123744419643 10.2824938322368  C 2.80123744419643 10.2824938322368  3.90611049107143 5.98880550986842  3.74672084263392 5.18170435855263  C 3.58790248325893 4.37460320723684  2.61613978794643 4.18938527960527  2.61613978794643 4.18938527960527  L 2.61613978794643 4.18826274671053  C 2.22080775669643 4.36562294407895  1.79348353794643 4.51323601973685  1.33988002232142 4.60865131578948  C 1.16506556919643 5.39891447368422  1.03138392857143 6.28347039473685  1.05709193638392 7.08159128289474  C 1.12279017857142 9.17904399671053  1.06566127232142 11.5184025493421  1.06566127232142 11.5184025493421  C 1.06566127232142 11.5184025493421  0.839430803571416 11.5896833881579  0.610343889508919 11.5941735197369  C 0.850285295758922 8.28157894736843  0.446955217633918 6.50236430921054  0.792013811383917 4.69677014802632  C 1.04109584263392 3.3963157894737  1.30731654575892 2.54150699013159  1.30731654575892 2.54150699013159  C 1.30674525669642 2.05937911184212  1.84261439732142 2.23056537828949  2.01971400669642 2.28276315789475  C 2.60814174107141 2.45843955592106  3.00461635044642 2.45787828947369  3.47478724888392 2.3955777138158  C 4.43341029575892 2.26873149671054  6.40664271763392 0.105610608552643  6.43577845982142 0.0348910361842238  C 6.37693568638392 0.218986430921063  5.03897670200892 3.95589843750001  6.77226771763392 3.18920847039475  C 7.19159388950892 3.00342927631581  7.61149135044642 2.92934210526317  8.00739467075892 2.92485197368422  C 8.01310756138392 2.93607730263159  8.01767787388392 2.9484251644737  8.02339076450892 2.95965049342107  Z " fill-rule="nonzero" fill="#33100b" stroke="none" transform="matrix(1 0 0 1 281 170 )" />
  </g>
</svg>