<?xml version="1.0" encoding="utf-8"?>
<svg version="1.1" xmlns:xlink="http://www.w3.org/1999/xlink" width="3px" height="3px" xmlns="http://www.w3.org/2000/svg">
  <g transform="matrix(1 0 0 1 -279 -179 )">
    <path d="M 1.0373876953125 1.16192871093751  C 1.1946826171875 1.11660644531251  1.36730712890625 1.09127929687499  1.5479296875 1.09127929687499  C 1.68189697265625 1.09127929687499  1.81253173828125 1.10527587890624  1.9358349609375 1.13060302734375  C 2.00048583984375 1.144599609375  2.0478076171875 1.19858642578125  2.05114013671875 1.26390380859375  L 2.07246826171875 1.7377880859375  C 2.07646728515625 1.81910156250001  2.01114990234375 1.88641845703125  1.9305029296875 1.88641845703125  L 1.0640478515625 1.88641845703125  C 0.984067382812501 1.88641845703125  0.920083007812496 1.8204345703125  0.922082519531248 1.74112060546875  C 0.924748535156253 1.63981201171876  0.928747558593752 1.48918212890626  0.931413574218746 1.29789550781251  C 0.932080078124999 1.2339111328125  0.976069335937497 1.17925781250001  1.0373876953125 1.16192871093751  Z M 1.5479296875 0.625393066406257  C 1.32864990234375 0.625393066406257  1.113369140625 0.655385742187505  0.908085937499997 0.714038085937506  C 0.646816406249997 0.789353027343758  0.468193359374993 1.02129638671875  0.464860839843746 1.29189697265626  C 0.462194824218747 1.48051757812501  0.4588623046875 1.6284814453125  0.455529785156248 1.72779052734375  C 0.450864257812501 1.891083984375  0.513515625000002 2.05171142578125  0.6268212890625 2.16901611328126  C 0.740793457031245 2.28632080078125  0.900087890624999 2.3536376953125  1.0640478515625 2.3536376953125  L 1.9305029296875 2.3536376953125  C 2.0957958984375 2.3536376953125  2.2557568359375 2.28498779296875  2.3703955078125 2.16568359374999  C 2.4850341796875 2.04637939453125  2.54568603515625 1.8830859375  2.5383544921875 1.71779296874999  L 2.5170263671875 1.24390869140624  C 2.50436279296875 0.966643066406245  2.305078125 0.732700195312493  2.03247802734375 0.675380859374997  C 1.87518310546875 0.642055664062507  1.71255615234375 0.625393066406257  1.5479296875 0.625393066406257  Z " fill-rule="nonzero" fill="#33100b" stroke="none" transform="matrix(1 0 0 1 279 179 )" />
  </g>
</svg>