<?xml version="1.0" encoding="utf-8"?>
<svg version="1.1" xmlns:xlink="http://www.w3.org/1999/xlink" width="2px" height="2px" xmlns="http://www.w3.org/2000/svg">
  <g transform="matrix(1 0 0 1 -284 -179 )">
    <path d="M 0.487740885416666 1.72717447916667  C 0.397688802083332 1.72717447916667  0.310598958333334 1.69044270833334  0.248391927083337 1.62586588541667  C 0.184999999999998 1.56069661458333  0.15182291666667 1.47538411458333  0.15478515625 1.38414713541667  C 0.157154947916666 1.29527994791667  0.160709635416666 1.16257161458333  0.163079427083332 0.993723958333324  C 0.165449218749998 0.845019531249998  0.263203125000004 0.717643229166669  0.407167968749998 0.676171874999994  C 0.57068359375 0.629368489583328  0.742493489583329 0.605078124999996  0.918450520833332 0.605078124999996  C 1.05056640625 0.605078124999996  1.18090494791666 0.618111979166656  1.30591145833333 0.644772135416654  C 1.45580078125 0.676171874999985  1.56540364583333 0.804733072916662  1.57251302083333 0.956399739583323  L 1.59147135416667 1.37763020833332  C 1.59561848958333 1.46827473958332  1.56244140625 1.55773437499999  1.49964192708334 1.62290364583332  C 1.43743489583334 1.68807291666666  1.34916015625 1.72598958333332  1.258515625 1.72598958333332  L 0.488333333333334 1.72598958333332  L 0.488333333333334 1.72717447916667  Z " fill-rule="nonzero" fill="#774b3b" stroke="none" transform="matrix(1 0 0 1 284 179 )" />
  </g>
</svg>