<?xml version="1.0" encoding="utf-8"?>
<svg version="1.1" xmlns:xlink="http://www.w3.org/1999/xlink" width="3px" height="2px" xmlns="http://www.w3.org/2000/svg">
  <g transform="matrix(1 0 0 1 -283 -179 )">
    <path d="M 1.27204833984376 0.875826822916679  C 1.430009765625 0.835540364583333  1.60263427734375 0.813027343749999  1.78259033203125 0.813027343749999  C 1.9165576171875 0.813027343749999  2.0471923828125 0.825468749999999  2.17049560546875 0.847981770833333  C 2.23514648437501 0.860423177083334  2.28246826171875 0.908411458333328  2.28580078125 0.966471354166667  L 2.30712890625001 1.38770182291666  C 2.3111279296875 1.45998046875  2.24581054687501 1.51981770833333  2.16516357421876 1.51981770833333  L 1.29870849609376 1.51981770833333  C 1.21872802734376 1.51981770833333  1.15407714843751 1.46116536458334  1.15674316406251 1.39066406250001  C 1.15940917968751 1.30061197916667  1.16340820312501 1.16671875000001  1.16607421875001 0.996686197916669  C 1.16674072265626 0.939811197916669  1.21072998046875 0.891230468750005  1.27204833984376 0.875826822916679  Z M 1.78259033203125 0.398906250000001  C 1.56264404296875 0.398906250000001  1.34802978515625 0.425566406249999  1.14274658203125 0.477701822916667  C 0.881477050781251 0.544648437500001  0.702854003906248 0.750820312499997  0.699521484375001 0.991354166666667  C 0.696855468750002 1.15901692708333  0.69352294921875 1.29054036458333  0.690190429687503 1.37881510416666  C 0.685524902343746 1.52396484375  0.747509765624999 1.66674479166666  0.861481933593755 1.771015625  C 0.975454101562505 1.87528645833333  1.13474853515625 1.93512369791666  1.29870849609375 1.93512369791666  L 2.16516357421875 1.93512369791666  C 2.33045654296875 1.93512369791666  2.49041748046875 1.8741015625  2.60505615234375 1.76805338541665  C 2.71969482421876 1.66141276041666  2.7803466796875 1.51685546874999  2.77301513671875 1.36992838541666  L 2.75168701171875 0.948697916666655  C 2.73902343749999 0.702239583333323  2.53973876953125 0.494290364583321  2.267138671875 0.443339843749991  C 2.10984375 0.413717447916667  1.947216796875 0.398906250000001  1.78259033203125 0.398906250000001  Z " fill-rule="nonzero" fill="#33100b" stroke="none" transform="matrix(1 0 0 1 283 179 )" />
  </g>
</svg>