<?xml version="1.0" encoding="utf-8"?>
<svg version="1.1" xmlns:xlink="http://www.w3.org/1999/xlink" width="11px" height="7px" xmlns="http://www.w3.org/2000/svg">
  <g transform="matrix(1 0 0 1 -256 -113 )">
    <path d="M 9.42246139463414 1.31458863063415  C 9.29303254536585 1.11173658536586  9.1315203502439 1.04512848078049  8.93714226390244 1.18487804878048  L 7.24251627268293 2.39545692331707  L 5.66292073170732 3.53098210107318  L 5.55211585365853 3.61049756097562  L 7.24235975609756 4.8210764355122  L 8.93698578487805 6.03165527180488  C 9.90480693560975 6.72753493385366  10.0664756097561 2.32438697912196  9.42246139463414 1.31458863063415  Z M 3.85764634146341 2.3952975609756  L 2.16286383365854 1.18487804878048  C 1.96942480926829 1.04640326478049  1.8082256097561 1.11078048780488  1.6789532395122 1.30948941814634  C 1.02836585365854 2.30908941814634  1.18956501560976 6.7286503937561  2.16286383365854 6.03149594770731  L 3.85748982487805 4.82091707317073  L 5.54773372731708 3.61033819863414  L 5.43692884926829 3.53066341463414  L 3.85764634146341 2.3952975609756  Z " fill-rule="nonzero" fill="#7ea701" stroke="none" transform="matrix(1 0 0 1 256 113 )" />
  </g>
</svg>