<?xml version="1.0" encoding="utf-8"?>
<svg version="1.1" xmlns:xlink="http://www.w3.org/1999/xlink" width="3px" height="3px" xmlns="http://www.w3.org/2000/svg">
  <g transform="matrix(1 0 0 1 -287 -179 )">
    <path d="M 1.14049804687501 1.07861572265626  C 1.29845947265625 1.03329345703126  1.471083984375 1.00796630859374  1.6510400390625 1.00796630859374  C 1.78500732421875 1.00796630859374  1.91564208984375 1.02196289062499  2.0389453125 1.0472900390625  C 2.10359619140625 1.06128662109375  2.15091796875 1.1152734375  2.15425048828125 1.1805908203125  L 2.17557861328125 1.65447509765625  C 2.17957763671875 1.73578857421876  2.11426025390626 1.80310546875  2.03361328125 1.80310546875  L 1.167158203125 1.80310546875  C 1.087177734375 1.80310546875  1.02319335937501 1.73712158203125  1.02519287109376 1.6578076171875  C 1.02785888671875 1.55649902343751  1.03185791015626 1.40586914062501  1.03452392578126 1.21458251953126  C 1.0351904296875 1.15059814453125  1.0791796875 1.09594482421876  1.14049804687501 1.07861572265626  Z M 1.6510400390625 0.542080078125007  C 1.43109375 0.542080078125007  1.2164794921875 0.572072753906255  1.0111962890625 0.630725097656256  C 0.749926757812501 0.706040039062508  0.571303710937492 0.937983398437503  0.567971191406246 1.20858398437501  C 0.565305175781251 1.39720458984376  0.561972656249994 1.54516845703125  0.558640136718747 1.6444775390625  C 0.553974609374995 1.80777099609375  0.615959472656249 1.9683984375  0.729931640624999 2.08570312500001  C 0.843903808593755 2.2030078125  1.0031982421875 2.27032470703125  1.167158203125 2.27032470703125  L 2.03361328125 2.27032470703125  C 2.19890625 2.27032470703125  2.3588671875 2.2016748046875  2.473505859375 2.08237060546874  C 2.58814453125 1.96239990234375  2.64879638671875 1.79977294921875  2.64146484375 1.63447998046874  L 2.62013671875 1.16059570312499  C 2.60747314453124 0.883330078124995  2.4081884765625 0.649387207031243  2.13558837890625 0.592067871093747  C 1.9789599609375 0.558742675781257  1.8163330078125 0.542080078125007  1.6510400390625 0.542080078125007  Z " fill-rule="nonzero" fill="#33100b" stroke="none" transform="matrix(1 0 0 1 287 179 )" />
  </g>
</svg>