<?xml version="1.0" encoding="utf-8"?>
<svg version="1.1" xmlns:xlink="http://www.w3.org/1999/xlink" width="3px" height="2px" xmlns="http://www.w3.org/2000/svg">
  <g transform="matrix(1 0 0 1 -281 -180 )">
    <path d="M 1.0241748046875 1.778984375  C 0.922866210937503 1.778984375  0.82489013671875 1.74225260416667  0.754907226562503 1.67767578125  C 0.683591308593751 1.61250651041667  0.646267089843752 1.52719401041667  0.649599609374999 1.43595703124999  C 0.652265624999998 1.34708984374999  0.656264648437503 1.21438151041666  0.658930664062497 1.04553385416666  C 0.66093017578125 0.896829427083333  0.771569824218753 0.769453124999994  0.933530273437501 0.727981770833329  C 1.1174853515625 0.681178385416663  1.310771484375 0.656888020833321  1.50872314453125 0.656888020833321  C 1.657353515625 0.656888020833321  1.803984375 0.669921874999991  1.94461669921875 0.696582031249989  C 2.11324218749999 0.727981770833319  2.23654541015625 0.855950520833327  2.24454345703125 1.00820963541666  L 2.26587158203125 1.42944010416665  C 2.27053710937501 1.52008463541665  2.23254638671875 1.60954427083332  2.1625634765625 1.67530598958332  C 2.09258056640626 1.74047526041665  1.99327148437501 1.77839192708332  1.89129638671875 1.77839192708332  L 1.0241748046875 1.77839192708332  Z " fill-rule="nonzero" fill="#774b3b" stroke="none" transform="matrix(1 0 0 1 281 180 )" />
  </g>
</svg>