<?xml version="1.0" encoding="utf-8"?>
<svg version="1.1" xmlns:xlink="http://www.w3.org/1999/xlink" width="3px" height="2px" xmlns="http://www.w3.org/2000/svg">
  <g transform="matrix(1 0 0 1 -281 -180 )">
    <path d="M 0.997514648437512 0.927636718750004  C 1.156142578125 0.887350260416667  1.3281005859375 0.864837239583333  1.508056640625 0.864837239583333  C 1.64202392578125 0.864837239583333  1.77265869140625 0.877278645833333  1.8959619140625 0.899791666666668  C 1.96061279296875 0.911640624999999  2.0079345703125 0.960221354166663  2.01126708984375 1.01828125  L 2.03259521484376 1.43951171875  C 2.03659423828125 1.51179036458333  1.97127685546876 1.57162760416667  1.89062988281251 1.57162760416667  L 1.02417480468751 1.57162760416667  C 0.944194335937505 1.57162760416667  0.88020996093751 1.51297526041667  0.882209472656257 1.44247395833334  C 0.884875488281256 1.352421875  0.888874511718761 1.21852864583334  0.891540527343755 1.04849609375  C 0.892207031250008 0.991621093750003  0.936196289062506 0.943040364583339  0.997514648437512 0.927636718750004  Z M 1.508056640625 0.450716145833335  C 1.2881103515625 0.450716145833335  1.07349609375 0.477376302083333  0.868212890625001 0.529511718750001  C 0.606943359375 0.596458333333336  0.428320312499997 0.802630208333331  0.42498779296875 1.0431640625  C 0.42232177734375 1.21082682291667  0.418989257812498 1.34235026041666  0.415656738281251 1.43062499999999  C 0.4109912109375 1.57577473958333  0.473642578125 1.7185546875  0.586948242187503 1.82282552083332  C 0.700920410156259 1.92709635416666  0.860214843750008 1.98693359375  1.0241748046875 1.98693359375  L 1.8906298828125 1.98693359375  C 2.0559228515625 1.98693359375  2.2158837890625 1.92591145833333  2.3305224609375 1.81986328124999  C 2.4451611328125 1.71381510416666  2.50581298828125 1.56866536458332  2.4984814453125 1.42173828124999  L 2.4771533203125 1.00050781249999  C 2.46448974609374 0.754049479166658  2.265205078125 0.546100260416656  1.9919384765625 0.495149739583326  C 1.8359765625 0.465527343750002  1.673349609375 0.450716145833335  1.508056640625 0.450716145833335  Z " fill-rule="nonzero" fill="#33100b" stroke="none" transform="matrix(1 0 0 1 281 180 )" />
  </g>
</svg>