<?xml version="1.0" encoding="utf-8"?>
<svg version="1.1" xmlns:xlink="http://www.w3.org/1999/xlink" width="2px" height="4px" xmlns="http://www.w3.org/2000/svg">
  <g transform="matrix(1 0 0 1 -278 -164 )">
    <path d="M 1.65234375 0.870520833333335  C 1.65175130208334 0.980716145833332  1.60672526041667 1.08143229166667  1.53444661458333 1.15311848958333  C 1.47697916666667 1.20940104166667  1.40529296875 1.24909505208333  1.32353515625 1.26331380208334  C 1.57295572916667 1.62707682291667  1.34427083333334 1.99498697916667  1.11440104166667 2.22485677083334  C 0.92541015625 2.41384765625001  0.768411458333337 3.00629557291668  0.68428385416667 3.38072265625001  C 0.649921875000004 3.31555338541667  0.603118489583333 3.25275390625001  0.543281250000002 3.19528645833334  C 0.206178385416668 2.87358723958334  0.690208333333336 2.29832031250001  1.1369140625 1.92567057291667  C 1.39225911458333 1.71298177083334  1.39048177083333 1.30182291666668  1.21807942708333 1.15608072916667  C 1.1226953125 1.07610026041667  1.13809895833333 1.00974609375001  0.992356770833335 0.964127604166672  C 0.921855468750001 0.942207031250007  0.896380208333336 0.874075520833339  0.851354166666667 0.870520833333335  C 0.851354166666667 0.760325520833334  0.89697265625 0.66079427083334  0.968658854166667 0.587330729166671  C 1.04152994791667 0.514459635416671  1.14106119791667 0.470026041666671  1.25184895833334 0.470026041666671  C 1.36204427083333 0.470026041666671  1.46157552083334 0.514459635416671  1.5350390625 0.587330729166671  C 1.60731770833334 0.660201822916671  1.65234375 0.759733072916669  1.65234375 0.870520833333335  Z " fill-rule="nonzero" fill="#33100b" stroke="none" transform="matrix(1 0 0 1 278 164 )" />
  </g>
</svg>