<?xml version="1.0" encoding="utf-8"?>
<svg version="1.1" xmlns:xlink="http://www.w3.org/1999/xlink" width="11px" height="7px" xmlns="http://www.w3.org/2000/svg">
  <g transform="matrix(1 0 0 1 -260 -253 )">
    <path d="M 9.44263157894737 6.91833333333333  C 9.30754385964912 6.86388888888889  9.1859649122807 6.78222222222222  9.0778947368421 6.67333333333333  L 5.53473684210526 3.15  L 1.99157894736842 6.67333333333333  C 1.88350877192982 6.78222222222222  1.76 6.86388888888889  1.62105263157895 6.91833333333333  C 1.4821052631579 6.97277777777778  1.34122807017544 7  1.19842105263158 7  C 1.05561403508772 7  0.916666666666667 6.97277777777778  0.781578947368421 6.91833333333333  C 0.646491228070176 6.86388888888889  0.524912280701755 6.78222222222222  0.416842105263158 6.67333333333333  C 0.192982456140351 6.45555555555555  0.0810526315789477 6.195  0.0810526315789477 5.89166666666667  C 0.0810526315789477 5.58833333333333  0.192982456140351 5.32777777777778  0.416842105263158 5.11  L 4.6778947368421 0.851666666666668  C 4.7859649122807 0.742777777777779  4.91526315789474 0.657222222222223  5.06578947368421 0.595000000000001  C 5.21631578947369 0.532777777777779  5.36877192982456 0.497777777777779  5.52315789473684 0.490000000000001  C 5.67754385964912 0.482222222222223  5.82614035087719 0.501666666666667  5.96894736842105 0.548333333333334  C 6.11175438596491 0.595000000000001  6.22947368421053 0.672777777777779  6.32210526315789 0.781666666666668  L 10.6526315789474 5.11  C 10.8687719298246 5.32777777777778  10.9768421052632 5.58833333333333  10.9768421052632 5.89166666666667  C 10.9768421052632 6.195  10.8687719298246 6.45555555555555  10.6526315789474 6.67333333333333  C 10.5445614035088 6.78222222222222  10.4210526315789 6.86388888888889  10.2821052631579 6.91833333333333  C 10.1431578947368 6.97277777777778  10.0022807017544 7  9.85947368421053 7  C 9.71666666666667 7  9.57771929824562 6.97277777777778  9.44263157894737 6.91833333333333  Z " fill-rule="nonzero" fill="#d7d7d7" stroke="none" transform="matrix(1 0 0 1 260 253 )" />
  </g>
</svg>