<?xml version="1.0" encoding="utf-8"?>
<svg version="1.1" xmlns:xlink="http://www.w3.org/1999/xlink" width="13px" height="13px" xmlns="http://www.w3.org/2000/svg">
  <g transform="matrix(1 0 0 1 -260 -284 )">
    <path d="M 6.575 0.447499999999999  C 9.9275 0.447499999999999  12.65 3.1625  12.65 6.5225  C 12.65 9.875  9.9275 12.5975  6.575 12.5975  C 3.2225 12.5975  0.5 9.875  0.5 6.5225  C 0.5 3.17  3.2225 0.447499999999999  6.575 0.447499999999999  Z M 11.7725 6.5375  C 11.7725 3.8  9.38 1.3625  6.59 1.3625  C 3.83 1.3625  1.4075 3.785  1.4075 6.5375  C 1.4075 9.4025  3.725 11.72  6.59 11.72  C 9.455 11.72  11.7725 9.4025  11.7725 6.5375  Z " fill-rule="nonzero" fill="#aaaaaa" stroke="none" transform="matrix(1 0 0 1 260 284 )" />
  </g>
</svg>