<?xml version="1.0" encoding="utf-8"?>
<svg version="1.1" xmlns:xlink="http://www.w3.org/1999/xlink" width="5px" height="7px" xmlns="http://www.w3.org/2000/svg">
  <g transform="matrix(1 0 0 1 -264 -287 )">
    <path d="M 4.5925 2.165  C 4.5925 1.625  4.405 1.145  4.075 0.845  C 3.73 0.4925  3.22 0.275  2.6575 0.275  C 2.0275 0.275  1.5025 0.537500000000001  1.1275 0.98  C 0.789999999999999 1.3625  0.617499999999999 1.895  0.617499999999999 2.51  L 1.3975 2.5175  C 1.3975 2.09  1.5175 1.745  1.7125 1.4975  C 1.9225 1.205  2.215 1.055  2.6575 1.055  C 3.025 1.055  3.3175 1.1525  3.52 1.3625  C 3.715 1.5575  3.82 1.8275  3.82 2.18  C 3.82 2.4275  3.73 2.6525  3.5575 2.8775  C 3.505 2.945  3.415 3.02  3.2575 3.1925  C 2.785 3.6275  2.4925 3.95  2.3725 4.2125  C 2.2675 4.43  2.2075 4.655  2.2075 4.985  L 2.2075 5.1875  L 2.965 5.1875  L 2.965 4.985  C 2.98 4.7375  3.01 4.5425  3.1225 4.3475  C 3.2275 4.1975  3.355 4.055  3.55 3.89  C 3.94 3.545  4.165 3.335  4.255 3.23  C 4.51 2.9  4.5925 2.5625  4.5925 2.165  Z M 3.0325 5.96  C 2.9125 5.84  2.77 5.795  2.6125 5.795  C 2.4475 5.795  2.3125 5.84  2.2 5.96  C 2.0875 6.065  2.035 6.2  2.035 6.365  C 2.035 6.53  2.08 6.665  2.2 6.7775  C 2.3125 6.8825  2.4475 6.9425  2.6125 6.9425  C 2.7775 6.9425  2.9125 6.8825  3.025 6.7775  C 3.1375 6.6725  3.1975 6.5375  3.1975 6.365  C 3.1975 6.2  3.1375 6.065  3.0325 5.96  Z " fill-rule="nonzero" fill="#aaaaaa" stroke="none" transform="matrix(1 0 0 1 264 287 )" />
  </g>
</svg>