<?xml version="1.0" encoding="utf-8"?>
<svg version="1.1" xmlns:xlink="http://www.w3.org/1999/xlink" width="120px" height="120px" xmlns="http://www.w3.org/2000/svg">
  <g transform="matrix(1 0 0 1 -90 -341 )">
    <path d="M 150 342  C 183.04 342  209 367.96  209 401  C 209 434.04  183.04 460  150 460  C 116.96 460  91 434.04  91 401  C 91 367.96  116.96 342  150 342  Z " fill-rule="nonzero" fill="#ffffff" stroke="none" />
    <path d="M 150 342  C 183.04 342  209 367.96  209 401  C 209 434.04  183.04 460  150 460  C 116.96 460  91 434.04  91 401  C 91 367.96  116.96 342  150 342  Z " stroke-width="2" stroke="#15dfa7" fill="none" />
  </g>
</svg>