<?xml version="1.0" encoding="utf-8"?>
<svg version="1.1" xmlns:xlink="http://www.w3.org/1999/xlink" width="80px" height="80px" xmlns="http://www.w3.org/2000/svg">
  <g transform="matrix(1 0 0 1 -110 -361 )">
    <path d="M 150 362  C 171.84 362  189 379.16  189 401  C 189 422.84  171.84 440  150 440  C 128.16 440  111 422.84  111 401  C 111 379.16  128.16 362  150 362  Z " fill-rule="nonzero" fill="#ffffff" stroke="none" />
    <path d="M 150 362  C 171.84 362  189 379.16  189 401  C 189 422.84  171.84 440  150 440  C 128.16 440  111 422.84  111 401  C 111 379.16  128.16 362  150 362  Z " stroke-width="2" stroke="#15dfa7" fill="none" />
  </g>
</svg>