<?xml version="1.0" encoding="utf-8"?>
<svg version="1.1" xmlns:xlink="http://www.w3.org/1999/xlink" width="60px" height="60px" xmlns="http://www.w3.org/2000/svg">
  <g transform="matrix(1 0 0 1 -120 -371 )">
    <path d="M 150 372  C 166.24 372  179 384.76  179 401  C 179 417.24  166.24 430  150 430  C 133.76 430  121 417.24  121 401  C 121 384.76  133.76 372  150 372  Z " fill-rule="nonzero" fill="#ffffff" stroke="none" />
    <path d="M 150 372  C 166.24 372  179 384.76  179 401  C 179 417.24  166.24 430  150 430  C 133.76 430  121 417.24  121 401  C 121 384.76  133.76 372  150 372  Z " stroke-width="2" stroke="#15dfa7" fill="none" />
  </g>
</svg>