<?xml version="1.0" encoding="utf-8"?>
<svg version="1.1" xmlns:xlink="http://www.w3.org/1999/xlink" width="14px" height="15px" xmlns="http://www.w3.org/2000/svg">
  <g transform="matrix(1 0 0 1 -26 -656 )">
    <path d="M 3.302 0.875  L 10.698 0.875  C 11.988 0.875  13.0195 1.959  13.074 3.295  L 13.0765 3.407  L 13.0765 12.093  C 13.0765 13.443  12.08 14.563  10.805 14.6225  L 10.698 14.625  L 3.302 14.625  C 2.012 14.625  0.9805 13.541  0.925999999999999 12.205  L 0.9235 12.093  L 0.9235 10.4615  C 0.923495499231426 10.4605316799802  0.923493248838023 10.459563350808  0.923493248838023 10.4585950203284  C 0.923493248838023 10.1134170516841  1.20331528019378 9.83359502032836  1.54849324883802 9.83359502032836  C 1.87000914418901 9.83359502032836  2.13907116774023 10.0775239079773  2.1705 10.3975  L 2.1735 10.4615  L 2.1735 12.093  C 2.1735 12.783  2.6505 13.3295  3.229 13.3725  L 3.302 13.375  L 10.698 13.375  C 11.2845 13.375  11.785 12.8565  11.824 12.1785  L 11.8265 12.093  L 11.8265 3.407  C 11.8265 2.717  11.3495 2.1705  10.771 2.1275  L 10.698 2.125  L 3.302 2.125  C 2.7155 2.125  2.215 2.6435  2.176 3.3215  L 2.1735 3.407  L 2.1735 7.531  C 2.17238672331968 7.87538742332268  1.89289248828765 8.1539796175975  1.54850326556457 8.1539796175975  C 1.22888193713554 8.1539796175975  0.960762435723007 7.91283311898036  0.927 7.595  L 0.9235 7.531  L 0.9235 3.407  C 0.9235 2.057  1.92 0.936999999999999  3.195 0.8775  L 3.302 0.875  Z " fill-rule="nonzero" fill="#000000" stroke="none" transform="matrix(1 0 0 1 26 656 )" />
  </g>
</svg>