<?xml version="1.0" encoding="utf-8"?>
<svg version="1.1" xmlns:xlink="http://www.w3.org/1999/xlink" width="8px" height="7px" xmlns="http://www.w3.org/2000/svg">
  <g transform="matrix(1 0 0 1 -29 -660 )">
    <path d="M 1.822 1.706  L 2.599 0.885  C 2.69340332458273 0.785565489315526  2.82449776416937 0.729260740249994  2.96160797388161 0.729260740249994  C 3.23775034879701 0.729260740249994  3.46160797388161 0.953118365334597  3.46160797388161 1.22926074024999  C 3.46160797388161 1.33520825230835  3.42795378255287 1.4384172893851  3.3655 1.524  L 3.3255 1.5725  L 2.2275 2.733  C 2.06249529708925 2.90750377997245  1.79672992100288 2.94004219489614  1.5945 2.8105  L 1.546 2.775  L 0.831 2.184  C 0.715608148501299 2.08902180247242  0.648753169708055 1.94740496826926  0.648753169708055 1.79795217506055  C 0.648753169708055 1.52180980014515  0.872610794792657 1.29795217506054  1.14875316970805 1.29795217506054  C 1.24376822701849 1.29795217506054  1.33681637980871 1.32502502409293  1.417 1.376  L 1.4675 1.413  L 1.822 1.706  Z M 1.822 5.7905  L 2.599 4.97  C 2.69340332458273 4.87056548931552  2.82449776416938 4.81426074024999  2.96160797388162 4.81426074024999  C 3.23775034879701 4.81426074024999  3.46160797388162 5.03811836533459  3.46160797388162 5.31426074024999  C 3.46160797388162 5.42020825230835  3.42795378255287 5.5234172893851  3.3655 5.609  L 3.3255 5.657  L 2.2275 6.818  C 2.06236618350431 6.99234081961226  1.79661431165684 7.02466766658265  1.5945 6.895  L 1.546 6.86  L 0.831 6.2685  C 0.717121723050225 6.17350209814969  0.651289816179076 6.0328540367008  0.651289816179076 5.8845541266637  C 0.651289816179076 5.6084117517483  0.875147441263679 5.3845541266637  1.15128981617908 5.3845541266637  C 1.24528472988552 5.3845541266637  1.33737613282848 5.41104918840166  1.417 5.461  L 1.4675 5.498  L 1.822 5.7905  Z M 4.358 1.5  L 7.058 1.5  C 7.33392564919573 1.50030605131959  7.55744541014542 1.72407387350126  7.55744541014542 1.99999969243  C 7.55744541014542 2.25329922258756  7.36802658926113 2.46658300027238  7.1165 2.4965  L 7.058 2.5  L 4.358 2.5  C 4.0822673891947 2.49942209494317  3.85904794239943 2.27573431460166  3.85904794239943 2.00000109818448  C 3.85904794239943 1.74669901445511  4.0484704745119 1.53341393369942  4.3 1.5035  L 4.358 1.5  Z M 4.283 5.394  L 7.058 5.394  C 7.33392564919573 5.3943060513196  7.5574454101454 5.61807387350127  7.5574454101454 5.89399969243  C 7.5574454101454 6.14729922258756  7.36802658926112 6.36058300027237  7.1165 6.3905  L 7.058 6.394  L 4.283 6.394  C 4.28186130967087 6.39400777998907  4.28072259608619 6.39401167001765  4.27958387917937 6.39401167001765  C 4.00344150426397 6.39401167001765  3.77958387917937 6.17015404493305  3.77958387917937 5.89401167001765  C 3.77958387917937 5.63899417351471  3.9715066563587 5.42483968843549  4.225 5.397  L 4.283 5.394  Z " fill-rule="nonzero" fill="#000000" stroke="none" transform="matrix(1 0 0 1 29 660 )" />
  </g>
</svg>