<?xml version="1.0" encoding="utf-8"?>
<svg version="1.1" xmlns:xlink="http://www.w3.org/1999/xlink" width="6px" height="6px" xmlns="http://www.w3.org/2000/svg">
  <g transform="matrix(1 0 0 1 -30 -692 )">
    <path d="M 1 3  C 1 4.10200000566016  1.89699999238867 5  2.99899999804883 5  C 4.10304715219869 4.99834943622374  4.9977975497822 4.10404619113523  5 3  C 5 1.89799999433984  4.10300000761133 0.999999999999999  3.00100000195117 1  C 1.89695284780132 1.00165056377627  1.0022024502178 1.89595380886477  1 3  Z M 6 3  C 6 4.65399999286328  4.65400001044141 6  2.99899999804883 6  C 1.34299344370329 5.99834546930473  0.00110243534076357 4.65600701391736  0 3  C 0 1.34600000713672  1.34599998955859 0  3.00100000195117 0  C 4.65700655629671 0.00165453069526458  5.99889756465923 1.34399298608263  6 3  Z " fill-rule="nonzero" fill="#000000" stroke="none" transform="matrix(1 0 0 1 30 692 )" />
  </g>
</svg>