<?xml version="1.0" encoding="utf-8"?>
<svg version="1.1" xmlns:xlink="http://www.w3.org/1999/xlink" width="14px" height="14px" xmlns="http://www.w3.org/2000/svg">
  <g transform="matrix(1 0 0 1 -26 -688 )">
    <path d="M 10.645 11.3979999941406  L 10.6460000019531 11.3989999960937  C 10.5040000058594 10.6779999941406  10.5110000019531 9.82499999804688  10.8560000078125 9.22999999609375  C 11.2060000058594 8.62  11.9540000078125 8.188  12.6689999980469 7.94700000390625  C 12.7021294214446 7.72355047581661  12.7281425737292 7.49910364631538  12.7469999921875 7.2740000078125  C 12.7549999902344 7.170000015625  12.7589999980469 7.07700000976562  12.7589999980469 6.99899999804688  C 12.7589999980469 6.92000000195313  12.7549999902344 6.82699999609375  12.7469999921875 6.721  C 12.7304262659852 6.49666984251938  12.7044031658572 6.27313806561146  12.6689999980469 6.0509999921875  C 11.9449999902344 5.803  11.2079999921875 5.37799999609375  10.8569999921875 4.77000000390625  C 10.5129999882812 4.17500000195313  10.5069999941406 3.33300000976563  10.6460000019531 2.60499999414063  L 8.98599999414062 1.63900000585938  C 8.42599999023437 2.12500000585938  7.69099999609375 2.54300001367188  6.99899999804687 2.54299999609375  C 6.31299999414062 2.54299999609375  5.58599999804687 2.13200000195313  5.01899999804687 1.64299999609375  L 3.35299999609375 2.60000000195313  C 3.4949999921875 3.32100000390625  3.48799999609375 4.174  3.1430000078125 4.76900000195312  C 2.79300000976563 5.37899999804688  2.0450000078125 5.81099999804687  1.33 6.05199999414063  C 1.29687057623226 6.2754495280639  1.2708574239469 6.49989636343333  1.25200000585938 6.7250000078125  C 1.24473687473391 6.81649516276091  1.24073433640621 6.90821995204391  1.24 7  C 1.24 7.07899999609375  1.2440000078125 7.17200000195313  1.25200000585938 7.27799999804688  C 1.26857373206171 7.5023301555275  1.2945968321897 7.72586193243542  1.33 7.94800000585937  C 2.0540000078125 8.19599999804687  2.79100000585937 8.62100000195312  3.14200000585938 9.22899999414063  C 3.48600000976563 9.82399999609375  3.49200000390625 10.6659999882813  3.35299999609375 11.3940000039062  L 5.01300000390625 12.3599999921875  C 5.5730000078125 11.8739999921875  6.30800000195313 11.455999984375  7 11.4560000019531  C 7.6880000078125 11.4560000019531  8.4179999921875 11.8700000019531  8.98100000195313 12.3560000019531  L 10.645 11.3979999941406  Z M 9.27100000585937 13.345  C 9.17440073038158 13.3841383380082  9.07122561941596 13.404501843847  8.9669999921875 13.4049999941406  C 8.76866155811048 13.4059287085559  8.5768757109819 13.3340534963343  8.42799999414063 13.2030000039063  C 8.21799998828125 13.0099999960938  7.50699998828125 12.4570000058594  7.00100000195313 12.4570000058594  C 6.4910000078125 12.4570000058594  5.78100000976563 13.0100000136719  5.5739999921875 13.2030000039063  C 5.34362876030936 13.4075536315037  5.01671572051101 13.46268623341  4.732 13.345  L 4.6910000078125 13.3249999960937  L 2.64099999414063 12.1369999960937  C 2.39951867252856 11.9473778443627  2.28509838880313 11.6381338330084  2.34499999609375 11.3369999980469  C 2.40699999414062 11.0610000039062  2.52999998828125 10.168  2.27700000390625 9.73000000585937  C 2.02500000390625 9.29200001171875  1.18900000585938 8.953  0.917000001953125 8.86600000585937  C 0.6338018065285 8.76920412346787  0.42326866865747 8.52935624826906  0.363999994140626 8.23600000585937  C 0.359000001953125 8.206  0.241000000000001 7.51100001367187  0.241000000000001 7.00100000195312  C 0.241000000000001 6.4910000078125  0.359000001953125 5.7980000078125  0.363999994140626 5.767  C 0.423452806431988 5.47340374974525  0.634414342520291 5.23350164614807  0.91800000390625 5.137  C 1.18900000585938 5.0519999921875  2.02500000390625 4.71299999804687  2.27800000585938 4.27199999804687  C 2.53200000976562 3.832  2.41 2.94200000195312  2.34499999609375 2.66500000585937  C 2.2834013266784 2.36373407963796  2.39814433718221 2.05361783374389  2.64099999414063 1.8650000078125  L 2.67899999804688 1.8389999921875  L 4.72899999414063 0.654999999999998  C 5.01399548220764 0.536891960303206  5.34142305989646 0.592045832315618  5.57200000585938 0.796999996093748  C 5.78200001171875 0.990000003906248  6.49300001171875 1.54299999414062  6.99899999804688 1.54299999414062  C 7.5089999921875 1.54299999414062  8.21899999023438 0.989999986328124  8.4260000078125 0.796999996093748  C 8.65637123969064 0.592446368496284  8.98328427948899 0.537313766590007  9.268 0.654999999999998  L 9.3089999921875 0.675000003906248  L 11.3590000058594 1.86300000390625  C 11.6004813274714 2.05262215563735  11.7149016111969 2.36186616699159  11.6550000039062 2.66300000195312  C 11.5930000058594 2.93899999609375  11.4700000117187 3.832  11.7229999960937 4.26999999414062  C 11.9749999960937 4.70799998828125  12.8109999941406 5.047  13.0829999980469 5.13399999414062  C 13.3661981934715 5.23079587653213  13.5767313313425 5.47064375173093  13.6360000058594 5.76399999414062  C 13.6409999980469 5.794  13.759 6.48899998632812  13.759 6.99899999804687  C 13.759 7.5089999921875  13.6409999980469 8.2019999921875  13.6360000058594 8.233  C 13.576547193568 8.52659625025474  13.3655856574797 8.76649835385193  13.0819999960937 8.863  C 12.8109999941406 8.9480000078125  11.9749999960937 9.28700000195312  11.7219999941406 9.72800000195312  C 11.4679999902344 10.168  11.59 11.0579999980469  11.6550000039062 11.3349999941406  C 11.7161097999973 11.6362283351856  11.6014600610958 11.9460924956668  11.3590000058594 12.1349999921875  L 11.3210000019531 12.1610000078125  L 9.27100000585937 13.345  Z " fill-rule="nonzero" fill="#000000" stroke="none" transform="matrix(1 0 0 1 26 688 )" />
  </g>
</svg>