<?xml version="1.0" encoding="utf-8"?>
<svg version="1.1" xmlns:xlink="http://www.w3.org/1999/xlink" width="10px" height="13px" xmlns="http://www.w3.org/2000/svg">
  <g transform="matrix(1 0 0 1 -28 -718 )">
    <path d="M 1.10412500000132 4.91650118671018  C 1.10374999968796 4.91650118671018  1.10337499947882 4.9165007911399  1.103 4.9165  C 0.808494157152729 4.9165  0.569749999999999 4.67775584284727  0.569749999999999 4.38325  L 0.569749999999999 0.794499999999999  C 0.569749999999999 0.499683496980949  0.808745996980949 0.2606875  1.1035625 0.2606875  C 1.39837900301905 0.2606875  1.637375 0.499683496980949  1.637375 0.794499999999999  L 1.637375 4.38325  C 1.63737500000132 4.67775702955745  1.39863084284859 4.91650118671018  1.10412500000132 4.91650118671018  Z M 9.3065 4.38325  C 9.3065 4.67775584284727  9.06775584284727 4.9165  8.77325 4.9165  C 8.47874415715273 4.9165  8.24 4.67775584284727  8.24 4.38325  L 8.24 0.794499999999999  C 8.24 0.499994157152729  8.47874415715273 0.261249999999998  8.77325 0.261249999999998  C 9.06775584284727 0.261249999999998  9.3065 0.499994157152728  9.3065 0.794499999999999  L 9.3065 4.38325  Z M 4.955 12.38875  C 4.87586408637486 12.5952192431402  4.67774030632484 12.7316250059286  4.456625 12.731875  C 4.16206888618169 12.7310702988645  3.92370985958001 12.4920592071019  3.92370985958001 12.1975019940996  C 3.92370985958001 12.1329319512103  3.93541235440434 12.0688964600153  3.95825 12.0085  L 5.33075 8.40625  L 3.219125 8.40625  C 2.92461915715273 8.40625  2.685875 8.16750584284727  2.685875 7.873  C 2.685875 7.57849415715273  2.92461915715273 7.33975  3.219125 7.33975  L 6.103625 7.33975  C 6.39830102899215 7.33974997284264  6.63704518614488 7.57849412999537  6.63704518614488 7.87299997284264  C 6.63704518614488 7.93798089543786  6.62516830693507 8.00241462316796  6.602 8.063125  L 4.955 12.38875  Z " fill-rule="nonzero" fill="#000000" stroke="none" transform="matrix(1 0 0 1 28 718 )" />
  </g>
</svg>