<?xml version="1.0" encoding="utf-8"?>
<svg version="1.1" xmlns:xlink="http://www.w3.org/1999/xlink" width="20px" height="20px" xmlns="http://www.w3.org/2000/svg">
  <g transform="matrix(1 0 0 1 -102 -565 )">
    <path d="M 1.5275 0.228693181818182  L 1.5275 0.227272727272727  L 3.98375 2.91903409090909  L 3.98375 2.91477272727273  C 7.94875 7.25568181818182  10.04625 11.4005681818182  10.79375 17.1079545454545  C 11.2625 13.7926136363636  12.60625 10.7571022727273  14.625 8.49431818181818  L 16.38125 6.53977272727273  L 15.61625 9.31534090909091  L 15.615 9.31534090909091  C 14.8124665115487 12.1783856309468  14.3049075941816 15.1375570800591  14.1025 18.1335227272727  L 14.09375 18.2642045454546  L 14.3975 18.2642045454546  C 14.7375 14.609375  16.05 11.9289772727273  18.245 9.46875  L 20 7.51420454545455  L 19.235 10.2897727272727  C 18.5083255151942 12.882977521227  18.0235779685341 15.5558115816396  17.78875 18.2642045454545  L 18.62625 18.2642045454545  C 19.1675 18.2642045454545  19.4375 18.5440340909091  19.4375 19.1022727272727  C 19.4375 19.6633522727273  19.1675 19.9431818181818  18.6275 20  L 0.81 20  C 0.27 19.9431818181818  0 19.6633522727273  0 19.1036931818182  C 0 18.5440340909091  0.27 18.2642045454545  0.81 18.2642045454545  L 1.17875 18.2642045454545  C 1.04358757793345 16.7988530001599  0.787460033859794 15.3511921189949  0.41375 13.9403409090909  L 0 12.3849431818182  L 0.96125 13.5014204545455  C 2 14.7102272727273  2.71875 16.4190340909091  2.96625 18.2642045454545  L 3.65 18.2642045454545  L 3.64125 18.1377840909091  C 3.41950806753525 15.1705061260128  2.92814098493372 12.2372697052282  2.175 9.38494318181818  L 1.42125 6.53977272727273  L 3.175 8.58522727272727  C 4.77375 10.4488636363636  5.955 12.9630681818182  6.5575 15.7301136363636  C 6.0875 11.8622159090909  5.1225 8.84090909090909  3.03875 3.84659090909091  L 1.5275 0.228693181818182  Z M 9.17625 8.87073863636364  C 9.92875 5.55397727272727  12.3675 2.61505681818182  16.4875 0.0568181818181818  C 13.60625 3.50852272727273  11.74 8.16335227272727  10.88875 14.0213068181818  C 10.7425 12.6363636363636  10.17 10.9190340909091  9.17625 8.87073863636364  Z " fill-rule="nonzero" fill="#c1c9cd" stroke="none" transform="matrix(1 0 0 1 102 565 )" />
  </g>
</svg>