<?xml version="1.0" encoding="utf-8"?>
<svg version="1.1" xmlns:xlink="http://www.w3.org/1999/xlink" width="18px" height="18px" xmlns="http://www.w3.org/2000/svg">
  <g transform="matrix(1 0 0 1 -26 -565 )">
    <path d="M 17.8977272727273 17.8719512195122  L 18 17.8536585365854  L 18 1.92073170731707  C 16.6718823759217 0.755617965925311  15.167480594438 0.11495131488696  13.6168831168831 0.0914634146341469  C 12.0892495657855 0.101021590575939  10.5968152139325 0.666679054944553  9 1.71951219512195  L 9 17.8719512195122  C 11.9349322438018 15.7751823662063  15.2842236003541 15.7751823662063  17.8977272727273 17.8719512195122  Z M 8.64935064935065 17.8719512195122  L 9 17.8536585365854  L 9 1.92073170731707  C 7.4235057525451 0.755617965925311  5.91910397106142 0.114951314886961  4.36850649350649 0.0914634146341469  C 2.8409995966004 0.102073580367309  1.34879920431968 0.667642370163217  0 1.71951219512195  L 0 17.8719512195122  C 2.68655562042513 15.7751823662063  6.03584697697747 15.7751823662063  8.64935064935065 17.8719512195122  Z " fill-rule="nonzero" fill="#c1c9cd" stroke="none" transform="matrix(1 0 0 1 26 565 )" />
  </g>
</svg>