<?xml version="1.0" encoding="utf-8"?>
<svg version="1.1" xmlns:xlink="http://www.w3.org/1999/xlink" width="20px" height="20px" xmlns="http://www.w3.org/2000/svg">
  <g transform="matrix(1 0 0 1 -177 -565 )">
    <path d="M 20 10  C 20 15.5228474983079  15.5228474983079 20  10 20  C 4.47715250169207 20  0 15.5228474983079  0 10  C 0 4.47715250169207  4.47715250169207 0  10 0  C 15.5228474983079 0  20 4.47715250169207  20 10  Z M 15.5763636328125 5.53030302734375  C 15.7716134542488 5.2125900929421  15.7210511569869 4.80205443602691  15.4545454492188 4.54121212890625  C 15.1930096951039 4.27814273498659  14.7847064526075 4.22992979866734  14.4690909179687 4.4248484765625  L 8.40848484375 8.14848484375  C 8.30163656277905 8.21509059724632  8.21145423005882 8.30527292996654  8.1448484765625 8.4121212109375  L 4.42181818359375 14.472727265625  C 4.3432509039415 14.5996176150708  4.30162853838785 14.74590489529  4.30162853838785 14.8951495877063  C 4.30162853838785 15.3383162574036  4.66088610697178 15.6975738259875  5.1040527766691 15.6975738259875  C 5.25434436175881 15.6975738259875  5.40161514041267 15.6553659111389  5.52909091796875 15.575757578125  L 11.5896969726563 11.8545454492187  C 11.6965587024828 11.7879566235002  11.7867445141252 11.6977708118578  11.8533333398438 11.5909090820312  L 15.5763636328125 5.53030302734375  Z M 10.912727265625 10  C 10.9126859006948 10.3252454597062  10.7388904507927 10.6256897203957  10.4569696875 10.7878787890625  C 10.3190589849008 10.8672188424608  10.1627407420148 10.9089752991923  10.0036363550085 10.9089752991923  C 9.50155930480467 10.9089752991923  9.09454543703973 10.5019614314274  9.09454543703973 9.99988438122358  C 9.09454543703973 9.49780733101977  9.50155930480467 9.09079346325484  10.0036363550085 9.09079346325484  C 10.5057134052123 9.09079346325484  10.9127272729772 9.49780733101977  10.9127272729772 9.99988438122358  Z " fill-rule="nonzero" fill="#c1c9cd" stroke="none" transform="matrix(1 0 0 1 177 565 )" />
  </g>
</svg>