<?xml version="1.0" encoding="utf-8"?>
<svg version="1.1" xmlns:xlink="http://www.w3.org/1999/xlink" width="20px" height="20px" xmlns="http://www.w3.org/2000/svg">
  <g transform="matrix(1 0 0 1 -251 -565 )">
    <path d="M 4.58333333333333 11  L 15.4166666666667 11  C 15.4166666666667 11.1464968152866  15.4166665700801 11.1464968152866  15.4166665700801 11.1464968152866  C 17.9479716734713 11.1464968152866  19.9999999034135 13.1070333407091  19.9999999034135 15.5254777070064  C 19.9999999034135 17.9439220733036  17.9479716734713 19.9044585987261  15.4166665700801 19.9044585987261  C 15.4166665700801 19.9044585987261  15.4166666666667 19.9044585987261  15.4166666666667 20  L 4.58333333333333 20  C 4.58333333333333 19.9044585987261  4.58333342991986 19.9044585987261  4.58333342991986 19.9044585987261  C 2.05202832652872 19.9044585987261  0 17.9439220733036  0 15.5254777070064  C 0 13.1070333407091  2.05202832652872 11.1464968152866  4.58333342991986 11.1464968152866  C 4.58333336552884 11.1464968152866  4.58333339772435 11.1464968152866  4.58333333333333 11  Z M 10 0  C 12.761423749154 0  15 2.13876711864271  15 4.77707006369427  C 15 7.41537300874583  12.761423749154 9.55414012738854  10 9.55414012738854  C 7.23857625084603 9.55414012738854  5 7.41537300874583  5 4.77707006369427  C 5 2.13876711864271  7.23857625084603 0  10 0  Z " fill-rule="nonzero" fill="#15dfa7" stroke="none" transform="matrix(1 0 0 1 251 565 )" />
  </g>
</svg>