<?xml version="1.0" encoding="utf-8"?>
<svg version="1.1" xmlns:xlink="http://www.w3.org/1999/xlink" width="7px" height="7px" xmlns="http://www.w3.org/2000/svg">
  <g transform="matrix(1 0 0 1 -99 -89 )">
    <path d="M 6.36995914669638 3.70971349804688  C 6.36995914669638 4.45231967068983  6.07495999323932 5.16451062785443  5.5498581328125 5.68961248828125  C 5.02475627238568 6.21471434870807  4.31256531522108 6.50971350216513  3.56995914257813 6.50971350216513  C 2.02356184077746 6.50971350216513  0.769959138459876 5.25611079984754  0.769959138459876 3.70971349804688  C 0.769959138459876 2.96710732540392  1.06495829191693 2.25491636823932  1.59006015234375 1.7298145078125  C 2.11516201277057 1.20471264738568  2.82735296993517 0.909713493928625  3.56995914257813 0.909713493928625  C 5.11635644437879 0.909713493928625  6.36995914669638 2.16331619624621  6.36995914669638 3.70971349804688  Z M 3.5699949497826 5.9496776908424  C 4.1640623395013 5.9496776908424  4.73379975600613 5.71369227076396  5.15387833203125 5.2936326875  C 5.5739817245887 4.87354828882573  5.8099949497826 4.30378017564431  5.8099949497826 3.7096776908424  C 5.8099949497826 2.47255985122142  4.80711278940358 1.4696776908424  3.5699949497826 1.4696776908424  C 2.97589246498069 1.4696776908424  2.40612435179927 1.7056909160363  1.986039953125 2.12579430859375  C 1.56598036986104 2.54587288461887  1.3299949497826 3.1156103011237  1.3299949497826 3.7096776908424  C 1.3299949497826 4.94679553046337  2.33287711016163 5.9496776908424  3.5699949497826 5.9496776908424  Z " fill-rule="nonzero" fill="#ffffff" stroke="none" transform="matrix(1 0 0 1 99 89 )" />
  </g>
</svg>