<?xml version="1.0" encoding="utf-8"?>
<svg version="1.1" xmlns:xlink="http://www.w3.org/1999/xlink" width="16px" height="8px" xmlns="http://www.w3.org/2000/svg">
  <g transform="matrix(1 0 0 1 -116 -88 )">
    <path d="M 16 3  C 16 1.34314575050762  14.6568542494924 0  13 0  L 3 0  C 1.34314575050762 0  0 1.34314575050762  0 3  L 0 5  C 0 6.65685424949238  1.34314575050762 8  3 8  L 13 8  C 14.6568542494924 8  16 6.65685424949238  16 5  L 16 3  Z M 5.355 6.22  C 5.27087329137942 6.39169550758871  5.09619755233952 6.50038263410243  4.905 6.5  L 4.85 6.5  C 4.63958818947723 6.47569951382534  4.46731780599881 6.32145742629234  4.42 6.115  L 3.51 2.115  C 3.50205205581724 2.07887298098747  3.49804297055319 2.04199096267285  3.49804297055319 2.005  C 3.49804297055319 1.72225394006785  3.72725394006785 1.49304297055319  4.01 1.49304297055319  C 4.25035987098504 1.49304297055319  4.45835584963659 1.66025386198451  4.51 1.895  L 5.08 4.5  L 6.405 1.78  C 6.48130037341018 1.59091513119058  6.6647736093551 1.46710328075267  6.86867268879199 1.46710328075267  C 7.14481506370738 1.46710328075267  7.36867268879199 1.69096090583727  7.36867268879199 1.96710328075267  C 7.36867268879199 2.05600834425054  7.34496759776617 2.14330563601737  7.3 2.22  L 5.355 6.22  Z M 8.85 2.095  L 8.14 6.085  C 8.09818630923725 6.32753791933755  7.88608987228174 6.50357796201063  7.64 6.5  C 7.61020356105547 6.50494240089999  7.57979643894453 6.50494240089999  7.55 6.5  C 7.28023172801701 6.45171534906121  7.09960463370539 6.19526947442126  7.145 5.925  L 7.85 1.925  C 7.8914471718718 1.68119310663647  8.10269518947715 1.50282645968071  8.35 1.50282645968071  C 8.63010421183604 1.50282645968071  8.85717354031929 1.72989578816396  8.85717354031929 2.01  C 8.85717354031929 2.03848450614749  8.85477387487725 2.06691838307499  8.85 2.095  Z M 12.385 1.965  C 12.6411534384164 2.27771588282181  12.7455264318358 2.68788343590866  12.67 3.085  C 12.5151244231255 3.89056570067402  11.8200622614507 4.47949561610506  11 4.5  L 10.42 4.5  L 10.14 6.085  C 10.0981863092373 6.32753791933755  9.88608987228174 6.50357796201063  9.64 6.5  C 9.61020356105547 6.50494240089999  9.57979643894453 6.50494240089999  9.55 6.5  C 9.28023172801701 6.45171534906122  9.09960463370539 6.19526947442126  9.145 5.925  L 9.5 3.925  C 9.53738471108682 3.67848097204045  9.75067831358037 3.49718140992094  10 3.5  L 11 3.5  C 11.3330516012151 3.47910769059754  11.6122392695484 3.24067734610853  11.685 2.915  C 11.7107770229649 2.80873777222677  11.6868616655063 2.6965195564597  11.62 2.61  C 11.5526337630179 2.53544635190736  11.4553600389722 2.49506857966196  11.355 2.5  L 10.355 2.5  C 10.0788576250846 2.5  9.855 2.2761423749154  9.855 2  C 9.855 1.72385762508461  10.0788576250846 1.5  10.355 1.5  L 11.355 1.5  C 11.7502427625505 1.49487173233167  12.1274376526512 1.6651587458237  12.385 1.965  Z " fill-rule="nonzero" fill="#aaaaaa" stroke="none" transform="matrix(1 0 0 1 116 88 )" />
  </g>
</svg>