<?xml version="1.0" encoding="utf-8"?>
<svg version="1.1" xmlns:xlink="http://www.w3.org/1999/xlink" width="3px" height="4px" xmlns="http://www.w3.org/2000/svg">
  <g transform="matrix(1 0 0 1 -148 -90 )">
    <path d="M 2.94845360824742 1.90781563126253  C 2.98281786941581 1.93453573814295  3 1.96526386105544  3 2  C 3 2.03473613894456  2.98281786941581 2.06546426185705  2.94845360824742 2.09218436873747  L 0.54639175257732 3.95991983967936  C 0.512027491408935 3.98663994655979  0.472508591065292 4  0.427835051546392 4  C 0.383161512027491 4  0.343642611683849 3.98663994655979  0.309278350515464 3.95991983967936  L 0.0515463917525773 3.75951903807615  C 0.0171821305841925 3.73279893119572  0 3.70207080828323  0 3.66733466933868  C 0 3.63259853039412  0.0171821305841925 3.60187040748163  0.0515463917525773 3.5751503006012  L 2.07731958762887 2  L 0.0515463917525773 0.424849699398798  C 0.0171821305841925 0.39812959251837  0 0.367401469605878  0 0.332665330661323  C 0 0.297929191716766  0.0171821305841925 0.267201068804275  0.0515463917525773 0.240480961923847  L 0.309278350515464 0.0400801603206413  C 0.343642611683849 0.0133600534402136  0.383161512027491 0  0.427835051546392 0  C 0.472508591065292 0  0.512027491408935 0.0133600534402136  0.54639175257732 0.0400801603206413  L 2.94845360824742 1.90781563126253  Z " fill-rule="nonzero" fill="#d7d7d7" stroke="none" transform="matrix(1 0 0 1 148 90 )" />
  </g>
</svg>