<?xml version="1.0" encoding="utf-8"?>
<svg version="1.1" xmlns:xlink="http://www.w3.org/1999/xlink" width="20px" height="20px" xmlns="http://www.w3.org/2000/svg">
  <g transform="matrix(1 0 0 1 -186 -49 )">
    <path d="M 11.0641373506434 0.445374511718752  L 11.065607433364 0.442597656249985  C 11.0362054342831 2.08788528645834  9.99684426700368 2.83069449869793  8.65023205422795 3.17502473958333  L 4.71477263327206 3.27776842447918  L 4.72947363281251 4.22884189453125  L 6.66118590303309 4.23300716145835  C 6.66118590303309 4.76755208333335  6.22015571001839 5.20074176432293  5.67327825137868 5.20074176432293  C 5.5919892820067 5.2012086260631  5.51096947782375 5.19187706986388  5.4321817555147 5.17297317708334  C 5.36308704044117 5.20074173177082  5.31457369025736 5.25905572916666  5.29693249080882 5.32986559244793  C 6.0569745289522 6.37118688151042  6.81701656709559 7.40973131510417  7.57852868795956 8.44688733723959  L 15.9139993910846 8.44688733723959  L 18.1955955882353 10.7377941731771  L 17.1430035386029 13.7284689453125  L 18.8247986787684 15.3348805989583  L 18.9071243106618 19.8542150065104  L 17.8001385110294 19.8750414388021  L 17.7560355124081 15.9971609375  L 16.3226873851103 15.6569959960938  L 14.1425281020221 19.9347438802083  L 13.0737649356618 19.8750414388021  L 15.2406933019302 15.1599386067708  L 14.071963269761 13.796501953125  L 8.17685966222426 13.7076425130208  L 8.00779808134191 13.9492290690104  L 9.67195202205883 19.9694545898438  L 8.52968382352941 19.9902809895833  L 7.24775604319853 15.6361695638021  L 7.03900174632353 15.6611612630208  L 5.24106865808823 19.9694545898438  L 4.02823562729779 19.9055868815104  L 6.22750619255515 14.16165859375  L 6.28631022518382 13.7076425130209  L 5.55714030330882 13.2355768554688  L 3.69011246553309 7.36391318359375  L 0.0354422564338197 4.99525436197915  L 0.00457014016543633 4.24272617187499  L 3.86652456341911 4.20523860677084  L 3.86652456341912 3.26943785807291  C 3.08224223707987 3.15148509507686  2.39194892618814 2.71516481825437  1.97744520909927 2.07538945312501  C 1.92216067646162 1.88369427930272  2.03799959863213 1.68517009496384  2.23912313878677 1.62692708333332  C 2.31159933890567 1.60749081497768  2.38869335905401 1.60991784211701  2.45963823529411 1.63386920572915  C 5.98640969669117 4.12332132161459  6.76703313419118 1.22705970052083  6.98166783088234 0.882729459635432  C 7.14726436439382 0.74200956103542  7.40134418539299 0.751238959016815  7.55500708869485 0.903555891927081  C 7.67996563648896 1.0562830078125  7.69319655330882 1.34924140625  6.95961631433824 2.34752141927083  C 6.92286379825367 2.40861227213543  6.94344519761029 2.4863642578125  7.00371934742647 2.52246337890625  C 7.01807983522766 2.53089994508798  7.03406935556498 2.53656290020744  7.05076254595588 2.53912451171876  C 8.5017518727022 2.69601692708332  10.5995855238971 2.39056266276041  10.5790041245404 0.437043945312515  C 10.5790041245404 0.437043945312515  10.9171272863051 0.189903678385406  11.0641373506434 0.445374511718752  Z " fill-rule="nonzero" fill="#c0ad52" stroke="none" transform="matrix(1 0 0 1 186 49 )" />
  </g>
</svg>