<?xml version="1.0" encoding="utf-8"?>
<svg version="1.1" xmlns:xlink="http://www.w3.org/1999/xlink" width="3px" height="11px" xmlns="http://www.w3.org/2000/svg">
  <g transform="matrix(1 0 0 1 -278 -170 )">
    <path d="M 1.333400390625 10.8875798483456  C 1.28274609375 10.8875798483456  1.234224609375 10.8651539522059  1.1985 10.8254773667279  C 1.16330859375 10.78580078125  1.144646484375 10.7323236443015  1.146779296875 10.6776964613971  C 1.146779296875 10.6753963694853  1.155310546875 10.4528624770221  1.15904296875 10.0882979090073  C 1.164375 9.59550321691176  1.161708984375 8.60531364889706  1.087060546875 7.51046989889705  C 0.971355468749999 5.82795266544117  0.635970703125 4.11553423713235  0.632771484375 4.09885857077205  C 0.597046875 3.94762752757352  0.561322265625003 3.79524643841911  0.528796875000002 3.64861557904411  C 0.209408203125 2.22313361672793  0.120896484375001 1.36462431066175  0.103300781250002 0.895405560661753  C 0.0862382812500002 0.438262293198515  0.131027343750002 0.259430147058813  0.140091796875002 0.227803883272046  C 0.157154296874999 0.169151539522046  0.198744140625001 0.121999655330868  0.252597656249999 0.100723805147046  C 0.27392578125 0.0920984604779274  0.295787109375003 0.0880732996323375  0.317648437500001 0.0880732996323375  C 0.3517734375 0.0880732996323375  0.385365234375001 0.0978486902573336  0.414691406250003 0.117399471507335  C 0.426421875000006 0.12544979319851  0.715951171875 0.316357421874987  1.091326171875 0.607319048713217  C 2.51551171875 1.71653837316175  3.04125000000001 2.57389763327204  2.653611328125 3.15639590992646  C 2.644013671875 3.17192153033087  2.630150390625 3.19147231158087  2.614154296875 3.21102309283087  C 2.380611328125 3.50140969669116  2.235580078125 3.96775333180146  2.193990234375 4.55945197610293  C 2.14653515625 5.22245346966911  2.2414453125 5.81702722886028  2.241978515625 5.8227774586397  C 2.243044921875 5.83082778033087  2.244111328125 5.83945312499999  2.24464453125 5.84807846966911  L 2.44939453125 10.6776964613971  C 2.45152734375 10.7323236443015  2.432865234375 10.78580078125  2.397673828125 10.8260523897059  C 2.362482421875 10.8657289751838  2.3139609375 10.8881548713235  2.2627734375 10.8881548713235  L 1.333400390625 10.8875798483456  Z " fill-rule="nonzero" fill="#c8947d" stroke="none" transform="matrix(1 0 0 1 278 170 )" />
  </g>
</svg>