<?xml version="1.0" encoding="utf-8"?>
<svg version="1.1" xmlns:xlink="http://www.w3.org/1999/xlink" width="4px" height="12px" xmlns="http://www.w3.org/2000/svg">
  <g transform="matrix(1 0 0 1 -278 -169 )">
    <path d="M 0.988209635416666 1.49602179276316  C 0.96984375 1.06216282894737  1.02020182291667 0.912865953947367  1.02020182291667 0.912865953947367  C 1.02020182291667 0.912865953947367  1.34367838541667 1.09976768092106  1.758984375 1.38264597039473  C 2.62869791666667 1.97758840460526  3.90364583333333 2.99516447368421  3.4474609375 3.59684210526316  C 3.43738932291667 3.61087376644737  3.42672526041666 3.62378289473684  3.41487630208333 3.63725328947369  C 3.07244140625 4.01105674342105  2.93854817708333 4.56053659539474  2.89826171875 5.06679893092106  C 2.8431640625 5.74593133223685  2.95454427083333 6.34817023026316  2.95454427083333 6.34817023026316  L 3.152421875 10.4487828947369  L 3.18204427083333 11.0622471217105  L 2.14822265625 11.0622471217105  C 2.14822265625 11.0622471217105  2.15829427083333 10.8444757401316  2.16184895833333 10.4802138157895  C 2.16895833333333 9.90772203947369  2.1606640625 8.9726521381579  2.08068359375 7.9472183388158  C 1.94975260416667 6.27127672697369  1.57177083333333 4.59028371710527  1.57177083333333 4.59028371710527  C 1.53029947916667 4.43649671052632  1.49060546875 4.28832236842105  1.45565104166667 4.14632195723685  C 1.11143880208333 2.7964761513158  1.0089453125 1.97365953947369  0.988209635416666 1.49602179276316  Z M 1.02020182291667 0.520540707236838  C 0.971621093749998 0.520540707236838  0.922447916666665 0.528398437499995  0.875644531249999 0.545236430921054  C 0.756562500000001 0.587331414473685  0.664140625000002 0.678817845394739  0.625631510416663 0.793877467105263  C 0.603710937499997 0.858423108552628  0.555130208333329 1.05879523026316  0.575273437499997 1.51285978618421  C 0.60489583333333 2.19143092105263  0.766041666666666 3.1091015625  1.05397135416666 4.2394921875  C 1.08892578124999 4.37924753289473  1.12802734375 4.52629934210526  1.16949869791666 4.68008634868421  C 1.19615885416666 4.80075863486842  1.545703125 6.40317434210526  1.66893229166666 7.97696546052631  C 1.75187499999999 9.03944284539473  1.75424479166666 9.99920847039474  1.74891276041666 10.4762849506579  C 1.74535807291666 10.8293215460526  1.73587890624999 11.0437253289474  1.73587890624999 11.0459703947368  C 1.73113932291666 11.1526110197368  1.77261067708333 11.2570065789474  1.85081380208333 11.3344613486842  C 1.92901692708333 11.411916118421  2.03684244791666 11.4556949013158  2.15 11.4556949013158  L 3.18382161458333 11.4556949013158  C 3.29697916666666 11.4556949013158  3.40539713541666 11.411916118421  3.48360026041666 11.3344613486842  C 3.56180338541666 11.2570065789474  3.60268229166666 11.1526110197368  3.59794270833333 11.0454091282895  L 3.5683203125 10.4319449013158  L 3.37044270833333 6.33133223684211  C 3.36985026041666 6.31449424342106  3.36807291666666 6.29821751644737  3.36451822916666 6.28137952302632  C 3.36333333333333 6.276328125  3.26261718749999 5.71562294407895  3.31297526041666 5.09766858552632  C 3.35563151041666 4.56165912828948  3.50018880208333 4.14632195723684  3.72946614583333 3.89543585526316  C 3.7531640625 3.86905633223685  3.77212239583333 3.84548314144737  3.78930338541666 3.8219099506579  C 4.01265625 3.52387746710528  4.12640625 3.00638980263159  3.41487630208333 2.23128083881579  C 3.08902994791666 1.87599917763158  2.61388671875 1.48367393092106  2.00307291666666 1.06609169407896  C 1.57947265625 0.777039473684217  1.25125651041666 0.58733141447369  1.23763020833333 0.578912417763167  C 1.17009114583333 0.539623766447366  1.09485026041666 0.520540707236838  1.02020182291667 0.520540707236838  Z " fill-rule="nonzero" fill="#33100b" stroke="none" transform="matrix(1 0 0 1 278 169 )" />
  </g>
</svg>