<?xml version="1.0" encoding="utf-8"?>
<svg version="1.1" xmlns:xlink="http://www.w3.org/1999/xlink" width="5px" height="9px" xmlns="http://www.w3.org/2000/svg">
  <g transform="matrix(1 0 0 1 -283 -172 )">
    <path d="M 0.968994140625001 8.73691824776786  C 0.900439453124997 8.73691824776786  0.835693359374997 8.70835379464286  0.793798828124999 8.65979422433036  C 0.751904296875 8.61123465401786  0.7373046875 8.54782156808036  0.753808593749997 8.48783621651786  C 1.092138671875 7.28413016183036  1.938916015625 4.02092703683036  1.801171875 3.38279715401786  C 1.654541015625 2.70124930245536  0.729687500000001 2.53271902901786  0.720800781250003 2.53100516183036  C 0.616064453125002 2.51272391183036  0.541162109374998 2.43045828683036  0.541162109374998 2.33505301339286  C 0.539892578124999 1.77290457589286  0.895361328125003 1.22675223214286  1.541552734375 0.794857700892859  C 1.952880859375 0.518353794642857  2.461962890625 0.310404575892859  2.93740234375 0.224139927455361  C 3.09990234374999 0.195004185267859  3.254150390625 0.180150669642861  3.396337890625 0.180150669642861  C 3.51630859375 0.180150669642861  3.62802734375 0.19043387276786  3.730224609375 0.211000279017856  C 3.759423828125 0.21557059151786  3.787353515625 0.222426060267859  3.815283203125 0.23099539620536  C 4.065380859375 0.295551060267861  4.254541015625 0.433803013392857  4.35166015625001 0.628041294642863  C 4.48623046875 0.895404575892861  4.44052734375 1.24788992745536  4.216455078125 1.67635672433036  C 4.187255859375 1.73177176339286  4.15615234375 1.78832938058037  4.119970703125 1.84831473214286  C 2.71396484375001 4.17974539620537  2.36484375000001 8.50783133370537  2.361669921875 8.55067801339287  C 2.354052734375 8.65522391183037  2.25693359375001 8.73691824776787  2.14013671875 8.73691824776787  L 0.968994140625001 8.73691824776786  Z " fill-rule="nonzero" fill="#c8947d" stroke="none" transform="matrix(1 0 0 1 283 172 )" />
  </g>
</svg>