<?xml version="1.0" encoding="utf-8"?>
<svg version="1.1" xmlns:xlink="http://www.w3.org/1999/xlink" width="5px" height="10px" xmlns="http://www.w3.org/2000/svg">
  <g transform="matrix(1 0 0 1 -283 -171 )">
    <path d="M 2.9818359375 1.10231770833335  C 3.125927734375 1.07565755208333  3.265576171875 1.06143880208333  3.395703125 1.06143880208333  C 3.499169921875 1.06143880208333  3.596923828125 1.07091796875  3.68642578125 1.08987630208334  C 3.70673828125001 1.09283854166667  3.72578125 1.097578125  3.74482421875 1.10350260416667  C 4.182177734375 1.22080729166667  4.378955078125 1.59760416666667  4.015234375 2.31742838541667  C 3.987939453125 2.37193359375001  3.95810546875 2.42703125000001  3.924462890625 2.48509114583334  C 2.47910156250001 4.96981770833334  2.14013671875 9.52041015625001  2.14013671875 9.52041015625001  L 0.969628906249998 9.52041015625001  C 0.969628906249998 9.52041015625001  2.197265625 4.98818359375001  2.020166015625 4.13624348958334  C 1.843701171875 3.28430338541668  0.763964843749996 3.08879557291668  0.763964843749996 3.08879557291668  L 0.763964843749996 3.08761067708335  C 0.762695312500001 2.51826822916668  1.15498046874999 2.01764973958335  1.674853515625 1.65744140625002  C 2.07539062499999 1.37839843750001  2.552099609375 1.18289062500001  2.9818359375 1.10231770833335  Z M 3.395703125 0.647317708333337  C 3.238916015625 0.647317708333337  3.070068359375 0.663906250000001  2.89423828125 0.69649088541667  C 2.38642578125 0.791875000000005  1.84560546875 1.02115234375001  1.408251953125 1.32626302083334  C 0.704931640625003 1.81325520833334  0.317724609375009 2.43947265625  0.318994140625003 3.08879557291667  C 0.319628906250006 3.28667317708334  0.470068359375005 3.457890625  0.678271484375002 3.49580729166667  C 0.683984375000003 3.4969921875  1.466650390625 3.6533984375  1.5828125 4.2150390625  C 1.6919921875 4.74054036458334  1.037548828125 7.57421875000001  0.537988281250001 9.4191015625  C 0.504345703125004 9.54292317708334  0.534179687500002 9.67444661458333  0.617968749999999 9.77516276041667  C 0.701757812500006 9.87587890625001  0.83125 9.93453125000001  0.968359374999999 9.93453125000001  L 2.1388671875 9.93453125000001  C 2.371826171875 9.93453125000001  2.5654296875 9.76627604166668  2.58193359375 9.54884765625001  C 2.585107421875 9.50441406250001  2.931689453125 5.05868489583334  4.31357421875 2.68237630208335  C 4.34912109375 2.62194661458335  4.38212890625001 2.56033203125001  4.415771484375 2.49457031250001  C 4.669677734375 1.99217447916668  4.71538085937501 1.56798177083335  4.552880859375 1.23324869791668  C 4.428466796875 0.977311197916677  4.19423828125 0.796022135416682  3.874951171875 0.707747395833347  C 3.83940429687501 0.697083333333353  3.80576171875 0.689381510416685  3.77275390625 0.683457031250015  C 3.6572265625 0.659166666666664  3.529638671875 0.647317708333337  3.395703125 0.647317708333337  Z " fill-rule="nonzero" fill="#33100b" stroke="none" transform="matrix(1 0 0 1 283 171 )" />
  </g>
</svg>