<?xml version="1.0" encoding="utf-8"?>
<svg version="1.1" xmlns:xlink="http://www.w3.org/1999/xlink" width="10px" height="10px" xmlns="http://www.w3.org/2000/svg">
  <g transform="matrix(1 0 0 1 -278 -165 )">
    <path d="M 4.54000854492189 9.82876302083335  C 4.34672241210937 9.85364583333334  4.14510498046875 9.86608723958333  3.94348754882813 9.86608723958333  C 3.89461059570313 9.86608723958333  3.84517822265625 9.86549479166667  3.79574584960938 9.86371744791666  C 3.67633056640625 9.86016276041667  3.57135620117188 9.85068359375  3.47138061523438 9.8346875  C 3.16756591796875 9.7884765625  2.88096923828125 9.68479817708333  2.62047729492187 9.52779947916667  C 1.39188842773438 8.79494140625  0.916448974609376 6.99152994791667  0.733715820312502 5.6081640625  C 0.58764038085938 4.49317708333334  0.618743896484379 3.59680338541667  0.619854736328129 3.55947916666667  C 0.620410156250002 3.54822265625  0.621520996093752 3.53755859375  0.623187255859379 3.52689453125  L 1.22526245117188 0.321751302083337  C 1.24248046875 0.229329427083338  1.31635131835937 0.161197916666666  1.40410766601563 0.155273437500005  C 1.40410766601563 0.155273437500005  2.99649658203125 0.0575195312500085  2.9998291015625 0.0575195312500085  C 3.03870849609375 0.0575195312500085  3.07647705078125 0.0699609375000089  3.10924682617188 0.0930664062500076  L 8.03415527343751 3.67619140625001  C 8.06137084960938 3.69633463541668  8.08358764648438 3.72299479166667  8.098583984375 3.75439453125001  L 9.40104370117188 6.53179036458335  C 9.43436889648438 6.60288411458335  9.42659301757813 6.68760416666668  9.38215942382813 6.75040364583335  C 9.37716064453126 6.75692057291668  9.26107788085938 6.91865885416668  9.04557495117188 7.16689453125001  C 9.03002319335938 7.18585286458335  9.01002807617188 7.20836588541668  8.99058837890626 7.23087890625002  C 8.54458618164063 7.73505208333335  7.61148071289063 8.67111979166668  6.37233886718751 9.27482421875002  C 5.94799804687501 9.48158854166669  5.51699218750001 9.63562500000002  5.09154052734376 9.73278645833335  C 4.90603027343751 9.77485026041669  4.72107543945314 9.80684244791668  4.54000854492189 9.82876302083335  Z " fill-rule="nonzero" fill="#ffffff" stroke="none" transform="matrix(1 0 0 1 278 165 )" />
  </g>
</svg>