<?xml version="1.0" encoding="utf-8"?>
<svg version="1.1" xmlns:xlink="http://www.w3.org/1999/xlink" width="10px" height="11px" xmlns="http://www.w3.org/2000/svg">
  <g transform="matrix(1 0 0 1 -278 -164 )">
    <path d="M 1.41577148437499 1.00017348345587  L 3.00093994140625 0.904719669117648  L 3.4530517578125 1.22328239889706  L 3.64800415039062 1.36128791360294  L 7.92584838867187 4.38245863970588  L 8.97614746093749 6.55604549632352  L 9.05112915039062 6.7107266773897  L 9.05223999023437 6.7136017922794  L 9.22886352539062 7.07816636029411  C 9.22886352539062 7.07816636029411  9.11611328124999 7.23112247242646  8.90449829101561 7.46745691636029  C 8.88783569335937 7.48643267463235  8.86950683593749 7.50770852481617  8.85062255859374 7.52783432904411  C 8.37629394531249 8.04880514705881  7.47929077148436 8.90616440716911  6.29235839843749 9.46681181066176  C 5.9080078125 9.64851907169117  5.4925537109375 9.7997501148897  5.05155029296874 9.8975040211397  C 4.87770385742186 9.93603056066176  4.70052490234374 9.96650677849265  4.51890258789061 9.98778262867647  C 4.33061523437499 10.0102085248162  4.13843994140624 10.021708984375  3.94293212890624 10.021708984375  C 3.89572143554686 10.021708984375  3.84851074218749 10.0211339613971  3.80074462890624 10.0199839154412  L 3.78852539062499 10.0199839154412  C 3.68854980468749 10.0171088005515  3.59246215820312 10.0084834558824  3.49970703124999 9.99410788143382  C 3.20811157226561 9.95098115808823  2.94761962890624 9.85610236672794  2.71600952148436 9.72039694393382  C 1.56740112304686 9.05509535845588  1.10806884765624 7.40305434283088  0.925891113281234 6.06325080422794  C 0.780926513671858 4.98680778952205  0.814251708984362 4.1104727711397  0.814251708984362 4.1104727711397  L 1.41577148437499 1.00017348345587  Z M 3.00093994140625 0.502778607536764  C 2.9931640625 0.502778607536764  2.98594360351562 0.503353630514707  2.97816772460937 0.503353630514707  L 1.3935546875 0.598232421874997  C 1.21748657226562 0.608582835477937  1.06974487304687 0.741413143382353  1.03475341796875 0.920820312499999  L 0.433233642578124 4.03111960018382  C 0.429345703124997 4.05182042738971  0.426568603515625 4.07309627757353  0.426013183593748 4.09437212775736  C 0.424902343749998 4.13174862132353  0.393243408203126 5.01843405330883  0.541540527343747 6.1184530101103  C 0.730383300781248 7.5065584788603  1.22803955078125 9.31845588235294  2.526611328125 10.0711609604779  C 2.80654296875 10.2350425091912  3.11646728515625 10.3431468290441  3.44527587890625 10.3920237821691  C 3.54969482421875 10.4081244255515  3.66300048828125 10.4184748391544  3.77797241210938 10.4219249770221  C 3.78130493164062 10.4219249770221  3.78519287109375 10.4219249770221  3.788525390625 10.4219249770221  L 3.79519042968751 10.4219249770221  C 3.84462280273438 10.4230750229779  3.89349975585938 10.4236500459559  3.94237670898438 10.4236500459559  C 4.15177001953125 10.4236500459559  4.36060791015625 10.4115745634191  4.56278076171875 10.3874235983456  C 4.748291015625 10.3661477481618  4.94046630859375 10.3333714384191  5.13208618164062 10.2913947610294  C 5.57142333984375 10.1942158777574  6.01575927734375 10.0401097196691  6.45343017578125 9.8331014476103  C 7.72256469726563 9.23335248161765  8.67733154296875 8.30469037224265  9.13277587890625 7.80442038143383  C 9.15277099609375 7.78314453125001  9.173876953125 7.75899356617648  9.19220581054688 7.73714269301472  C 9.40993041992187 7.4939079733456  9.5315673828125 7.32945140165442  9.53712158203125 7.32197610294119  C 9.62709960937501 7.19949620863972  9.64209594726563 7.03561465992648  9.57544555664063 6.89818416819854  L 9.40493164062501 6.54627010569854  C 9.40270996093751 6.54109489889706  9.40048828125 6.5359196920956  9.3982666015625 6.53074448529413  L 9.32328491210938 6.37606330422795  L 8.27298583984375 4.2024764476103  C 8.24354858398438 4.1409489889706  8.19911499023437 4.08862189797795  8.14468383789063 4.05009535845589  L 3.86683959960938 1.03007467830883  L 3.67188720703126 0.892069163602954  L 3.21921997070314 0.573506433823542  C 3.1553466796875 0.526929572610294  3.07925415039063 0.502778607536764  3.00093994140625 0.502778607536764  Z " fill-rule="nonzero" fill="#33100b" stroke="none" transform="matrix(1 0 0 1 278 164 )" />
  </g>
</svg>