<?xml version="1.0" encoding="utf-8"?>
<svg version="1.1" xmlns:xlink="http://www.w3.org/1999/xlink" width="4px" height="16px" xmlns="http://www.w3.org/2000/svg">
  <g transform="matrix(1 0 0 1 -278 -165 )">
    <path d="M 3.39871744791667 9.78729166666668  L 2.44428385416667 9.65873046875  L 2.54618489583333 15.7982682291667  L 1.97802734375 15.7982682291667  C 1.97802734375 15.7982682291667  1.97921223958334 15.7556119791667  1.97921223958334 15.67681640625  C 1.98987630208334 14.846796875  2.02838541666667 10.0076822916667  1.59767578125 9.33703125  C 1.42645833333334 9.06983723958334  1.11542317708334 8.71792317708333  0.790169270833336 8.377265625  C 0.445957031250003 6.95242838541667  0.34346354166667 6.08389973958333  0.322727864583338 5.5797265625  C 0.168098958333336 4.4706640625  0.203645833333335 3.56777343749999  0.203645833333335 3.56777343749999  L 0.845266927083335 0.363222656249993  L 2.53552083333334 0.265468749999992  L 3.22572265625 0.735872395833331  C 2.64097656250001 0.897610677083331  1.73867838541667 1.1719140625  1.59767578125 1.36090494791666  C 1.38676432291667 1.64527994791666  1.14623046875 1.95276041666666  1.06506510416667 2.14234375  C 0.983899739583336 2.33133463541667  0.700117187499998 3.51504557291666  0.889700520833335 4.60396484375  C 0.932356770833337 4.8474609375  0.998118489583334 5.14427734375  1.09291015625 5.46005208333333  C 1.371953125 6.39493489583333  1.89745442708334 7.48563151041667  2.78138671875 7.79725911458334  C 2.92890625 7.84939453125  3.08827473958334 7.87901692708333  3.25652994791667 7.88316406250001  L 3.38864583333334 9.65695312500001  L 3.39871744791667 9.78729166666668  Z " fill-rule="nonzero" fill="#33100b" stroke="none" transform="matrix(1 0 0 1 278 165 )" />
  </g>
</svg>