<?xml version="1.0" encoding="utf-8"?>
<svg version="1.1" xmlns:xlink="http://www.w3.org/1999/xlink" width="11px" height="19px" xmlns="http://www.w3.org/2000/svg">
  <g transform="matrix(1 0 0 1 -279 -163 )">
    <path d="M 2.55953469669118 18.7827949892242  L 2.52560834099265 18.7827949892241  C 1.97588637408088 18.7827949892241  1.8867578125 18.4346194773707  1.87410730698529 18.2855677532328  C 1.85973173253676 18.1207957300647  1.87525735294117 17.7446730199353  1.89653320312499 17.2247386853448  C 1.94368508731617 16.0928771551724  2.02188821231617 14.1994544719828  1.78267865349264 13.499027815194  C 1.66422392003676 13.1525990032328  1.56589499080882 12.4993332435345  1.49056698069852 11.5578620016164  L 1.48194163602941 11.4460732085129  C 1.44226505055147 10.9418591729526  1.41006376378676 10.3503101427802  1.38476275275735 9.68772865032327  C 1.36808708639705 9.23475114493534  1.36003676470588 8.88017106681034  1.35716164981617 8.73868837553879  C 1.10415153952206 8.38469053071121  -0.0361190257353009 6.51281047952586  1.03457375919117 2.81330010775863  L 1.04952435661764 2.76206357758621  C 1.06217486213235 2.71548491379311  1.09092601102941 2.67589304956897  1.13060259650735 2.64852808459052  L 3.08970588235294 1.30473363415948  C 3.12363223805147 1.28144430226293  3.16273380055146 1.26979963631465  3.20241038602941 1.26979963631465  C 3.23001148897059 1.26979963631465  3.2581876148897 1.27562196928879  3.28406364889705 1.28784886853448  C 3.34731617647058 1.31637830010775  3.39216796874999 1.37634832974137  3.40136833639705 1.44563409213362  C 3.40366842830881 1.45786099137931  3.73258157169117 3.02232186153017  8.30056410845588 3.02232186153017  C 8.44316980698529 3.02232186153017  8.58922564338235 3.02115739493534  8.73930664062499 3.01766399515086  C 8.96529067095588 2.84299400592672  9.89682789522058 2.03077855603448  9.24302676930146 0.95306472252155  C 9.19529986213235 0.874463227370684  9.20565027573529 0.773154633620691  9.26832778033088 0.706197804418099  C 9.30742934283088 0.664859240301724  9.36033145680147 0.642734374999999  9.41380859374999 0.642734374999999  C 9.44658490349265 0.642734374999999  9.47993623621323 0.65088564116379  9.51041245404411 0.66777040678879  C 9.52536305147058 0.675921672952582  10.9864964384191 1.49803508890086  10.9985719209559 2.5972915544181  C 11.0043221507353 3.13702182112069  10.6702338005515 3.63017342403018  10.0043571920956 4.06568393049569  C 10.3125695082721 4.49129647090517  10.9807462086397 5.57599710398708  10.7679877068015 6.73464136584052  C 10.6690837545956 7.27204269935345  10.528203125 7.75063846982759  10.4039981617647 8.17275761045259  C 10.2493169806985 8.69734981142242  10.1136115579044 9.15789634967673  10.1642135799632 9.4309637661638  C 10.3194697840073 9.45541756465518  10.5563792509191 9.52586779364225  10.7012850413603 9.72848498114225  C 10.8341153492647 9.91421740301725  10.8542411534926 10.1546797548492  10.7610874310662 10.442885237069  C 10.7242859604779 10.5546740301724  10.6616084558823 10.7270150862069  10.5816802619485 10.9459348060345  C 10.1026861213235 12.2547952586207  8.98081629136029 15.3202535695043  9.19990004595588 17.2765574488147  C 9.20622529871323 17.3353630118535  9.18724954044117 17.3947508081897  9.14757295496323 17.4378360721983  C 9.10962143841912 17.4797568696121  9.05614430147058 17.5030462015086  9.00036707261029 17.5030462015086  C 8.99806698069853 17.5030462015086  8.99519186580882 17.5030462015086  8.99289177389706 17.5030462015086  C 8.75310719209559 17.49373046875  7.9601505055147 17.4320137392241  7.81696978400735 17.0122235317888  C 7.67723920036765 16.6040779903017  8.18038430606618 13.2480852640086  8.77553308823529 11.9898791082974  C 8.73010627297794 11.9363136449354  8.71400562959558 11.8600410829741  8.73815659466911 11.7901730872845  C 8.78300838694852 11.6591705953664  8.82153492647059 11.4227838766164  8.74218175551471 11.3098306169181  C 8.69905503216912 11.2481138873923  8.6093514476103 11.2166732893319  8.47537109375 11.2166732893319  C 8.07573012408088 11.2166732893319  7.61858685661765 10.8195901804957  7.33797564338235 10.2280411503233  C 7.14994312959559 9.83678037446122  7.05851447610294 9.39078966864225  7.07346507352941 8.94014109644398  C 7.07346507352941 8.91743399784484  7.07461511948529 8.88715786637932  7.07691521139706 8.8568817349138  C 7.08209041819853 8.75557314116381  7.09359087775735 8.65251784752157  7.11084156709559 8.54946255387932  C 6.62897231158088 8.9494568292026  5.67673426011029 9.60563375538795  4.62099207261029 9.60563375538795  C 4.40248334099265 9.60563375538795  4.18799977022059 9.57710432381467  3.98214154411765 9.52004546066812  C 3.84126091452206 9.96137830010777  3.646328125 10.6257064924569  3.48532169117647 11.3762052128233  C 3.2777383961397 12.3427124865302  3.18343462775735 13.1892797009698  3.20586052389706 13.8914530576509  C 3.27141314338235 16.0480451912716  3.21506089154411 18.4811981411638  3.21448586856618 18.5050697063578  C 3.21218577665441 18.5918224676724  3.15640854779411 18.6675127963362  3.07475528492647 18.6942955280173  C 3.06440487132353 18.6977889278017  2.81599494485294 18.77697265625  2.55953469669118 18.7827949892242  Z " fill-rule="nonzero" fill="#c8947d" stroke="none" transform="matrix(1 0 0 1 279 163 )" />
  </g>
</svg>