<?xml version="1.0" encoding="utf-8"?>
<svg version="1.1" xmlns:xlink="http://www.w3.org/1999/xlink" width="12px" height="19px" xmlns="http://www.w3.org/2000/svg">
  <g transform="matrix(1 0 0 1 -279 -163 )">
    <path d="M 9.07404296874999 3.21853448275863  C 9.07463541666667 3.21911671605603  10.5628645833333 2.22466224407328  9.70085286458334 0.845351562499999  C 9.76424479166667 0.879121093749998  12.66783203125 2.50180529364224  10.0030013020833 4.01037176724138  C 10.0030013020833 4.01037176724138  11.15353515625 5.31748551993535  10.892265625 6.69679620150862  C 10.6369205729167 8.04466628502155  10.09068359375 9.05484105603448  10.3033723958333 9.58467335668104  C 10.309296875 9.59631802262932  10.3140364583333 9.60912715517241  10.3199609375 9.62077182112069  C 10.3365494791667 9.62077182112069  11.14287109375 9.62426522090517  10.8916731770833 10.3788395743534  C 10.636328125 11.1398184940733  9.00354166666666 14.9627623248922  9.27429036458333 17.2992645474138  C 9.27429036458333 17.2992645474138  8.36369791666667 17.2660772494612  8.25054036458334 16.9452667025862  C 8.1373828125 16.6232916891164  8.68539713541667 12.8626468211207  9.3459765625 11.8681923491379  C 9.56755208333334 11.5345726697198  9.62442708333334 11.4239483432112  9.60072916666666 11.4239483432112  C 9.55688802083333 11.4239483432112  9.2251171875 11.8256893184267  9.19845703125 11.8565476831896  C 9.214453125 11.8117157192888  9.49468098958334 11.0123094019396  8.73220052083333 11.0123094019396  C 8.42708984375 11.0123094019396  8.01000651041666 10.6781074892241  7.74695963541667 10.1395416891164  C 7.58344401041667 9.80883317618534  7.47858072916667 9.40068763469827  7.49457682291666 8.94654566271551  C 7.49457682291666 8.92209186422413  7.49576171875 8.89705583243533  7.4975390625 8.87201980064655  C 7.51116536458333 8.63039298221982  7.56093098958334 8.37595703124999  7.65216796875 8.11278758081896  C 7.65216796875 8.10987641433189  7.65335286458333 8.10812971443965  7.65394531249999 8.10521854795258  C 7.79672526041666 7.69823747306034  8.04318359375 7.27204269935345  8.42945963541667 6.84235452586206  C 8.50470052083333 6.75676623114223  8.58586588541667 6.67292463631465  8.67295572916666 6.58733634159482  C 8.67295572916666 6.58733634159482  7.90573567708333 7.09504377693965  7.57455729166667 7.94801555765085  C 7.55382161458333 7.99925208782327  7.53604817708333 8.05165308459051  7.51945963541667 8.10580078125  C 7.51945963541667 8.10580078125  6.22377604166667 9.40126986799569  4.76102213541667 9.40126986799569  C 4.52996744791667 9.40126986799569  4.294765625 9.36866480334051  4.06015625 9.29413894127155  L 4.09392578125 8.91918069773706  C 4.09392578125 8.91918069773706  4.02579427083334 9.09734408674568  3.92567057291667 9.39894093480603  C 3.77992838541666 9.83794484105602  3.56486979166667 10.5395359644397  3.38891276041667 11.3325377155172  C 3.20762369791667 12.1523221982759  3.06899088541667 13.069921875  3.09565104166667 13.8978576239224  C 3.16378255208333 16.0736634563578  3.10453776041667 18.5004118399784  3.10453776041667 18.5004118399784  C 3.10453776041667 18.5004118399784  2.86992838541666 18.57435546875  2.63235677083333 18.5790133351293  C 2.62228515625 18.5795955684267  2.61221354166666 18.5795955684267  2.60214192708333 18.5795955684267  C 2.3787890625 18.5795955684267  2.15899088541666 18.5149676724138  2.1370703125 18.2681007543103  C 2.08967447916667 17.7464197198276  2.39833984374999 14.4731041217672  2.03220703125 13.4320709859914  C 1.89890625 13.0542015759698  1.806484375 12.3217520878233  1.74190755208333 11.5409772359914  C 1.7389453125 11.5042965382543  1.73598307291666 11.4670336072198  1.73302083333333 11.4297706761853  C 1.68384765625 10.8166790140086  1.65304036458333 10.1832091864224  1.63348958333333 9.67957738415948  C 1.6109765625 9.08569942079741  1.6038671875 8.66765591325431  1.6038671875 8.66765591325431  C 1.6038671875 8.66765591325431  0.0741666666666655 6.8604037580819  1.26439453125 2.87035897090518  C 1.26913411458333 2.85289197198277  1.27505859375 2.83426050646552  1.280390625 2.81679350754311  L 1.68266276041667 2.54896619073276  L 3.29886067708333 1.47241682381466  C 3.29886067708333 1.47241682381466  3.5447265625 3.22493904903018  8.55209635416666 3.22493904903018  C 8.72035156249999 3.22493904903018  8.89453124999999 3.22319234913794  9.07404296874999 3.21853448275863  Z M 9.70085286458334 0.43837048760776  C 9.59006510416667 0.43837048760776  9.48046223958333 0.482037984913794  9.40048177083333 0.565297346443965  C 9.271328125 0.699211004849139  9.24940755208334 0.901828192349135  9.34775390625 1.05903118265086  C 9.89221354166667 1.9300521955819  9.20615885416666 2.59670932112068  8.93304036458333 2.81504680765086  C 8.80447916666667 2.81737574084051  8.67710286458333 2.81854020743534  8.55328125 2.81854020743534  C 4.26040364583333 2.81854020743534  3.74556640625 1.52015995420258  3.71001953125 1.40837116109913  C 3.69935546875 1.26630623653016  3.61404296875 1.15509967672413  3.48251953125 1.09105401400861  C 3.43156901041667 1.06601798221982  3.37706380208333 1.05495554956895  3.32196614583333 1.05495554956895  C 3.23309895833333 1.05495554956895  3.14363932291667 1.08523168103447  3.06721354166667 1.13588597790947  L 1.451015625 2.21243534482757  L 1.04874348958333 2.47968042834051  C 0.967578124999998 2.53382812499998  0.907740885416667 2.61475855334051  0.881673177083333 2.70791588092671  L 0.875748697916668 2.72771181303878  L 0.865677083333329 2.76148134428879  C -0.21139322916667 6.3713277882543  0.854420572916666 8.30958243534482  1.19211588541666 8.80331627155171  C 1.19567057291666 8.97274616109912  1.20396484375 9.29588564116379  1.21936848958333 9.69529768318965  C 1.24602864583333 10.3712705414871  1.27861328125 10.949428205819  1.32008463541666 11.4623757408405  L 1.32837890624999 11.5706711341595  C 1.40835937499999 12.546494140625  1.51026041666666 13.1974309671336  1.64000651041666 13.5659846443965  C 1.87343098958333 14.2303128367457  1.79345052083333 16.0998639547414  1.7460546875 17.216587419181  C 1.72057942708333 17.814541015625  1.70813802083333 18.1341870959052  1.72354166666666 18.3047814520474  C 1.75257161458333 18.6343254983836  1.99843749999999 18.9871588766164  2.60095703124999 18.9871588766164  C 2.61458333333333 18.9871588766164  2.62820963541666 18.986576643319  2.6418359375 18.986576643319  C 2.92917317708333 18.9807543103448  3.19992187499999 18.8980771821121  3.22954427083333 18.8887614493535  C 3.39779947916666 18.8363604525862  3.51332682291666 18.6843975619612  3.51747395833333 18.5108920393319  C 3.51806640625 18.4864382408405  3.57612630208333 16.0480451912716  3.50858723958333 13.8862129579741  C 3.48666666666666 13.1997599003233  3.58145833333333 12.3700774515086  3.79236979166666 11.4198727101293  C 3.93574218749999 10.7730115167026  4.10518229166666 10.189613752694  4.2414453125 9.76109004579742  C 4.41088541666666 9.79369511045259  4.58388020833333 9.80941540948277  4.75983723958333 9.80941540948277  C 5.67398437499999 9.80941540948277  6.51229817708333 9.37506936961208  7.0780859375 8.98730199353449  C 7.07038411458333 9.45308863146553  7.17169270833333 9.91188846982759  7.373125 10.3188695447198  C 7.69482421874999 10.9773754040948  8.24046874999999 11.4210371767241  8.73101562499999 11.4210371767241  C 8.78966796875 11.4210371767241  8.82402994791666 11.4291884428879  8.83884114583333 11.4344285425647  C 8.85483723958333 11.4810072063578  8.84535807291666 11.6131741648707  8.8056640625 11.7243807246767  C 8.773671875 11.8157913523707  8.77604166666667 11.911859846444  8.80803385416667 11.9980303744612  C 8.47685546875 12.7275686961207  8.22802734375 13.8908708243535  8.09828124999999 14.5878040813578  C 8.05858723958333 14.8003192349138  7.71555989583333 16.6797683189655  7.85715494791666 17.0803448275862  C 8.03548177083333 17.5886344962285  8.81040364583333 17.6916897898707  9.25710937499999 17.7079923221983  C 9.26244140625 17.7079923221983  9.26718098958332 17.7085745554957  9.27251302083332 17.7085745554957  C 9.38804036458333 17.7085745554957  9.49764322916666 17.6614136584052  9.57643880208333 17.578154296875  C 9.65819661458333 17.4908193022629  9.69789062499999 17.3732081761854  9.68426432291666 17.2555970501078  C 9.46387369791666 15.3470363011854  10.607890625 12.3136008216595  11.0960677083333 11.0187139682112  C 11.1790104166667 10.7980475484914  11.2447721354167 10.6239597925647  11.28328125 10.5086775996767  C 11.43080078125 10.0673447602371  11.3152734375 9.7768103448276  11.1932291666667 9.61087385506467  C 11.0492643229167 9.41524346713364  10.8448697916667 9.31684603987071  10.6683203125 9.26677397629312  C 10.6795768229167 9.01874259159485  10.8004361979167 8.62049501616381  10.9183333333333 8.23272764008622  C 11.0480794270833 7.80595063308191  11.1950065104167 7.32211476293105  11.2986848958333 6.77423323006468  C 11.5066341145833 5.67730569773709  10.9574348958333 4.65082839439657  10.5978190104167 4.1204138604526  C 11.2299609375 3.67209422144398  11.546328125 3.16089338631467  11.5398111979167 2.59729155441812  C 11.5261848958333 1.37984172952589  9.96508463541665 0.526869948814675  9.89873046874999 0.49077148437502  C 9.83711588541667 0.454673019935343  9.768984375 0.43837048760776  9.70085286458334 0.43837048760776  Z " fill-rule="nonzero" fill="#33100b" stroke="none" transform="matrix(1 0 0 1 279 163 )" />
  </g>
</svg>