<?xml version="1.0" encoding="utf-8"?>
<svg version="1.1" xmlns:xlink="http://www.w3.org/1999/xlink" width="7px" height="3px" xmlns="http://www.w3.org/2000/svg">
  <g transform="matrix(1 0 0 1 -277 -163 )">
    <path d="M 1.88380664062499 2.724087890625  C 1.8079140625 2.737951171875  1.729533203125 2.7448828125  1.652396484375 2.7448828125  C 1.12363671875 2.7448828125  0.66081640625 2.423361328125  0.5519541015625 1.98026953125  L 0.533291992187498 1.902421875  C 0.471707031250001 1.65181640624999  0.527693359375002 1.39374609375  0.692541992187503 1.177798828125  C 0.856768554687501 0.961851562499999  1.10870703125 0.813621093749997  1.4017021484375 0.760833984374995  L 5.1216826171875 0.0873984374999978  C 5.1975751953125 0.0735351562499957  5.275333984375 0.066603515624999  5.352470703125 0.066603515624999  C 5.6355126953125 0.066603515624999  5.9067353515625 0.158314453124997  6.1169951171875 0.324673828124996  C 6.28993066406249 0.460107421874996  6.4062578125 0.636064453124993  6.45353515624999 0.832283203124996  L 6.47281933593749 0.907998046874992  C 6.60096582031249 1.42840429687499  6.21154980468749 1.94081249999999  5.60440917968749 2.051185546875  L 1.88380664062499 2.724087890625  Z " fill-rule="nonzero" fill="#b62528" stroke="none" transform="matrix(1 0 0 1 277 163 )" />
  </g>
</svg>