<?xml version="1.0" encoding="utf-8"?>
<svg version="1.1" xmlns:xlink="http://www.w3.org/1999/xlink" width="7px" height="4px" xmlns="http://www.w3.org/2000/svg">
  <g transform="matrix(1 0 0 1 -277 -162 )">
    <path d="M 5.16211718750001 0.946842447916666  C 5.225568359375 0.934401041666665  5.28901953125 0.9284765625  5.3518486328125 0.9284765625  C 5.588857421875 0.9284765625  5.81342480468749 1.01615885416667  5.98325 1.16545572916667  C 6.12010546875 1.28453776041667  6.22025878906249 1.44449869791667  6.260693359375 1.62993489583333  L 6.280599609375 1.71583984375  C 6.3863515625 2.19098307291667  6.0634970703125 2.66138671875  5.563974609375 2.76210286458334  L 3.284708984375 3.21947265625  L 1.8433720703125 3.50977213541667  C 1.77929882812501 3.52280598958334  1.7152255859375 3.52873046875  1.65239648437501 3.52873046875  C 1.22379003906251 3.52873046875  0.836862304687504 3.242578125  0.744795898437504 2.82786458333333  L 0.726133789062507 2.74195963541667  C 0.620381835937504 2.26681640625  0.942614257812507 1.79522786458333  1.44151464843751 1.69569661458334  L 5.16211718750001 0.946842447916666  Z M 5.3518486328125 0.552864583333331  C 5.2610263671875 0.552864583333331  5.16958203125 0.562343750000001  5.0806259765625 0.580117187499999  L 1.3600234375 1.32897135416666  C 1.0160185546875 1.3976953125  0.719913085937498 1.59083333333333  0.527071289062499 1.87283854166666  C 0.333607421874998 2.15543619791666  0.267045898437501 2.49194661458333  0.339828125000002 2.82016276041666  L 0.357868164062501 2.90429036458333  C 0.486636718749998 3.48429687499999  1.0309482421875 3.90434244791666  1.6517744140625 3.90434244791666  C 1.74321875 3.90434244791666  1.8346630859375 3.89486328124999  1.9242412109375 3.87708984374999  L 3.3649560546875 3.58679036458332  L 5.643599609375 3.12942057291666  C 6.357736328125 2.98545572916666  6.81558007812501 2.31658203124999  6.6650390625 1.63763671874999  L 6.6451328125 1.54936197916666  C 6.5897685546875 1.29579427083332  6.4529130859375 1.06592447916665  6.24887402343749 0.888190104166654  C 6.0037783203125 0.671946614583334  5.68465625 0.552864583333331  5.3518486328125 0.552864583333331  Z " fill-rule="nonzero" fill="#33100b" stroke="none" transform="matrix(1 0 0 1 277 162 )" />
  </g>
</svg>