<?xml version="1.0" encoding="utf-8"?>
<svg version="1.1" xmlns:xlink="http://www.w3.org/1999/xlink" width="5px" height="4px" xmlns="http://www.w3.org/2000/svg">
  <g transform="matrix(1 0 0 1 -271 -153 )">
    <path d="M 4.13280552455357 3.55470703125  C 4.10170200892857 3.63942708333333  4.01664341517857 3.69393229166666  3.92333286830357 3.69393229166666  C 3.90936802455357 3.69393229166666  3.89476841517857 3.69274739583334  3.88080357142857 3.69037760416667  C 0.0347586495535701 2.98714192708333  0.108391462053568 0.476940104166665  0.109026227678568 0.45146484375  C 0.114104352678568 0.345416666666665  0.204241071428568 0.260104166666665  0.317864118303571 0.253587239583335  C 0.317864118303571 0.253587239583335  0.411174665178571 0.248255208333336  0.566692243303571 0.248255208333336  C 1.22938755580357 0.248255208333336  2.83788364955357 0.34363932291667  3.45868443080357 1.224609375  C 3.99188755580357 1.98116536458334  4.29911411830357 2.12335286458334  4.36005161830357 2.1452734375  C 4.36703404017857 2.14468098958334  4.37401646205357 2.14408854166667  4.38036411830357 2.14408854166667  C 4.44130161830357 2.14408854166667  4.48890904017857 2.17193359375001  4.53143833705357 2.21932942708334  C 4.58158482142857 2.27501953125  4.57523716517857 2.35203776041667  4.54984654017857 2.42076171875001  L 4.13280552455357 3.55470703125  Z " fill-rule="nonzero" fill="#c8947d" stroke="none" transform="matrix(1 0 0 1 271 153 )" />
  </g>
</svg>