<?xml version="1.0" encoding="utf-8"?>
<svg version="1.1" xmlns:xlink="http://www.w3.org/1999/xlink" width="5px" height="4px" xmlns="http://www.w3.org/2000/svg">
  <g transform="matrix(1 0 0 1 -270 -153 )">
    <path d="M 0.914794921874997 0.460351562500001  C 0.914794921874997 0.460351562500001  0.991442871093751 0.45501953125  1.12085571289062 0.45501953125  C 1.64017333984375 0.45501953125  2.994287109375 0.535000000000001  3.48916625976563 1.338359375  C 4.10679321289062 2.34078125  4.42338256835937 2.35322265625  4.42338256835937 2.35322265625  L 4.0584716796875 3.48716796875  C 0.818151855468747 2.81  0.914794921874997 0.460351562500001  0.914794921874997 0.460351562500001  Z M 1.12085571289062 0.0408984374999998  C 0.984222412109375 0.0408984374999998  0.900354003906247 0.0462304687499966  0.891467285156249 0.0462304687499966  C 0.693182373046874 0.058671874999997  0.535443115234373 0.229296874999996  0.526556396484374 0.441393229166664  C 0.523223876953125 0.514264322916667  0.50933837890625 1.17602864583333  0.938677978515625 1.93376953125  C 1.32691650390625 2.61863932291666  2.1700439453125 3.51442057291667  3.98348999023438 3.89358723958333  C 4.00848388671875 3.89891927083333  4.03347778320312 3.9012890625  4.0584716796875 3.9012890625  C 4.22176513671875 3.9012890625  4.37117309570313 3.79168619791666  4.42560424804688 3.62165364583333  L 4.79051513671875 2.48770833333333  C 4.83050537109375 2.36329427083333  4.81328735351563 2.22703125  4.74330444335938 2.11861328125  C 4.68609619140625 2.02974609375  4.59889526367188 1.96872395833333  4.50169677734375 1.94739583333333  C 4.45781860351562 1.92310546874999  4.22120971679687 1.77203125  3.8140869140625 1.11026692708333  C 3.23978271484375 0.179531250000001  1.88011474609375 0.0408984374999998  1.12085571289062 0.0408984374999998  Z " fill-rule="nonzero" fill="#33100b" stroke="none" transform="matrix(1 0 0 1 270 153 )" />
  </g>
</svg>