<?xml version="1.0" encoding="utf-8"?>
<svg version="1.1" xmlns:xlink="http://www.w3.org/1999/xlink" width="3px" height="2px" xmlns="http://www.w3.org/2000/svg">
  <g transform="matrix(1 0 0 1 -272 -154 )">
    <path d="M 2.15653125 1.59294921875  C 2.1501328125 1.57991536458333  2.145333984375 1.5662890625  2.142134765625 1.55266276041667  C 2.13626953125 1.52777994791667  2.113341796875 1.47445963541667  2.093080078125 1.43417317708333  C 2.070685546875 1.39151692708333  2.0477578125 1.34767578125  2.019498046875 1.306796875  C 1.9667109375 1.22266927083334  1.90059375 1.14624348958334  1.831810546875 1.07277994791667  C 1.691578125 0.927037760416672  1.52415234375 0.809140625000005  1.34499609375 0.712571614583337  C 1.166373046875 0.611855468750006  0.970154296875002 0.549648437500004  0.772335937500002 0.492180989583337  C 0.672626953124998 0.467890625  0.571318359375 0.448932291666668  0.469476562499999 0.427604166666671  L 0.160751953124999 0.389687500000006  L 0.47267578125 0.37606119791667  C 0.576650390624999 0.380208333333336  0.681691406249999 0.381985677083338  0.786732421874997 0.389687500000006  C 0.99521484375 0.414570312500006  1.207962890625 0.444785156250006  1.412712890625 0.52002604166667  C 1.61799609375 0.590527343750004  1.82061328125 0.688873697916672  2.005634765625 0.82987630208334  C 2.097345703125 0.900970052083338  2.186923828125 0.97858072916667  2.266904296875 1.07100260416667  C 2.308494140625 1.11543619791667  2.345818359375 1.16520182291667  2.383142578125 1.21674479166667  C 2.420466796875 1.27243489583334  2.45192578125 1.3174609375  2.48818359375 1.39744140625001  L 2.491916015625 1.40514322916667  C 2.5383046875 1.50822916666667  2.50098046875 1.63323567708334  2.408736328125 1.68537109375001  C 2.315958984375 1.73691406250001  2.203453125 1.69544270833334  2.15653125 1.59294921875  Z " fill-rule="nonzero" fill="#33100b" stroke="none" transform="matrix(1 0 0 1 272 154 )" />
  </g>
</svg>