<?xml version="1.0" encoding="utf-8"?>
<svg version="1.1" xmlns:xlink="http://www.w3.org/1999/xlink" width="9px" height="12px" xmlns="http://www.w3.org/2000/svg">
  <g transform="matrix(1 0 0 1 -269 -146 )">
    <path d="M 8.58779972956731 11.4603450520833  C 8.36077824519231 11.64578125  8.09807316706731 11.7393880208333  7.80768254206731 11.7393880208333  C 7.03925480769231 11.7393880208333  6.34588566706731 11.0722916666667  6.31635441706731 11.0438541666667  C 6.24437199519231 10.9733528645833  6.23760441706731 10.8625651041667  6.29974308894231 10.7843619791667  C 6.75501652644231 10.2179817708333  6.94143254206731 9.65930338541666  6.85591496394231 9.12432291666667  C 6.72363957331731 8.30378255208333  5.96813176081731 7.64616536458333  5.35781926081731 7.23915364583333  C 4.78011418269231 6.85524739583333  4.21348332331731 6.61234375  4.03198918269231 6.53888020833333  C 3.76620793269231 6.60404947916667  3.50411808894231 6.63663411458333  3.25125676081731 6.63663411458333  C 2.55419621394231 6.63663411458333  2.04416691706731 6.38780598958333  1.73839543269231 6.17926432291667  C 1.45231144831731 5.9831640625  1.30280949519231 5.794765625  1.29665715144231 5.78706380208333  C 1.23882512019231 5.7130078125  1.24190129206731 5.61051432291666  1.30403996394231 5.54001302083333  C 1.34403019831731 5.49498697916666  1.40124699519231 5.47069661458333  1.45969426081731 5.47069661458333  C 1.49230168269231 5.47069661458333  1.52552433894231 5.47780598958333  1.55567082331731 5.49380208333333  C 1.84975285456731 5.64428385416666  2.11491887019231 5.72011718749999  2.34440129206731 5.72011718749999  C 2.45268254206731 5.72011718749999  2.54066105769231 5.70293619791666  2.61079777644231 5.67923828124999  C 1.80053410456731 5.17743489583333  1.25112980769231 4.59802083333333  0.975504807692308 3.95402994791666  C 0.953356370192307 3.90367187499999  0.934284104567308 3.85212890624999  0.916442307692311 3.80295572916666  C 0.915827073317311 3.80177083333333  0.915211838942311 3.79999348958333  0.915211838942311 3.79880859374999  C 0.760788010817311 3.35980468749999  0.779245042067313 3.00848307291666  0.803854417067311 2.83785807291666  C 0.449479417067311 2.45039713541666  0.278444260817309 2.03212890624999  0.295055588942311 1.59430989583333  C 0.324586838942312 0.82412760416666  0.931823167067313 0.284999999999994  0.957663010817311 0.261894531249993  C 0.99642277644231 0.228124999999994  1.04564152644231 0.210351562499992  1.09547551081731 0.210351562499992  C 1.13915715144231 0.210351562499992  1.18345402644231 0.223977864583325  1.22036808894231 0.251230468749993  C 1.29911808894231 0.309290364583326  1.32311222956731 0.413561197916659  1.27758488581731 0.498281249999991  C 1.04687199519231 0.927805989583324  0.98104191706731 1.28268229166666  1.08870793269231 1.52499348958332  C 1.15023137019231 1.66481119791666  1.25851262019231 1.74419921874999  1.33603215144231 1.78567057291666  C 1.80791691706731 1.43138671874999  2.35855168269231 1.25187499999999  2.97501652644231 1.25187499999999  C 4.25162785456731 1.25187499999999  5.35966496394231 2.02087239583333  5.40642277644231 2.05345703124999  C 5.48763371394231 2.11033203124999  5.51347355769231 2.21519531249999  5.46856144831731 2.30169270833333  C 5.43287785456731 2.36982421874999  5.36089543269231 2.41011067708333  5.2852216045673 2.41011067708333  C 5.26553410456731 2.41011067708333  5.24523137019231 2.40714843749999  5.22431340144231 2.40122395833333  C 4.71305363581731 2.24896484374999  4.2030243389423 2.16839192708333  3.7489813701923 2.16839192708333  C 3.1232880108173 2.16839192708333  2.6440204326923 2.32242838541666  2.3979266826923 2.60206380208332  C 2.21643254206731 2.80823567708332  2.15490910456731 3.08964843749999  2.21581730769231 3.43919270833333  C 2.23981144831731 3.57723307291666  2.2945673076923 3.72060546874999  2.38070012019231 3.86516276041666  C 2.92518254206731 4.79352864583332  4.51863957331731 5.55660156249999  5.17878605769231 5.84156901041666  C 5.18001652644231 5.84216145833332  5.18247746394231 5.84334635416666  5.18493840144231 5.84453124999999  C 5.26122746394231 5.87770833333333  5.32705754206731 5.90496093749999  5.38058293269231 5.92628906249999  C 5.41811222956731 5.85578776041666  5.43410832331731 5.78173177083332  5.42918644831731 5.70056640624999  C 5.40457707331731 5.32317708333333  4.94868840144231 4.91675781249999  4.80964543269231 4.80123046874999  C 4.76903996394231 4.76805338541666  4.74196965144231 4.74791015624999  4.74073918269231 4.74672526041666  C 4.65952824519231 4.68511067708332  4.63799504206731 4.57550781249999  4.69090519831731 4.49019531249999  C 4.72904972956731 4.42858072916666  4.79672551081731 4.39421874999999  4.86686222956731 4.39421874999999  C 4.89454777644231 4.39421874999999  4.92223332331731 4.39955078124999  4.94930363581731 4.41139973958333  C 5.75464543269231 4.75324218749999  6.26652043269231 5.19046874999999  6.47016301081731 5.71063802083333  C 6.59628605769231 6.03174479166666  6.57167668269231 6.31019531249999  6.53291691706731 6.48022786458333  C 6.62827824519231 6.53473307291666  6.72179387019231 6.59160807291666  6.8110028545673 6.65085286458333  C 6.89528996394231 6.704765625  6.9814227764423 6.76401041666666  7.07063176081731 6.83036458333333  C 7.07370793269231 6.83273437499999  7.08662785456731 6.84221354166666  7.09093449519231 6.84576822916666  C 9.40052433894231 8.58519531249999  8.66162785456731 11.3335611979167  8.6536298076923 11.3608138020833  C 8.6431708233173 11.3993229166667  8.61979191706731 11.43427734375  8.58779972956731 11.4603450520833  Z " fill-rule="nonzero" fill="#724638" stroke="none" transform="matrix(1 0 0 1 269 146 )" />
  </g>
</svg>