<?xml version="1.0" encoding="utf-8"?>
<svg version="1.1" xmlns:xlink="http://www.w3.org/1999/xlink" width="10px" height="13px" xmlns="http://www.w3.org/2000/svg">
  <g transform="matrix(1 0 0 1 -269 -146 )">
    <path d="M 1.02287785456731 2.77861328124999  C -0.197131911057691 1.53921223958333  1.09609074519231 0.408821614583334  1.09609074519231 0.408821614583334  C 0.374420823317306 1.75190104166667  1.36987004206731 2.01435546875  1.36987004206731 2.01435546875  C 1.8786688701923 1.59549479166667  2.44037785456731 1.45034505208333  2.9750165264423 1.45034505208333  C 4.1993329326923 1.45034505208333  5.2852216045673 2.21401041666667  5.2852216045673 2.21401041666667  C 4.7585809795673 2.05701171875  4.22701847956731 1.97229166666666  3.74959660456731 1.97229166666666  C 2.64894230769231 1.97229166666666  1.83191105769231 2.42195963541666  2.01402043269231 3.47236979166667  C 2.04293644831731 3.64003255208333  2.10876652644231 3.80473307291667  2.20228215144231 3.96291666666666  C 2.77137394831731 4.93334635416666  4.37528996394231 5.71123046875  5.09511418269231 6.022265625  C 5.0969598858173 6.02285807291666  5.09757512019231 6.02345052083333  5.09757512019231 6.02345052083333  C 5.31659855769231 6.1182421875  5.45256535456731 6.16860026041666  5.45256535456731 6.16860026041666  C 5.98720402644231 5.59688802083333  5.20031926081731 4.86639973958333  4.94315129206731 4.65311848958333  C 4.89577824519231 4.614609375  4.86624699519231 4.59268880208333  4.86624699519231 4.59268880208333  C 6.83868840144231 5.42981770833333  6.28928410456731 6.57442708333333  6.28928410456731 6.57442708333333  C 6.43324894831731 6.65026041666666  6.56860051081731 6.73024088541666  6.69472355769231 6.81377604166666  C 6.78331730769231 6.87005859375  6.86760441706731 6.9287109375  6.94820012019231 6.989140625  C 6.94820012019231 6.989140625  6.94820012019231 6.989140625  6.94881535456731 6.98973307291666  C 6.95004582331731 6.99151041666666  6.95373722956731 6.99328776041666  6.95927433894231 6.99802734374999  C 9.19442082331731 8.67702473958333  8.45552433894231 11.3104557291667  8.45552433894231 11.3104557291667  C 8.24819035456731 11.4787109375  8.02547551081731 11.5426953125  7.80645207331731 11.5426953125  C 7.11492863581731 11.5426953125  6.4609344951923 10.9058138020833  6.4609344951923 10.9058138020833  C 7.85136418269231 9.1752734375  6.6264325420673 7.84700520833333  5.47348332331731 7.07800781249999  C 4.74566105769231 6.59397786458333  4.04552433894231 6.33211588541666  4.04552433894231 6.33211588541666  C 3.75636418269231 6.40854166666666  3.49181340144231 6.44053385416666  3.25064152644231 6.44053385416666  C 2.62064152644231 6.44053385416666  2.15490910456731 6.22310546874999  1.85652043269231 6.01989583333333  C 1.59320012019231 5.83979166666666  1.4596942608173 5.66975911458333  1.4596942608173 5.66975911458333  C 1.82575871394231 5.85697265624999  2.11799504206731 5.91917968749999  2.3444012920673 5.91917968749999  C 2.71292668269231 5.91917968749999  2.90795597956731 5.75447916666666  2.9676337139423 5.69404947916666  C 2.9805536358173 5.68042317708332  2.9873212139423 5.67153645833333  2.9873212139423 5.67153645833333  C 1.89712590144231 5.06190755208332  1.3920184795673 4.41139973958333  1.16438176081731 3.88056640624999  C 1.14346379206731 3.83317057291666  1.1262372295673 3.78577473958332  1.1096259014423 3.74015624999999  C 1.10901066706731 3.73897135416666  1.1096259014423 3.73778645833332  1.10901066706731 3.73778645833332  C 0.910905198317304 3.17377604166666  1.02287785456731 2.77861328124999  1.02287785456731 2.77861328124999  Z M 1.09609074519231 0.014251302083333  C 1.09362980769231 0.014251302083333  1.09178410456731 0.014251302083333  1.0893231670673 0.014251302083333  C 0.984733323317307 0.0154361979166661  0.888756760817307 0.0551302083333335  0.817389573317304 0.119114583333333  C 0.762018479567306 0.168287760416668  0.122789963942305 0.754811197916666  0.0907977764423047 1.58779296875  C 0.0729559795673027 2.05227213541667  0.240914963942305 2.49364583333333  0.590368088942306 2.90125  C 0.571295823317304 3.11216145833333  0.577448167067306 3.45163411458333  0.720797776442305 3.861015625  C 0.721413010817305 3.86338541666667  0.722028245192305 3.86516276041666  0.723258713942307 3.86753255208333  C 0.739870042067307 3.91492838541667  0.761403245192308 3.97180338541667  0.787858323317306 4.03223307291666  C 1.00626652644231 4.54233072916666  1.38525090144231 5.012734375  1.91742863581731 5.43751953125  C 1.83314152644231 5.40671223958333  1.74454777644231 5.36761067708333  1.65226262019231 5.32021484374999  C 1.59135441706731 5.28940755208333  1.52552433894231 5.27400390625  1.46030949519231 5.27400390625  C 1.34341496394231 5.27400390625  1.22836613581731 5.3219921875  1.14838566706731 5.41263671874999  C 1.02349308894231 5.55363932291666  1.01734074519231 5.75862630208333  1.13362004206731 5.90614583333333  C 1.15146183894231 5.92865885416666  1.31388371394231 6.13068359374999  1.61965519831731 6.33981770833333  C 1.94942082331731 6.56494791666666  2.50005558894231 6.83332682291666  3.25064152644231 6.83332682291666  C 3.4985809795673 6.83332682291666  3.75451847956731 6.80370442708332  4.0129169170673 6.74564453124999  C 4.23255558894231 6.83806640624999  4.73212590144231 7.06319661458333  5.2403094951923 7.40089192708332  C 5.8173993389423 7.78539062499999  6.53168644831731 8.40212890624999  6.65227238581731 9.15394531249999  C 6.72917668269231 9.63323567708332  6.5556805889423 10.1409635416667  6.1367059795673 10.66291015625  C 6.0111981670673 10.81931640625  6.0247333233173 11.0408919270833  6.1693134014423 11.18189453125  C 6.2480634014423 11.2589127604167  6.9678876201923 11.93548828125  7.80583683894231 11.93548828125  C 8.1460614483173 11.93548828125  8.4530634014423 11.8258854166667  8.7188446514423 11.6108268229167  C 8.7828290264423 11.5592838541667  8.8283563701923 11.489375  8.8498895733173 11.4117643229167  C 8.8831122295673 11.2944596354167  9.6293915264423 8.51113932291666  7.2182880108173 6.69173177083332  C 7.2145966045673 6.68936197916666  7.2115204326923 6.68639973958332  7.2090594951923 6.68462239583332  C 7.2022919170673 6.67929036458332  7.1955243389423 6.67455078124999  7.1887567608173 6.66921874999999  C 7.09954777644231 6.60286458333332  7.01156926081731 6.54243489583332  6.9223602764423 6.48496744791666  C 6.86821965144231 6.44882812499999  6.81284855769231 6.41446614583332  6.75686222956731 6.38010416666666  C 6.7814716045673 6.18637369791666  6.7734735576923 5.92806640624999  6.66027043269231 5.63954427083332  C 6.43632512019231 5.06783203124999  5.88753605769231 4.59328124999999  5.02989933894231 4.23011067708332  C 4.97637394831731 4.20759765624999  4.92038762019231 4.19634114583332  4.86501652644231 4.19634114583332  C 4.72474308894231 4.19634114583332  4.5893915264423 4.26624999999999  4.51310246394231 4.38888671874999  C 4.4072821514423 4.56010416666665  4.45034855769231 4.78049479166666  4.6133856670673 4.90253906249999  C 4.61584660456731 4.90431640624999  4.6404559795673 4.92268229166666  4.67737004206731 4.95289713541666  C 4.95730168269231 5.18572916666666  5.15786808894231 5.44581380208332  5.21016301081731 5.63895182291666  C 3.89909855769231 5.06605468749999  2.90980168269231 4.36874348958332  2.55727238581731 3.76740885416666  C 2.48344426081731 3.64240234374999  2.43607121394231 3.52095052083332  2.41576847956731 3.40601562499999  C 2.36470402644231 3.11216145833332  2.40961613581731 2.89117838541666  2.55235051081731 2.72884765624999  C 2.75906926081731 2.49423828124999  3.18296574519231 2.36508463541666  3.74713566706731 2.36508463541666  C 4.18087590144231 2.36508463541666  4.66998722956731 2.44269531249999  5.16217472956731 2.58902994791666  C 5.20216496394231 2.60087890624999  5.24338566706731 2.60680338541666  5.28337590144231 2.60680338541666  C 5.43472355769231 2.60680338541666  5.57868840144231 2.52563802083332  5.64944035456731 2.38937499999999  C 5.73926457331731 2.21697265624999  5.68696965144231 2.00783854166666  5.52516301081731 1.89408854166666  C 5.47655949519231 1.85972656249999  4.31622746394231 1.05458984374999  2.97317082331731 1.05458984374999  C 2.36470402644231 1.05458984374999  1.81529972956731 1.21692057291666  1.33603215144231 1.53921223958333  C 1.31203801081731 1.51373697916666  1.28927433894231 1.48174479166666  1.27327824519231 1.44323567708333  C 1.19637394831731 1.26135416666666  1.25912785456731 0.962760416666661  1.45108097956731 0.60195963541666  C 1.48491887019231 0.544492187499993  1.50399113581731 0.478730468749994  1.50399113581731 0.40822916666666  C 1.50399113581731 0.190800781249993  1.32126652644231 0.0142513020833259  1.09547551081731 0.0136588541666593  C 1.09670597956731 0.014251302083333  1.09609074519231 0.014251302083333  1.09609074519231 0.014251302083333  Z " fill-rule="nonzero" fill="#33100b" stroke="none" transform="matrix(1 0 0 1 269 146 )" />
  </g>
</svg>