<?xml version="1.0" encoding="utf-8"?>
<svg version="1.1" xmlns:xlink="http://www.w3.org/1999/xlink" width="5px" height="4px" xmlns="http://www.w3.org/2000/svg">
  <g transform="matrix(1 0 0 1 -270 -149 )">
    <path d="M 0.454513113839283 0.918697916666671  C 0.339620535714286 0.733261718750001  0.227267020089287 0.538346354166665  0.196798270089286 0.323880208333331  C 0.250753348214288 0.532421874999997  0.370089285714287 0.718450520833334  0.497042410714287 0.893222656249999  C 0.566231863839286 0.977350260416666  0.629073660714286 1.065625  0.707149832589289 1.143828125  L 0.818868582589286 1.26409505208333  L 0.939474051339284 1.37666015625  C 1.26320452008929 1.6734765625  1.61994280133929 1.94067057291666  2.00397600446428 2.16935546875  C 2.19186662946428 2.28962239583333  2.38991350446428 2.39567057291666  2.58415178571429 2.50645833333333  C 2.78537248883929 2.60658203125  2.98468889508928 2.71144531249999  3.18781389508928 2.80860677083333  C 3.39347795758929 2.90162109375  3.59660295758928 3.00055989583333  3.80480608258929 3.08883463541667  C 4.01300920758928 3.17770182291667  4.22248186383928 3.26360677083333  4.43005022321428 3.35543619791667  C 4.21359514508929 3.28434244791667  3.99967912946429 3.20732421875  3.78385881696429 3.13326822916667  C 3.57057756696428 3.05388020833333  3.36300920758929 2.96205078125  3.15226702008929 2.87673828125  C 2.94215959821428 2.78905598958333  2.74220842633929 2.68182291666667  2.53717912946429 2.58466145833333  C 2.33913225446428 2.47505859375  2.13727678571429 2.37078776041667  1.94557756696429 2.25111328125  L 1.66183733258929 2.06626953125  C 1.56852678571428 2.00347005208333  1.48029436383928 1.93296875  1.38888811383928 1.86720703125  C 1.29684709821429 1.80263020833333  1.21178850446428 1.72916666666667  1.12672991071428 1.655703125  L 0.999142020089285 1.54669270833333  L 0.881075613839284 1.428203125  L 0.763643973214282 1.30912109375  L 0.655733816964284 1.18233723958334  C 0.580196707589283 1.10057942708334  0.519893973214286 1.00756510416667  0.454513113839283 0.918697916666671  Z " fill-rule="nonzero" fill="#33100b" stroke="none" transform="matrix(1 0 0 1 270 149 )" />
  </g>
</svg>