<?xml version="1.0" encoding="utf-8"?>
<svg version="1.1" xmlns:xlink="http://www.w3.org/1999/xlink" width="2px" height="5px" xmlns="http://www.w3.org/2000/svg">
  <g transform="matrix(1 0 0 1 -275 -153 )">
    <path d="M 1.52739583333333 4.60626831054688  L 1.34788411458333 4.52850952148438  C 1.49658854166667 4.20914306640625  1.57834635416667 3.84201049804688  1.59611979166667 3.48209838867188  C 1.61330078125 3.11996459960938  1.57538411458333 2.75227661132813  1.46578125 2.40125122070313  C 1.44267578125 2.31238403320313  1.40298177083334 2.228515625  1.37276692708334 2.14131469726563  L 1.32359375000001 2.01190185546875  L 1.26020182291667 1.88804321289063  C 1.216953125 1.80584106445313  1.17725911458334 1.72141723632813  1.13104817708334 1.64032592773438  L 0.976419270833337 1.40538330078125  L 0.898216145833336 1.28818969726563  L 0.808164062500003 1.17877197265625  L 0.627467447916672 0.959381103515626  C 0.498906250000005 0.819415283203127  0.357903645833337 0.689447021484375  0.223417968750004 0.553369140625002  C 0.363235677083338 0.683892822265628  0.510755208333336 0.808862304687503  0.645833333333338 0.944384765625002  L 0.837194010416672 1.157666015625  L 0.93317057291667 1.264306640625  L 1.01729817708334 1.37927856445313  L 1.1849609375 1.610888671875  C 1.23531901041667 1.690869140625  1.27975260416667 1.77529296875  1.3271484375 1.85693969726563  L 1.39764973958334 1.98079833984375  L 1.45393229166667 2.11132202148438  C 1.48888671875 2.19907836914063  1.5333203125 2.2840576171875  1.56116536458334 2.37403564453126  C 1.68913411458334 2.73005981445313  1.74600911458333 3.10830078125001  1.74482421875 3.48598632812501  C 1.74067708333334 3.8658935546875  1.67906250000001 4.23969116210938  1.52739583333333 4.60626831054688  Z " fill-rule="nonzero" fill="#33100b" stroke="none" transform="matrix(1 0 0 1 275 153 )" />
  </g>
</svg>