<?xml version="1.0" encoding="utf-8"?>
<svg version="1.1" xmlns:xlink="http://www.w3.org/1999/xlink" width="12px" height="12px" xmlns="http://www.w3.org/2000/svg">
  <g transform="matrix(1 0 0 1 -273 -153 )">
    <path d="M 3.48767269736842 11.7817166940789  C 3.16831208881579 11.7817166940789  2.83660361842105 11.6846175986842  2.47346422697369 11.4853680098684  C 2.12716282894737 11.2950986842105  1.90939144736842 11.0122203947368  1.8263240131579 10.6440296052632  C 1.81678248355263 10.6008120888158  1.80892475328948 10.5575945723684  1.80275082236842 10.5132545230263  C 1.77917763157895 10.5227960526316  1.75392064144737 10.5278474506579  1.72866365131579 10.5278474506579  C 1.70396792763158 10.5278474506579  1.6787109375 10.5233573190789  1.65457648026316 10.5132545230263  C 1.00238486842106 10.2477754934211  0.577506167763159 9.84422491776316  0.391726973684212 9.31438939144737  C 0.121196546052636 8.54264802631579  0.451221217105264 7.75350740131579  0.568525904605266 7.51272409539473  C -0.0129461348684198 5.24689144736842  0.177323190789474 3.46879934210526  1.13484375 2.22783922697368  C 2.4268791118421 0.553020148026316  4.74266447368421 0.302695312499998  6.0083203125 0.302695312499998  C 6.36304070723684 0.302695312499998  6.59596628289474 0.323462171052631  6.64030633223684 0.327391036184209  C 6.81991159539474 0.333564967105263  9.22606085526316 0.445256990131579  10.7280098684211 2.06563322368421  C 11.5592454769737 2.96309827302631  11.9465193256579 4.14737047697369  11.8774835526316 5.58645764802632  C 11.6501706414474 10.3347717927632  7.32168379934211 10.7349547697368  5.89943462171053 10.8668523848684  C 5.79952919407895 10.8758326480263  5.71365542763158 10.8842516447368  5.6440583881579 10.892109375  C 5.30785978618421 10.9308367598684  5.02947162828948 11.1121258223684  4.73536800986842 11.3029564144737  C 4.37110608552632 11.5375657894737  3.99618009868421 11.7817166940789  3.48767269736842 11.7817166940789  Z " fill-rule="nonzero" fill="#c8947d" stroke="none" transform="matrix(1 0 0 1 273 153 )" />
  </g>
</svg>