<?xml version="1.0" encoding="utf-8"?>
<svg version="1.1" xmlns:xlink="http://www.w3.org/1999/xlink" width="13px" height="12px" xmlns="http://www.w3.org/2000/svg">
  <g transform="matrix(1 0 0 1 -273 -153 )">
    <path d="M 0.798833496093746 7.53629728618421  C -0.951405761718749 1.05928248355263  4.30739892578125 0.49913856907895  6.181830078125 0.49913856907895  C 6.574623046875 0.49913856907895  6.81896337890625 0.523834292763159  6.81896337890625 0.523834292763159  C 6.81896337890625 0.523834292763159  12.2614565429688 0.671447368421054  12.0194267578125 5.57691611842106  C 11.7773969726562 10.4823848684211  6.87788232421875 10.5733100328947  5.78268310546875 10.6967886513158  C 4.94626513671874 10.7910814144737  4.46336083984375 11.5852734375  3.58881884765624 11.5852734375  C 3.31848486328124 11.5852734375  3.01002685546875 11.5095024671053  2.64207226562499 11.3130592105263  C 1.16794335937499 10.5261636513158  2.87254931640625 8.21823601973685  2.87254931640625 8.21823601973685  C 1.4093955078125 9.94637541118422  1.77850537109375 10.331404194079  1.77850537109375 10.331404194079  C -0.328135742187501 9.49792351973684  0.798833496093746 7.53629728618421  0.798833496093746 7.53629728618421  Z M 6.181830078125 0.106813322368421  C 4.84229052734375 0.106813322368421  2.3890673828125 0.366679687500001  1.006205078125 2.10828947368421  C -0.00870263671874945 3.38685444078947  -0.222428222656248 5.19862253289473  0.37022705078125 7.49364103618421  C 0.221196777343751 7.81524671052632  -0.0693544921875013 8.60270353618421  0.211376953125 9.3794962993421  C 0.422214355468751 9.9643359375  0.898187011718749 10.4071751644737  1.62600927734375 10.6945435855263  C 1.64680419921875 10.7024013157895  1.667021484375 10.7091365131579  1.68781640625 10.7136266447368  C 1.7906357421875 11.1199835526316  2.0528828125 11.4455180921053  2.44740869140625 11.6565542763158  C 2.85175439453125 11.8726418585526  3.2254853515625 11.9775986842105  3.5882412109375 11.9775986842105  C 4.171654296875 11.9775986842105  4.601416015625 11.7065069901316  4.980345703125 11.4674074835526  C 5.27551806640625 11.2810670230263  5.530255859375 11.1205448190789  5.82889404296875 11.0863075657895  C 5.89936572265625 11.0784498355263  5.9865888671875 11.0705921052632  6.08709765625 11.0616118421053  C 6.81723046875 10.9959436677632  8.33699267578126 10.8595559210526  9.6927060546875 10.1355222039474  C 11.4007778320313 9.22290296052632  12.3197978515625 7.69513569078947  12.4231948242187 5.59599917763158  C 12.4971323242187 4.10246916118421  12.08065625 2.86992804276316  11.186474609375 1.93261307565789  C 9.6025947265625 0.272386924342106  7.08525390625 0.141050575657894  6.84495703125 0.132070312500001  C 6.78314990234375 0.126457648026315  6.53996484375 0.106813322368421  6.181830078125 0.106813322368421  Z " fill-rule="nonzero" fill="#33100b" stroke="none" transform="matrix(1 0 0 1 273 153 )" />
  </g>
</svg>