<?xml version="1.0" encoding="utf-8"?>
<svg version="1.1" xmlns:xlink="http://www.w3.org/1999/xlink" width="14px" height="14px" xmlns="http://www.w3.org/2000/svg">
  <g transform="matrix(1 0 0 1 -16 -47 )">
    <path d="M 13.9736170932044 13.3805250228108  C 14.0488028784636 13.0899973069609  13.9606151556076 12.7815407382866  13.7432225302392 12.5746677670402  C 13.7432225302392 12.5746677670402  9.91018686402812 8.73998112060212  9.91018686402812 8.73998112060212  C 10.5972639620929 7.80283914037773  10.9653284871132 6.66985687466808  10.9601966343181 5.50782380118972  C 10.9470868146645 2.47453191003274  8.49379567468791 0.0175752951902268  5.46064546126105 5.57205382847314E-05  C 4.00911211289132 -0.00651188990877927  2.61524036811239 0.567739920882332  1.58954542712512 1.59488409171627  C 0.563850486137845 2.62202826254997  -0.0084650073604351 4.01674176479855  9.46511004613626E-05 5.46832187850487  C 0.0132044837940555 8.50188992092399  2.46671947299001 10.9590703949661  5.50014582881006 10.976589983494  C 6.66686687944407 10.9816468815147  7.80394375940273 10.6092715527673  8.74167599109109 9.91503831438627  C 8.74167599109109 9.91503831438627  12.5752116619547 13.7437246687709  12.5752116619547 13.7437246687709  C 12.7822624572943 13.9609487318605  13.0907822403784 14.0488759179098  13.3812340683362 13.9734385671063  C 13.6716858962939 13.8980012163029  13.8984313079451 13.6710527386608  13.9736170932044 13.3805250228108  Z M 9.99992886233628 5.5161435893815  C 10.006651460919 6.70621535694545  9.53665749698335 7.84958371375228  8.69456948125369 8.69173035243944  C 7.85248146552401 9.53387699112659  6.7081915188149 10.0049049252559  5.51642309803773 9.99996147825914  C 3.02566942597551 9.98565365932836  1.0110050707208 7.97109943853479  1.00007113766372 5.4838564106185  C 0.993348539081048 4.29378464305455  1.46334250301665 3.15041628624772  2.30543051874632 2.30826964756056  C 3.14751853447599 1.46612300887341  4.29180848118511 0.995095074744086  5.48357690196227 1.00003852174086  C 7.97433057402449 1.01434634067164  9.9889949292792 3.02890056146521  9.99992886233628 5.5161435893815  Z " fill-rule="nonzero" fill="#aaaaaa" stroke="none" fill-opacity="0.996078431372549" transform="matrix(1 0 0 1 16 47 )" />
  </g>
</svg>