<?xml version="1.0" encoding="utf-8"?>
<svg version="1.1" xmlns:xlink="http://www.w3.org/1999/xlink" width="26px" height="15px" xmlns="http://www.w3.org/2000/svg">
  <g transform="matrix(1 0 0 1 -172 -247 )">
    <path d="M 24.7407333417969 7.60454544566761  C 24.7407333417969 11.6149999911222  21.6302666835937 14.8772727272727  17.8074 14.8772727272727  L 7.8949 14.8772727272727  C 4.07203334179687 14.8772727272727  0.961566658203124 11.6145454634233  0.961566658203124 7.60454544566761  L 0.961566658203124 7.35  C 0.961566658203124 3.34000000887784  4.07203331640625 0.0772727183948845  7.8949 0.0772727183948845  L 17.8074 0.0772727183948845  C 21.6302666582031 0.0772727183948845  24.7407333417969 3.33999998224431  24.7407333417969 7.35  L 24.7407333417969 7.60454544566761  Z M 17.8074 0.986818172940339  L 7.8949 0.98681817294034  C 4.54956665820312 0.98681817294034  1.82823334179687 3.8418181640625  1.82823334179687 7.35045455433239  L 1.82823334179687 7.605  C 1.82823334179687 11.1140909179687  4.54956668359375 13.9686363547585  7.8949 13.9686363547585  L 17.8074 13.9686363547585  C 21.1527333417969 13.9686363547585  23.8740666582031 11.1140908913352  23.8740666582031 7.605  L 23.8740666582031 7.35045455433239  C 23.8740666582031 3.84181819069602  21.1527333164062 0.986818199573862  17.8074 0.986818172940339  Z " fill-rule="nonzero" fill="#0964fb" stroke="none" transform="matrix(1 0 0 1 172 247 )" />
  </g>
</svg>