<?xml version="1.0" encoding="utf-8"?>
<svg version="1.1" xmlns:xlink="http://www.w3.org/1999/xlink" width="8px" height="11px" xmlns="http://www.w3.org/2000/svg">
  <g transform="matrix(1 0 0 1 -187 -249 )">
    <path d="M 4.15288888020833 3.64329165771484  C 4.15288888020833 4.654375  3.355555546875 5.476625  2.37511111979167 5.476625  L 1.87511111979167 5.476625  C 0.894666666666666 5.476625  0.0973333333333339 4.654375  0.0973333333333339 3.64329165771484  L 0.0973333333333339 3.128125  C 0.0973333333333339 2.1175  0.894666666666666 1.29479165771484  1.87511111979167 1.29479165771484  L 2.37511111979167 1.29479165771484  C 3.35555557291667 1.29479165771484  4.15288890625 2.1175  4.15288888020833 3.128125  L 4.15288888020833 3.64329165771484  Z M 2.37511111979167 2.21145834228516  L 1.87511111979167 2.21145834228516  C 1.38488890625 2.21145834228516  0.986222239583332 2.622125  0.986222213541666 3.128125  L 0.986222213541666 3.64329165771484  C 0.986222213541666 4.14883331542969  1.38488888020833 4.55995831542969  1.87511111979167 4.55995834228516  L 2.37511111979167 4.55995834228516  C 2.86533333333333 4.55995834228516  3.264 4.14883334228515  3.264 3.64329165771484  L 3.264 3.128125  C 3.264 2.622125  2.86533333333333 2.21145834228516  2.37511111979167 2.21145834228516  Z M 7.93066666666667 5.93495834228516  C 7.93066666666667 6.94604168457031  7.13333333333333 7.76829168457031  6.15288888020833 7.76829165771484  L 5.65288888020833 7.76829165771484  C 4.67244442708333 7.76829165771484  3.87511109375 6.94604165771484  3.87511111979166 5.93495834228516  L 3.87511111979166 5.41933334228516  C 3.87511111979166 4.40825  4.672444453125 3.586  5.65288888020833 3.586  L 6.15288888020833 3.586  C 7.13333333333333 3.586  7.93066666666667 4.40825  7.93066666666667 5.41933334228516  L 7.93066666666667 5.93495834228516  Z M 6.15288888020833 4.50266665771484  L 5.65288888020833 4.50266665771484  C 5.16266666666666 4.50266665771484  4.764 4.91379165771484  4.764 5.41933334228516  L 4.764 5.93495834228516  C 4.764 6.4405  5.16266666666666 6.851625  5.65288888020833 6.851625  L 6.15288888020833 6.851625  C 6.64311109375 6.851625  7.04177776041666 6.4405  7.04177778645833 5.93495834228516  L 7.04177778645833 5.41933334228516  C 7.04177778645833 4.91379168457031  6.64311111979166 4.50266668457031  6.15288888020833 4.50266665771484  Z M 4.15288888020833 8.28391665771485  C 4.15288888020833 9.295  3.355555546875 10.11725  2.37511111979167 10.11725  L 1.87511111979167 10.11725  C 0.894666666666666 10.11725  0.0973333333333339 9.295  0.0973333333333339 8.28391665771485  L 0.0973333333333339 7.76829165771484  C 0.0973333333333339 6.75720831542969  0.894666666666666 5.93495831542969  1.87511111979167 5.93495834228516  L 2.37511111979167 5.93495834228516  C 3.35555557291667 5.93495834228516  4.15288890625 6.75720834228516  4.15288888020833 7.76829165771484  L 4.15288888020833 8.28391665771485  Z M 2.37511111979167 6.851625  L 1.87511111979167 6.851625  C 1.38488890625 6.851625  0.986222239583332 7.26275  0.986222213541666 7.76829165771484  L 0.986222213541666 8.28391665771485  C 0.986222213541666 8.78945831542969  1.38488888020833 9.20058331542969  1.87511111979167 9.20058334228516  L 2.37511111979167 9.20058334228516  C 2.86533333333333 9.20058334228516  3.264 8.78945834228516  3.264 8.28391665771485  L 3.264 7.76829165771484  C 3.264 7.26275  2.86533333333333 6.851625  2.37511111979167 6.851625  Z " fill-rule="nonzero" fill="#0964fb" stroke="none" transform="matrix(1 0 0 1 187 249 )" />
  </g>
</svg>