<?xml version="1.0" encoding="utf-8"?>
<svg version="1.1" xmlns:xlink="http://www.w3.org/1999/xlink" width="20px" height="22px" xmlns="http://www.w3.org/2000/svg">
  <g transform="matrix(1 0 0 1 -208 -542 )">
    <path d="M 10.0180803077402 0  C 10.0120513571052 0  10.0060224078077 0  9.99999346788195 1.68750033940953E-05  C 9.99396452067147 0  9.98793556408991 0  9.98190660617009 0  C 4.68220807109748 0  0.385953546274252 4.25329161632241  0.385953546274252 9.49999271794953  C 0.385953546274252 13.7907700449495  3.29116966998961 17.5489380572497  7.47474264322917 18.6700025539298  C 8.67765243960676 19.4601139301409  9.56931574964007 20.6359323938666  9.99999346788195 22  C 10.4306711805377 20.6359323970598  11.3223344825802 19.4601139337668  12.5252442708333 18.6700025539298  C 16.7088172439977 17.5489380571968  19.6140333676361 13.7907700449323  19.6140333676361 9.49999271799031  C 19.6140333676361 4.25329161636319  15.3177788428128 0  10.0180803077402 0  Z M 7.52019717881945 7.20501136122299  C 7.65886122583406 6.78798007123274  7.8901100019978 6.40698910874081  8.19696438802083 6.09001220449642  C 8.51425719993401 5.78617298972578  8.89788074235558 5.55864277552106  9.31817573784722 5.42501271832198  C 9.18319587056262 5.84110472832235  8.95336735173742 6.22089200288395  8.64645902777778 6.53501185985058  C 8.32789463361112 6.84088217512385  7.94254227954814 7.07012361246248  7.52019717881945 7.20501136122299  Z M 6.83837944878472 5.0550129901562  C 6.84481690519354 4.61852598626322  6.95192005240269 4.18926697621951  7.151510546875 3.80001396648008  C 7.35460532428061 4.18843686747359  7.46517430062402 4.61773816188405  7.47474264322917 5.0550129901562  C 7.46715046374826 5.49354175189077  7.35831306472004 5.92453782258221  7.15656104600694 6.3150120290303  C 6.95480902729385 5.92453782258222  6.84597162826563 5.49354175189076  6.83837944878472 5.0550129901562  Z M 5.58585505642361 3.28501435616677  C 5.43050087778886 2.87524656414724  5.37344512779898 2.43534678511899  5.41918849826389 2.00001534872468  C 5.75142494290208 2.29032026104082  6.0108011876029 2.65323947143491  6.17676373697917 3.06001453163289  C 6.32916312548113 3.47048153415241  6.38445217165247 3.91008122418304  6.33837979600694 4.34501353907499  C 6.00852822569555 4.05368130896447  5.75100962569334 3.6909430610005  5.58585505642361 3.28501435616677  Z M 3.71211896701389 4.79501320962712  C 4.1321411973718 4.93171463684593  4.5154570462245 5.16077173603059  4.83333031684028 5.46501268951516  C 5.14279183129095 5.77806640429463  5.37448225506748 6.15807324859169  5.51009752604167 6.57501183104375  C 5.08859286490415 6.44077442373131  4.70345559701437 6.21337074714383  4.38383567708333 5.91001234486932  C 4.07741302235317 5.59358865116177  3.84771231931389 5.21230278851462  3.71211896701389 4.79501320962712  Z M 3.97474503038194 7.57001107419079  C 4.36916345441886 7.37027659272316  4.80451305795491 7.26252757688753  5.24747144097222 7.25501131984336  C 5.68876487820058 7.26293494319978  6.12238106784089 7.37068250863283  6.51514735243055 7.57001107419079  C 6.12238106784089 7.76933963974875  5.68876487820058 7.87708720518181  5.24747144097222 7.88501082853822  C 4.80451305795491 7.87749457149405  4.36916345441886 7.76974555565843  3.97474503038194 7.57001107419079  Z M 6.7777734375 7.9400107808722  C 6.6427935732231 8.35610279854183  6.41296505422466 8.73589008074061  6.10605672743055 9.05000994388516  C 5.78818345055648 9.35425090012708  5.40486759400575 9.58330799947836  4.98484535590278 9.7200094237732  C 5.12043870522662 9.30271983722163  5.35013940843496 8.92143396694706  5.65656206597222 8.60501026704663  C 5.97385488412573 8.30117104946987  6.35747843426163 8.07364083509364  6.7777734375 7.9400107808722  Z M 8.62120651041667 10.7350086417746  L 5.13130991753472 4.73501324209517  C 5.08896138105318 4.68010442233419  5.0660206397684 4.61293558440629  5.0660206397684 4.5438509399587  C 5.0660206397684 4.36988137943217  5.20847539316799 4.22885118561127  5.38420223699063 4.22885118561127  C 5.51158244504688 4.22885118561127  5.62668645648873 4.30406108745645  5.67676408420139 4.42001348774774  L 9.17171119791667 10.4200088874272  C 9.19567612716227 10.4651838275611  9.20819712491345 10.5154461561344  9.20819712491345 10.5664722673796  C 9.20819712491345 10.7404418279061  9.06574237151386 10.881472021727  8.89001552769123 10.881472021727  C 8.78098287351606 10.881472021727  8.67954296297494 10.8262014347855  8.62120651041667 10.7350086417746  Z M 15.7222117838542 15.1150052833258  L 15.73736328125 15.1150052833258  C 15.7373632822044 16.1561209206189  14.8848959375732 17.0000635197268  13.8333241763016 17.0000635197268  C 13.8282736168851 17.0000635197268  13.8232230774578 17.0000436253875  13.8181726779514 17.0000038371812  L 10.6414071614583 17.0000038371812  C 10.2673734637683 17.0008679550331  9.90159193033679 16.8911862633371  9.59090282118056 16.6850040828337  L 8.73736805555556 16.6850040828337  C 8.21215357282334 16.685011360981  7.78560215335345 16.2649598074219  7.7828232421875 15.7450047920207  L 7.7828232421875 15.1150052833258  C 7.7828232421875 14.5930965898807  8.2101875121023 14.1700059987992  8.73736805555556 14.1700059987992  L 8.92423661024306 14.1700059987992  C 8.999994140625 13.8650062318789  9.09595366753472 13.5100065063383  9.21211521267361 13.1700067834229  L 8.88383259548611 12.8400070264503  C 8.70557028695872 12.6636970449492  8.60540914345148 12.4244675243028  8.60540914345148 12.1750075402758  C 8.60540914345148 11.9255475562488  8.70557028695872 11.6863180356024  8.88383259548611 11.5100080541014  C 9.20839639637724 11.194337214754  9.71481102602622 11.1543134414966  10.0858519748264 11.4150081305743  C 10.2478561179575 11.2135565452397  10.4465749303846 11.0439603323794  10.6717101779514 10.9150085014017  C 10.2381839471409 10.5525374493325  9.99166637914376 10.0167232196985  9.99999346788195 9.45500962804615  L 9.99999346788195 8.39001045142433  C 9.48805727836772 8.24752981849093  9.13433614685845 7.78532430049243  9.13433614685845 7.25886064206563  C 9.13433614685845 6.60992655653861  9.665714997541 6.08386153929149  10.3212040288029 6.08386153929149  C 10.6491597228851 6.08386153929149  10.9624979513434 6.21820523636346  11.186861328125 6.45501191746423  C 11.4160773422333 6.36216797040311  11.661424364623 6.31460840021589  11.9090830729167 6.3150120290303  L 13.1818094618056 6.3150120290303  C 13.4277940348086 6.31500285469287  13.6714120911928 6.3625598376599  13.8989807074653 6.45501191746423  C 14.1233440842469 6.21820523636346  14.4366823127052 6.08386153929149  14.7646380067874 6.08386153929149  C 15.4201270380493 6.08386153929149  15.9515058887318 6.60992655653861  15.9515058887318 7.25886064206563  C 15.9515058887318 7.78532430049243  15.5977847572226 8.24752981849093  15.0858485677083 8.39001045142433  L 15.0858485677083 9.45500962804615  C 15.0867012059317 10.0076845218511  14.8385840705282 10.5319522808252  14.4090813585069 10.8850085176358  C 15.7171612847222 11.6950078859577  15.7222117838542 15.1150052618414  15.7222117838542 15.1150052833258  Z " fill-rule="nonzero" fill="#cda05a" stroke="none" transform="matrix(1 0 0 1 208 542 )" />
  </g>
</svg>