<?xml version="1.0" encoding="utf-8"?>
<svg version="1.1" xmlns:xlink="http://www.w3.org/1999/xlink" width="23px" height="19px" xmlns="http://www.w3.org/2000/svg">
  <g transform="matrix(1 0 0 1 -109 -243 )">
    <path d="M 22.5527777777778 15.2633333333333  C 22.5527777777778 17.0366666666667  21.1472222222222 18.43  19.4222222222222 18.43  L 3.64166666666667 18.43  C 1.91666666666667 18.43  0.511111111111111 17.0366666666667  0.511111111111111 15.3266666666667  L 0.511111111111111 3.16666666666667  C 0.511111111111111 1.39333333333333  1.91666666666667 0  3.64166666666667 0  L 19.4222222222222 0  C 21.1472222222222 0  22.5527777777778 1.39333333333333  22.5527777777778 3.10333333333333  L 22.5527777777778 15.2633333333333  Z M 3.64166666666667 1.33  L 3.64166666666667 1.26666666666667  C 2.61944444444444 1.26666666666667  1.78888888888889 2.09  2 3.10333333333333  L 2 15.2633333333333  C 1.78888888888889 16.2766666666667  2.61944444444445 17.1  3.64166666666667 17  L 19.4222222222222 17  C 20.4444444444444 17.1  21.275 16.2766666666667  21 15.2633333333333  L 21 3.16666666666667  C 21.275 2.15333333333333  20.4444444444444 1.33  19.4222222222222 1.33  L 3.64166666666667 1.33  Z " fill-rule="nonzero" fill="#754c24" stroke="none" transform="matrix(1 0 0 1 109 243 )" />
  </g>
</svg>