<?xml version="1.0" encoding="utf-8"?>
<svg version="1.1" xmlns:xlink="http://www.w3.org/1999/xlink" width="25px" height="14px" xmlns="http://www.w3.org/2000/svg">
  <g transform="matrix(1 0 0 1 -108 -238 )">
    <path d="M 24.375 8.46363636363636  C 24.4375 7.95454545454546  24.3125 7.44545454545455  24.1875 7  C 24.1875 6.93636363636364  24.1875 6.93636363636364  24.1875 7  C 24.1875 6.93636363636364  24.1875 6.87272727272727  24.125 6.80909090909091  L 22.125 1.71818181818182  C 21.75 0.636363636363636  20.8125 0  19.625 0  L 5.5 0  C 4.3125 0  3.4375 0.636363636363636  3.0625 1.65454545454545  L 0.875 6.87272727272727  L 0.875 7  C 0.6875 7.50909090909091  0.625 8.01818181818182  0.625 8.52727272727273  C 0.625 10.3090909090909  1.5625 11.9  3.125 12.7272727272727  C 3.75 13.0454545454545  4.5 13.2363636363636  5.3125 13.2363636363636  C 6.6875 13.2363636363636  8 12.6  8.9375 11.5181818181818  C 9.8125 12.6  11.125 13.2363636363636  12.5 13.2363636363636  C 13.875 13.2363636363636  15.1875 12.6  16.0625 11.5181818181818  C 16.9375 12.6  18.25 13.2363636363636  19.6875 13.2363636363636  C 20.5625 13.2363636363636  21.3125 13.0454545454545  21.9375 12.6636363636364  C 23.4375 11.8363636363636  24.375 10.1818181818182  24.375 8.46363636363636  Z " fill-rule="nonzero" fill="#ffd02b" stroke="none" transform="matrix(1 0 0 1 108 238 )" />
  </g>
</svg>