<?xml version="1.0" encoding="utf-8"?>
<svg version="1.1" xmlns:xlink="http://www.w3.org/1999/xlink" width="25px" height="15px" xmlns="http://www.w3.org/2000/svg">
  <g transform="matrix(1 0 0 1 -108 -237 )">
    <path d="M 8.9375 13.5  C 8 14.375  6.75 14.875  5.375 14.875  C 4.4375 14.875  3.5625 14.6875  2.875 14.3125  C 1.125 13.375  0.0625 11.5625  0.0625 9.625  C 0.0625 9.0625  0.125 8.5  0.3125 8  C 0.3125 7.9375  0.3125 7.875  0.375 7.8125  L 2.5 2.625  C 2.9375 1.4375  4.0625 0.625  5.5 0.625  L 19.5625 0.625  C 21.0625 0.625  22.25 1.4375  22.6875 2.75  L 24.6875 7.6875  C 24.6875 7.75  24.75 7.875  24.75 7.9375  C 24.9375 8.4375  25 9  25 9.5625  C 25 11.5  23.9375 13.3125  22.25 14.25  C 21.5 14.625  20.6875 14.875  19.6875 14.875  C 18.3125 14.875  17.0625 14.375  16.0625 13.5  C 15.125 14.375  13.8125 14.875  12.5 14.875  C 11.1875 14.875  9.875 14.375  8.9375 13.5  Z M 19.625 2  L 5.5 2  C 4.625 1.875  3.9375 2.3125  3.6875 3.0625  L 1.5 8.1875  L 1.5 8.25  C 1.375 8.6875  1.3125 9.125  1.3125 9.5  C 1.3125 11  2.125 12.375  3.5 13.125  C 4.0625 13.4375  4.6875 13.5625  5.4375 13.5625  C 6.625 13.5625  7.8125 13  8.5625 12.125  C 8.6875 12  8.875 11.875  9.0625 11.875  C 9.25 11.875  9.4375 11.9375  9.5625 12.125  C 10.3125 13.0625  11.4375 13.5625  12.6875 13.5625  C 13.875 13.5625  15 13  15.75 12.125  C 15.875 12  16.0625 11.875  16.25 11.875  C 16.4375 11.875  16.625 11.9375  16.75 12.125  C 17.5 13.0625  18.6875 13.5625  19.875 13.5625  C 20.625 13.5625  21.3125 13.375  21.8125 13.125  C 23.125 12.4375  23.9375 11.0625  23.9375 9.5625  C 23.9375 9.125  23.875 8.6875  23.75 8.3125  L 23.75 8.25  L 21.5625 3.125  C 21.25 2.3125  20.5625 1.875  19.625 2  Z " fill-rule="nonzero" fill="#754c24" stroke="none" transform="matrix(1 0 0 1 108 237 )" />
  </g>
</svg>