<?xml version="1.0" encoding="utf-8"?>
<svg version="1.1" xmlns:xlink="http://www.w3.org/1999/xlink" width="24px" height="18px" xmlns="http://www.w3.org/2000/svg">
  <g transform="matrix(1 0 0 1 -238 -242 )">
    <path d="M 24 15.2257142912946  C 23.9800720698674 16.4899320424289  22.9739683278349 17.5140019339346  21.7319298355263 17.5171428683036  L 2.40280702302632 17.5171428683036  C 1.16135919541841 17.5163548300292  0.155160183436265 16.4921879785473  0.154385970394737 15.2285714397321  L 0.154385970394737 0.907142845982143  C 0.154385970394737 0.878571411830358  0.154385970394737 0.851428551897321  0.157192993421053 0.827142865513393  C 0.191507120225681 0.509995987998546  0.45476886911632 0.269923392385627  0.768235551764773 0.269923392385627  C 1.09794733241461 0.269923392385627  1.36894671928887 0.534682325237351  1.38245615131579 0.869999991629465  L 1.38245615131579 15.2257142912946  C 1.38245615131579 15.7999999972098  1.84140352796053 16.2657142885045  2.40561404605263 16  L 21.7347368338816 16  C 21.7347368338816 16.2657142885045  21.7347368338816 16.2657142885045  21.7347368338816 16.2657142885045  C 22.2990361978088 16.2657142885045  22.7564912171053 15.8000904295777  22.7564912171053 15.2257142912946  L 22.7564912171053 0.907142845982143  C 22.7783317145748 0.578723862938109  23.0464289642569 0.323686136821115  23.3698245518092 0.323686136821115  C 23.6932201393615 0.323686136821115  23.9613173890436 0.578723862938109  24 0.907142845982143  L 24 15.2257142912946  Z " fill-rule="nonzero" fill="#02bc67" stroke="none" transform="matrix(1 0 0 1 238 242 )" />
  </g>
</svg>