<?xml version="1.0" encoding="utf-8"?>
<svg version="1.1" xmlns:xlink="http://www.w3.org/1999/xlink" width="3px" height="7px" xmlns="http://www.w3.org/2000/svg">
  <g transform="matrix(1 0 0 1 -220 -550 )">
    <path d="M 2.04999134765625 1.62273651367187  C 2.00859658418515 1.07092468595224  1.73179144583793 0.580535330206929  1.31362822265625 0.318191949869791  C 1.00453751953125 0.249252613932293  0.97726482421875 0.408343404947917  0.945446640625001 0.604555387369792  L 0.822719453125002 1.32576700520833  C 0.789262475269982 1.52335941870613  0.898968906761077 1.71534568400001  1.068173828125 1.75531218424479  L 1.68180978515625 1.90909995117187  C 1.85453693359375 1.94622114257812  1.99090048828125 1.97803928710937  2.04999134765625 1.62273651367187  Z M 1.43635541015625 4.26364380859375  L 1.43635541015625 4.25303773763021  L 0.6272650390625 5.19697650390625  C 0.522971828131721 5.32226937415996  0.46463429596764 5.4900465928758  0.46463429596764 5.66469827309939  C 0.46463429596764 6.03548192279387  0.722273899242907 6.33606145994835  1.04008845612389 6.33606145994835  C 1.18756632618257 6.33606145994835  1.32941534573762 6.27000285698181  1.43635541015625 6.15152129557292  L 2.2409003125 5.20758255208333  C 2.32792020909103 5.08709171840105  2.37564453350483 4.93460055246798  2.37564453350483 4.77704102810891  C 2.37564453350483 4.40801465608137  2.11922597738558 4.10885967394224  1.80291765850483 4.10885967394224  C 1.6689755417223 4.10885967394224  1.53926985082916 4.16362904316866  1.43635541015625 4.26364380859375  Z " fill-rule="nonzero" fill="#cda05a" stroke="none" transform="matrix(1 0 0 1 220 550 )" />
  </g>
</svg>