<?xml version="1.0" encoding="utf-8"?>
<svg version="1.1" xmlns:xlink="http://www.w3.org/1999/xlink" width="19px" height="18px" xmlns="http://www.w3.org/2000/svg">
  <g transform="matrix(1 0 0 1 -241 -238 )">
    <path d="M 18.9071111028646 2.16857142020089  L 18.9071111028646 2.16714284598214  C 18.9060278975894 1.89523068344882  18.7328179367338 1.65485463180876  18.4778518463542 1.57142857700893  C 18.3596296158854 1.5328571484375  18.2385925898438 1.49714286830357  18.1217777695313 1.45714286551339  C 16.3906666666667 0.9028571484375  14.7524444361979 0.378571439732143  13.2549629739583 0.212857131696428  C 11.7025926145833 0.0414285518973213  10.4922222304688 0.295714285714285  9.57459258984375 0.99428572265625  C 8.65555556380208 0.300000008370536  7.4451851796875 0.0400000027901786  5.8928148203125 0.214285705915179  C 4.39533333333333 0.379999988839286  2.75851851302083 0.904285697544643  1.026 1.45857143973214  C 0.9091851796875 1.49857144252232  0.790962973958333 1.53428572265625  0.671333333333331 1.57285715122768  C 0.414709435585742 1.65394126936153  0.240456225197251 1.89576511420224  0.242074076822915 2.16857142020089  L 0.242074076822915 16.7757142801339  C 0.253333333333332 17.1014285742188  0.517925923177082 17.3614285546875  0.840222230468749 17.3614285797991  L 18.3061481536458 17.3614285797991  C 18.6361752039318 17.3606431357379  18.9035224994388 17.0892755801481  19 16.7542857170759  L 19 2.16857142020089  L 18.9071111028646 2.16857142020089  Z M 17.1774074101562 16.1457142801339  L 17.176 16.1457142801339  L 10.0770370260417 16.1457142801339  C 11.6955555390625 14.8799999832589  13.8559259231771 14.871428563058  17.1774074101562 16.1457142801339  Z M 10 2.07142857421875  L 10.2177777695313 2.07  C 11.8025185130208 0.758571428571429  14.6553333333333 1.65714285435268  17.6770370260417 2.62571429129464  L 17.6770370260417 15.002857140067  C 16.1035555390625 14.3928571289062  14.8115555390625 14.061428563058  13.6588888971354 13.9699999888393  C 13.4467486980127 13.9537367202916  13.2340777179491 13.9456356756791  13.0213333333333 13.9457142773437  C 12.4231851796875 13.9457142773437  11.8602222304688 14.0142857142857  11.3352592565104 14.1557142857143  C 10.9488055028408 14.2597101495937  10.5742387688385 14.4047988021069  10 14.5885714202009  L 10 2.07142857421875  Z M 9.06933333333333 16.1457142801339  L 9.07074074348958 16.1457142801339  L 1.96896297395833 16.1457142801339  C 5.2904444609375 14.871428563058  7.4508148203125 14.8799999832589  9.06933333333333 16.1457142801339  Z M 1.47214815364583 15.002857140067  L 1.47214815364583 2.62571429129464  C 4.49385184635417 1.65714285435268  7.34666666666667 0.758571428571428  9 2.07  L 9 14.585714296875  C 8.57469313465451 14.4028849515459  8.20017577854233 14.2582941954302  7.81392592317708 14.1542857114955  C 7.0554914191298 13.9612247136988  6.27048263301756 13.8989283884195  5.49170369270833 13.9699999888393  C 4.33762961588542 14.061428563058  3.04281479557292 14.3928571289063  1.47214815364583 15.002857140067  Z " fill-rule="nonzero" fill="#02bc67" stroke="none" transform="matrix(1 0 0 1 241 238 )" />
  </g>
</svg>