<?xml version="1.0" encoding="utf-8"?>
<svg version="1.1" xmlns:xlink="http://www.w3.org/1999/xlink" width="19px" height="19px" xmlns="http://www.w3.org/2000/svg">
  <g transform="matrix(1 0 0 1 -27 -405 )">
    <path d="M 9.50204367707317 0.914224835121951  C 4.75400356988569 0.914224835121951  0.904956560975606 4.76327184403203  0.904956560975606 9.51131195121951  C 0.904956560975606 14.259352058407  4.75400356988569 18.1083990673171  9.50204367707317 18.1083990673171  C 14.2500837842606 18.1083990673171  18.0991307931707 14.259352058407  18.0991307931707 9.51131195121951  C 18.0991307931707 4.76327184403203  14.2500837842606 0.914224835121951  9.50204367707317 0.914224835121951  Z M 9.50204365853659 16.7509642721951  C 5.50369408758465 16.7509642721951  2.26239133756098 13.5096615221715  2.26239133756098 9.51131195121951  C 2.26239133756098 5.51296238026757  5.50369408758465 2.2716596302439  9.50204365853659 2.2716596302439  C 13.5003932294885 2.2716596302439  16.7416959795122 5.51296238026757  16.7416959795122 9.51131195121951  C 16.7416959795122 13.5096615221715  13.5003932294885 16.7509642721951  9.50204365853659 16.7509642721951  Z M 12.8292332109899 9.5  C 12.8292332109899 9.32255890136168  12.7403378359769 9.15691793463982  12.5924702517073 9.05883368  L 10.361752377561 7.75569626926829  L 7.99076623414634 6.37111277268292  C 7.93388944805652 6.34419574090088  7.8717488148292 6.33023394503812  7.80882429340979 6.33023394503812  C 7.5739212583814 6.33023394503812  7.38349472365369 6.52066047976583  7.38349472365369 6.75556351479422  C 7.38349472365369 6.77834941012076  7.38532575909296 6.8010984614422  7.38897015121951 6.82359102536585  L 7.38897015121951 12.1718841756098  C 7.38532575693141 12.1943767460619  7.38349472040084 12.2171258041406  7.38349472040084 12.2399117062574  C 7.38349472040084 12.4748147412858  7.57392125512856 12.6652412760135  7.80882429015694 12.6652412760135  C 7.87174881279069 12.6652412760135  7.93388944718664 12.651279479612  7.99076623414634 12.6243624468293  L 10.361752377561 11.2397789502439  L 12.5924702517073 9.94116632  C 12.7403378359769 9.84308206536019  12.8292332109899 9.67744109863832  12.8292332109899 9.5  Z " fill-rule="nonzero" fill="#ffffff" stroke="none" transform="matrix(1 0 0 1 27 405 )" />
  </g>
</svg>