<?xml version="1.0" encoding="utf-8"?>
<svg version="1.1" xmlns:xlink="http://www.w3.org/1999/xlink" width="15px" height="15px" xmlns="http://www.w3.org/2000/svg">
  <g transform="matrix(1 0 0 1 -195 -49 )">
    <path d="M 14.2708333333333 7.5  C 14.2708333333333 3.759765625  11.240234375 0.729166666666667  7.5 0.729166666666667  C 3.759765625 0.729166666666667  0.729166666666667 3.759765625  0.729166666666667 7.5  C 0.729166666666667 11.240234375  3.759765625 14.2708333333333  7.5 14.2708333333333  C 11.240234375 14.2708333333333  14.2708333333333 11.240234375  14.2708333333333 7.5  Z M 9.951171875 9.951171875  C 9.74934895833333 10.15625  9.41731770833334 10.15625  9.21549479166667 9.951171875  L 7.5 8.23567708333333  L 5.78450520833333 9.951171875  C 5.58268229166667 10.1529947916667  5.25065104166667 10.1529947916667  5.048828125 9.951171875  C 4.94791666666667 9.85026041666667  4.89583333333333 9.716796875  4.89583333333333 9.58333333333333  C 4.89583333333333 9.44986979166667  4.94791666666667 9.31640625  5.048828125 9.21549479166667  L 6.76432291666667 7.5  L 5.048828125 5.78450520833333  C 4.94791666666667 5.68359375  4.89583333333333 5.55013020833333  4.89583333333333 5.41666666666667  C 4.89583333333333 5.283203125  4.94791666666667 5.14973958333333  5.048828125 5.048828125  C 5.25065104166667 4.84700520833333  5.58268229166667 4.84700520833333  5.78450520833333 5.048828125  L 7.5 6.76432291666667  L 9.21549479166667 5.048828125  C 9.41731770833334 4.84700520833333  9.74934895833333 4.84700520833333  9.951171875 5.048828125  C 10.1529947916667 5.25065104166667  10.1529947916667 5.58268229166667  9.951171875 5.78450520833333  L 8.23567708333333 7.5  L 9.951171875 9.21549479166667  C 10.1529947916667 9.41731770833333  10.1529947916667 9.74934895833333  9.951171875 9.951171875  Z " fill-rule="nonzero" fill="#bfbfbf" stroke="none" transform="matrix(1 0 0 1 195 49 )" />
  </g>
</svg>