<?xml version="1.0" encoding="utf-8"?>
<svg version="1.1" xmlns:xlink="http://www.w3.org/1999/xlink" width="17px" height="9px" xmlns="http://www.w3.org/2000/svg">
  <g transform="matrix(1 0 0 1 -261 -60 )">
    <path d="M 6.17294309853659 0.995642267317074  C 6.13982114731707 1.00224390243903  6.10647156292683 1.00850404682927  6.07357724487805 1.01533334243902  C 6.10647156292683 1.00839024390244  6.13982114731707 1.00224390243903  6.17294309853659 0.995642267317074  Z M 9.24565853658537 0.88796748878049  C 9.20764226731708 0.883073170731706  9.16996748878049 0.877837416585372  9.13172358634146 0.873512195121954  C 9.16996748878049 0.877837389268294  9.20764229463415 0.883073170731706  9.24565853658537 0.88796748878049  Z M 5.34978860878049 1.19949592585366  C 5.32349592585366 1.20746341463415  5.29765853658536 1.216  5.27147968390244 1.22408129170731  C 5.29754473365854 1.216  5.32349595317073 1.20746341463415  5.34978860878049 1.19949592585366  Z M 10.0088292682927 1.01567480585366  C 9.97491056 1.00839024390244  9.94053658536585 1.00201626926829  9.90627641365854 0.995300803902438  C 9.94042275512195 1.00213007219512  9.97491056 1.00850404682927  10.0088292682927 1.01567480585366  Z M 10.8137723668293 1.22544714536586  C 10.7856585365854 1.21668292682927  10.7577723668293 1.20757721756097  10.7294309034146 1.19904065951219  C 10.7576585365854 1.20757724487805  10.7855447336585 1.21668292682927  10.8137723668293 1.22544714536586  Z M 16.0223414634146 6.48330080390244  C 15.311756097561 4.01611380292683  13.5185040741463 2.15866665756098  11.0804552936585 1.3129756097561  L 11.138845537561 1.33369104780488  C 11.0644652109697 1.54473356484132  10.9685787189618 1.7475674470371  10.8526991960976 1.93899187902439  C 11.3210731707317 2.66027644097561  11.2034959531707 5.80538212292683  10.4996260253659 5.30832519414634  L 9.26717073170732 4.44362602536585  L 8.03790243902439 3.57892682926829  L 8.11848780487805 3.52213007219512  C 8.09162602536586 3.52281299902439  8.06487804878049 3.52417885268293  8.03790243902439 3.52417885268293  C 8.00978860878049 3.52417885268293  7.98201626926829 3.52269916878049  7.95401626926829 3.52201626926829  L 8.03460163512195 3.5789268292683  L 6.80533334243903 4.44362602536586  L 5.57287804878049 5.30832519414634  C 4.8650243902439 5.80629268292683  4.74778860878049 2.64957721756098  5.22094309853659 1.93546341463415  C 5.10629324283875 1.74551353281542  5.01129328877851 1.54437754661598  4.93741463414634 1.33517073170732  C 4.95744714536586 1.328  4.97736585365854 1.32094309853659  4.99739836487805 1.31400000000001  C 2.55855282731708 2.16060163512196  0.76598373073171 4.01850407414634  0.057447145365856 6.48614634146342  C 2.32078048780488 8.06177236682927  5.07115446243903 8.98634146341464  8.03778860878049 8.98634146341464  C 11.006243902439 8.98634146341464  13.7580975609756 8.06063414634147  16.0223414634146 6.48330080390244  Z M 6.95 0.873512195121954  C 6.91209756097561 0.877837389268294  6.87476421853659 0.883073170731706  6.83708944 0.887853658536585  C 6.87476424585366 0.883073170731706  6.91221139121951 0.877837389268294  6.95 0.873512195121954  Z " fill-rule="nonzero" fill="#cfe07d" stroke="none" transform="matrix(1 0 0 1 261 60 )" />
  </g>
</svg>