<?xml version="1.0" encoding="utf-8"?>
<svg version="1.1" xmlns:xlink="http://www.w3.org/1999/xlink" width="8px" height="5px" xmlns="http://www.w3.org/2000/svg">
  <g transform="matrix(1 0 0 1 -265 -61 )">
    <path d="M 6.85269919609756 0.938991879024393  C 6.75856912390244 0.794097560975615  6.64110570926829 0.746520343414637  6.49973982829268 0.846341463414632  L 5.26728456195122 1.71104065951219  L 4.11848780487805 2.52213007219513  L 4.03790243902439 2.5789268292683  L 5.26717073170732 3.44362602536586  L 6.49962602536585 4.30832519414634  C 7.20349595317073 4.80538209560976  7.3210731707317 1.66027641365854  6.85269919609756 0.938991879024393  Z M 2.80556097560976 1.71092682926829  L 1.57299187902439 0.846341463414632  C 1.43230895219512 0.747430903414639  1.31507317073171 0.793414634146345  1.22105690146341 0.935349584390245  C 0.74790243902439 1.64934958439024  0.865138193170733 4.80617885268293  1.57299187902439 4.30821139121951  L 2.80544714536585 3.44351219512195  L 4.03471543804878 2.57881299902439  L 3.95413007219512 2.52190243902439  L 2.80556097560976 1.71092682926829  Z " fill-rule="nonzero" fill="#7ea701" stroke="none" transform="matrix(1 0 0 1 265 61 )" />
  </g>
</svg>