<?xml version="1.0" encoding="utf-8"?>
<svg version="1.1" xmlns:xlink="http://www.w3.org/1999/xlink" width="25px" height="25px" xmlns="http://www.w3.org/2000/svg">
  <g transform="matrix(1 0 0 1 -173 -164 )">
    <path d="M 13.75 20.625  L 13.75 18.5058333251953  C 17.009460650808 17.9031588437204  19.3748029766745 15.0605429996568  19.375 11.7458333251953  L 19.375 8.125  C 19.375 7.77982203135575  19.0951779686442 7.5  18.75 7.5  C 18.4048220313558 7.5  18.125 7.77982203135575  18.125 8.125  L 18.125 11.7458333251953  C 18.1245398495153 14.8516493714816  15.6066494672962 17.3691667365502  12.5008333869225 17.3691667365502  C 9.3933505327038 17.3691667365502  6.87546015048474 14.8516493714816  6.875 11.7458333251953  L 6.875 8.125  C 6.875 7.77982200501398  6.59517796864425 7.49999997365822  6.25 7.49999997365822  C 5.90482203135575 7.49999997365822  5.625 7.77982200501398  5.625 8.12499997365822  L 5.625 11.7458333251953  C 5.62519702332547 15.0605429996568  7.99053934919199 17.9031588437204  11.25 18.5058333251953  L 11.25 20.625  L 13.75 20.625  Z M 25 12.5  C 25 19.4033333251953  19.4033333251953 25  12.5 25  C 5.59666667480469 25  0 19.4033333251953  0 12.5  C 0 5.59666667480469  5.59666667480469 0  12.5 0  C 19.4033333251953 0  25 5.59666667480469  25 12.5  Z M 8.75 21.25  C 8.75 21.595  9.08583332519531 21.875  9.5 21.875  L 15.5 21.875  C 15.9141666748047 21.875  16.25 21.595  16.25 21.25  C 16.25 20.905  15.9141666748047 20.625  15.5 20.625  L 9.5 20.625  C 9.08583332519531 20.625  8.75 20.905  8.75 21.25  Z M 12.5 3.125  C 10.4289321881345 3.125  8.75 4.80393218813453  8.75 6.875  L 8.75 11.875  C 8.75 13.9460678908908  10.4289321881345 15.6250000790253  12.5 15.6250000790253  C 14.5710678118655 15.6250000790253  16.25 13.9460678908908  16.25 11.8750000790253  L 16.25 6.875  C 16.25 4.80393218813452  14.5710678118655 3.125  12.5 3.125  Z " fill-rule="nonzero" fill="#fad232" stroke="none" transform="matrix(1 0 0 1 173 164 )" />
  </g>
</svg>