<?xml version="1.0" encoding="utf-8"?>
<svg version="1.1" xmlns:xlink="http://www.w3.org/1999/xlink" width="12px" height="23px" xmlns="http://www.w3.org/2000/svg">
  <g transform="matrix(1 0 0 1 -58 -165 )">
    <path d="M 2.08809523809524 9.760625  C 2.1047619047619 9.760625  5.08809523809524 9.39166666666667  4.73809523809524 0.586979166666668  C 4.73809523809524 0.586979166666668  7.02142857142857 8.9053125  2.1047619047619 10.9513541666667  C 2.1047619047619 10.9513541666667  1.13809523809523 16.3851041666667  3.18809523809524 17.3410416666667  C 3.18809523809524 17.3410416666667  3.67142857142857 12.6116666666667  6.53809523809524 9.74385416666667  C 8.23809523809524 8.05  8.90476190476191 3.99145833333333  8.77142857142857 2.43177083333333  C 8.63809523809524 0.872083333333335  8.43809523809524 0.234791666666668  8.43809523809524 0.234791666666668  C 8.43809523809524 0.234791666666668  9.40476190476191 3.82375  9.03809523809523 6.23875  C 9.03809523809523 6.23875  11.3214285714286 6.15489583333334  11.6714285714286 1.44229166666667  C 11.6714285714286 1.44229166666667  12.7380952380952 6.741875  8.78809523809524 7.22822916666667  C 8.78809523809524 7.22822916666667  8.1047619047619 9.27427083333334  5.67142857142857 12.4775  C 5.67142857142857 12.4775  8.30476190476191 14.7080208333333  11.3047619047619 11.3370833333333  C 11.3047619047619 11.3370833333333  10.1047619047619 15.3117708333333  5.43809523809524 13.7520833333333  C 5.43809523809524 13.7520833333333  4.6047619047619 14.1210416666667  4.83809523809524 22.9089583333333  L 2.93809523809524 22.9089583333333  L 2.93809523809524 19.6386458333333  C 2.93809523809524 19.6386458333333  -0.411904761904761 18.6659375  0.538095238095236 12.5278125  C 0.538095238095236 12.5278125  1.8547619047619 6.37291666666666  2.08809523809524 4.20947916666667  C 2.08809523809524 4.20947916666667  2.30476190476191 6.138125  2.08809523809524 9.760625  Z " fill-rule="nonzero" fill="#15dfa7" stroke="none" transform="matrix(1 0 0 1 58 165 )" />
  </g>
</svg>