<?xml version="1.0" encoding="utf-8"?>
<svg version="1.1" xmlns:xlink="http://www.w3.org/1999/xlink" width="8px" height="16px" xmlns="http://www.w3.org/2000/svg">
  <g transform="matrix(1 0 0 1 -40 -173 )">
    <path d="M 6.60714285714286 6.67160493827161  C 6.60714285714286 6.65432098765432  4.65714285714286 6.41234567901235  4.89047619047619 0.518518518518518  C 4.89047619047619 0.518518518518518  3.40714285714286 6.08395061728395  6.60714285714286 7.44938271604938  C 6.60714285714286 7.44938271604938  7.22380952380953 11.079012345679  5.90714285714286 11.7185185185185  C 5.90714285714286 11.7185185185185  5.59047619047619 8.55555555555555  3.72380952380952 6.63703703703703  C 2.62380952380952 5.4962962962963  2.19047619047619 2.78271604938271  2.27380952380952 1.74567901234567  C 2.29542851143628 1.24936820019909  2.36806204187431 0.756867338539493  2.49047619047619 0.27654320987654  C 2.49047619047619 0.27654320987654  1.87380952380952 2.67901234567901  2.10714285714286 4.28641975308641  C 2.10714285714286 4.28641975308641  0.623809523809525 4.23456790123456  0.390476190476192 1.08888888888888  C 0.390476190476192 1.08888888888888  -0.309523809523808 4.63209876543209  2.25714285714286 4.96049382716049  C 2.25714285714286 4.96049382716049  2.70714285714286 6.32592592592592  4.27380952380953 8.46913580246913  C 4.27380952380953 8.46913580246913  2.55714285714286 9.95555555555555  0.623809523809526 7.70864197530864  C 0.623809523809526 7.70864197530864  1.40714285714286 10.3703703703704  4.44047619047619 9.31604938271605  C 4.44047619047619 9.31604938271605  4.99047619047619 9.55802469135802  4.82380952380953 15.4518518518518  L 6.07380952380953 15.4518518518518  L 6.07380952380953 13.2740740740741  C 6.07380952380953 13.2740740740741  8.25714285714286 12.6345679012346  7.62380952380953 8.52098765432099  C 7.62380952380953 8.52098765432099  6.77380952380953 4.40740740740741  6.60714285714286 2.95555555555556  C 6.60714285714286 2.95555555555556  6.45714285714286 4.25185185185186  6.60714285714286 6.67160493827161  Z " fill-rule="nonzero" fill="#15dfa7" stroke="none" transform="matrix(1 0 0 1 40 173 )" />
  </g>
</svg>