<?xml version="1.0" encoding="utf-8"?>
<svg version="1.1" xmlns:xlink="http://www.w3.org/1999/xlink" width="8px" height="15px" xmlns="http://www.w3.org/2000/svg">
  <g transform="matrix(1 0 0 1 -50 -173 )">
    <path d="M 2.72619047619048 6.505  C 2.72619047619048 6.505  0.55952380952381 4.055  0.392857142857143 2.9175  C 0.392857142857143 2.9175  0.792857142857144 5.6125  2.44285714285714 7.31  C 4.09285714285714 9.0075  3.10952380952381 14.9925  3.10952380952381 14.9925  L 4.25952380952381 14.94  C 4.25952380952381 14.94  4.49285714285715 12.1225  4.40952380952381 10.705  C 4.40952380952381 10.705  6.32619047619048 9.7425  6.67619047619048 8.08  C 7.02619047619048 6.4175  7.12619047619048 4.2125  7.52619047619048 3.7925  C 7.52619047619048 3.7925  6.07619047619048 6.2425  5.89285714285715 7.66  C 5.70952380952381 9.0775  4.04285714285715 9.4625  4.04285714285715 9.4625  C 4.04285714285715 9.4625  3.62619047619048 7.7825  3.14285714285715 7.1175  C 3.14285714285715 7.1175  3.94285714285715 5.8925  3.65952380952381 3.93250000000001  C 3.49196905180131 2.74298486171325  3.65397125164398 1.52796836289321  4.12619047619048 0.432500000000003  C 3.34784333997249 1.28922631005819  2.92264405805403 2.4336711378697  2.94285714285715 3.6175  C 3.00952380952381 5.91  2.72619047619048 6.505  2.72619047619048 6.505  Z " fill-rule="nonzero" fill="#15dfa7" stroke="none" transform="matrix(1 0 0 1 50 173 )" />
  </g>
</svg>