<?xml version="1.0" encoding="utf-8"?>
<svg version="1.1" xmlns:xlink="http://www.w3.org/1999/xlink" width="19px" height="20px" xmlns="http://www.w3.org/2000/svg">
  <g transform="matrix(1 0 0 1 -58 -168 )">
    <path d="M 8.48906951688879 0.445374511718752  L 8.48767293830423 0.442597656249985  C 8.51560483743107 2.08788528645834  9.50299794634651 2.83069449869793  10.7822795484835 3.17502473958333  L 14.5209659983915 3.27776842447918  L 14.5070000488281 4.22884189453125  L 12.6718733921186 4.23300716145835  C 12.6718733921186 4.76755208333335  13.0908520754825 5.20074176432293  13.6103856611903 5.20074176432293  C 13.6876101820936 5.2012086260631  13.7645789960674 5.19187706986388  13.839427332261 5.17297317708334  C 13.9050673115809 5.20074173177082  13.9511549942555 5.25905572916666  13.9679141337316 5.32986559244793  C 13.2458741974954 6.37118688151042  12.5238342612592 7.40973131510417  11.8003977464384 8.44688733723959  L 3.88170057846967 8.44688733723959  L 1.71418419117647 10.7377941731771  L 2.71414663832721 13.7284689453125  L 1.11644125517003 15.3348805989583  L 1.03823190487133 19.8542150065104  L 2.08986841452206 19.8750414388021  L 2.13176626321232 15.9971609375  L 3.49344698414522 15.6569959960938  L 5.56459830307905 19.9347438802083  L 6.57992331112132 19.8750414388021  L 4.52134136316636 15.1599386067708  L 5.63163489372703 13.796501953125  L 11.231983320887 13.7076425130208  L 11.3925918227252 13.9492290690104  L 9.81164557904411 19.9694545898438  L 10.8968003676471 19.9902809895833  L 12.1146317589614 15.6361695638021  L 12.3129483409926 15.6611612630208  L 14.0209847748162 19.9694545898438  L 15.1731761540671 19.9055868815104  L 13.0838691170726 14.16165859375  L 13.0280052860754 13.7076425130209  L 13.7207167118566 13.2355768554688  L 15.4943931577436 7.36391318359375  L 18.9663298563879 4.99525436197915  L 18.9956583668428 4.24272617187499  L 15.3268016647518 4.20523860677084  L 15.3268016647518 3.26943785807291  C 16.0718698747741 3.15148509507686  16.7276485201213 2.71516481825437  17.1214270513557 2.07538945312501  C 17.1739473573615 1.88369427930272  17.0639003812995 1.68517009496384  16.8728330181526 1.62692708333332  C 16.8039806280396 1.60749081497768  16.7307413088987 1.60991784211701  16.6633436764706 1.63386920572915  C 13.3129107881434 4.12332132161459  12.5713185225184 1.22705970052083  12.3674155606618 0.882729459635432  C 12.2100988538259 0.74200956103542  11.9687230238767 0.751238959016815  11.8227432657399 0.903555891927081  C 11.7040326453355 1.0562830078125  11.6914632743566 1.34924140625  12.3883645013787 2.34752141927083  C 12.423279391659 2.40861227213543  12.4037270622702 2.4863642578125  12.3464666199449 2.52246337890625  C 12.3328241565337 2.53089994508798  12.3176341122133 2.53656290020744  12.3017755813419 2.53912451171876  C 10.9233357209329 2.69601692708332  8.9303937522978 2.39056266276041  8.94994608168658 0.437043945312515  C 8.94994608168658 0.437043945312515  8.62872907801011 0.189903678385406  8.48906951688879 0.445374511718752  Z " fill-rule="nonzero" fill="#c0ad52" stroke="none" transform="matrix(1 0 0 1 58 168 )" />
  </g>
</svg>