<?xml version="1.0" encoding="utf-8"?>
<svg version="1.1" xmlns:xlink="http://www.w3.org/1999/xlink" width="27px" height="25px" xmlns="http://www.w3.org/2000/svg">
  <g transform="matrix(1 0 0 1 -109 -164 )">
    <path d="M 4.96875 8.63970588235294  C 4.96875 4.0204124784373  8.78832072800605 0.275735294117647  13.5 0.275735294117647  C 18.1152370641268 0.275819694683701  21.8936074090291 3.87422110012337  22.0275 8.39705882352941  L 22.03125 8.63970588235294  L 22.03125 9.46691176470588  L 22.40625 9.46691176470588  C 24.7879779836453 9.46691176470588  26.71875 11.3598255062301  26.71875 13.6948529411765  L 26.71875 15.5330882352941  C 26.71875 17.8681156702405  24.7879779836453 19.7610294117647  22.40625 19.7610294117647  L 22.0265625 19.7610294117647  C 22.02375 19.796875  22.018125 19.8318014705882  22.0115625 19.8676470588235  C 21.4396875 22.6654411764706  19.9209375 24.2582720588235  17.5621875 24.3529411764706  L 17.3390625 24.3566176470588  L 15.75 24.3566176470588  C 15.7483151426703 24.3566257434571  15.7466302676324 24.3566297916744  15.7449453900638 24.3566297916744  C 15.1754017418008 24.3566297916744  14.7136953900638 23.9039765056578  14.7136953900638 23.3456003799097  C 14.7136953900638 22.8280048047942  15.1124258851723 22.3940015376189  15.6375 22.3400735294118  L 15.75 22.3345588235294  L 17.3390625 22.3345588235294  C 18.6646875 22.3345588235294  19.4925 21.5698529411765  19.9246875 19.7628676470588  L 19.59375 19.7610294117647  C 18.7653228752538 19.7610294117647  18.09375 19.1026246321041  18.09375 18.2904411764706  L 18.09375 10.9375  C 18.09375 10.1253165443665  18.7653228752538 9.46691176470588  19.59375 9.46691176470588  L 19.96875 9.46691176470588  L 19.96875 8.63970588235294  C 19.9687501990823 8.63906354134137  19.9687502986234 8.63842120031856  19.9687502986234 8.63777885927734  C 19.9687502986234 5.13523770685778  17.0725922740913 2.29586709457146  13.5000002986234 2.29586709457146  C 10.0131267831664 2.29586709457146  7.15370702033238 5.00535313679016  7.035 8.421875  L 7.03125 8.63970588235294  L 7.0303125 9.46691176470588  L 7.40625 9.46691176470588  C 8.18152549626873 9.46706607334968  8.82894362548457 10.0464058071605  8.8996875 10.8033088235294  L 8.90625 10.9375  L 8.90625 18.2904411764706  C 8.90625 19.1026246321041  8.23467712474619 19.7610294117647  7.40625 19.7610294117647  L 4.59375 19.7610294117647  C 2.2120220163547 19.7610294117647  0.28125 17.8681156702405  0.28125 15.5330882352941  L 0.28125 13.6948529411765  C 0.28125 11.3598255062301  2.2120220163547 9.46691176470588  4.59375 9.46691176470588  L 4.96875 9.46691176470588  L 4.96875 8.63970588235294  Z M 6.84375 17.7389705882353  L 6.84375 11.4889705882353  L 4.59375 11.4889705882353  C 3.41092334575406 11.4891590830723  2.4302014734819 12.3871942471265  2.349375 13.5441176470588  L 2.34375 13.6948529411765  L 2.34375 15.5330882352941  C 2.34375 16.7513634187444  3.35110931288072 17.7389705882353  4.59375 17.7389705882353  L 6.84375 17.7389705882353  Z M 24.650625 13.5441176470588  C 24.5697985265181 12.3871942471265  23.5890766542459 11.4891590830723  22.40625 11.4889705882353  L 20.15625 11.4889705882353  L 20.15625 17.7389705882353  L 22.40625 17.7389705882353  C 23.6488906871193 17.7389705882353  24.65625 16.7513634187444  24.65625 15.5330882352941  L 24.65625 13.6948529411765  L 24.650625 13.5441176470588  Z M 15.226875 11.9209558823529  L 15.279375 12.0174632352941  L 16.5290625 14.7748161764706  C 16.5712880486067 14.8684622602216  16.5930992640416 14.9697219674438  16.5930992640416 15.0721101992491  C 16.5930992640416 15.4782019270659  16.2573128264147 15.8074043168962  15.8430992640416 15.8074043168962  C 15.5839349790408 15.8074043168962  15.3431354254894 15.6762277244034  15.20625 15.4604779411765  L 15.1584375 15.3722426470588  L 14.57625 14.0900735294118  L 13.085625 17.2224264705882  C 12.9623993464375 17.4813057032026  12.6973809692787 17.6467771775597  12.4059867956222 17.6467771775597  C 12.1494849578663 17.6467771775597  11.9107723605806 17.5182625341472  11.773125 17.3060661764706  L 11.720625 17.2104779411765  L 10.4709375 14.453125  C 10.4287119513933 14.359478916249  10.4069007359584 14.2582192090268  10.4069007359584 14.1558309772214  C 10.4069007359584 13.7497392494047  10.7426871735853 13.4205368595744  11.1569007359584 13.4205368595744  C 11.4160650209592 13.4205368595744  11.6568645745106 13.5517134520672  11.79375 13.7674632352941  L 11.8415625 13.8556985294118  L 12.4228125 15.1369485294118  L 13.9134375 12.0055147058824  C 14.0364755970164 11.7461823167279  14.3017385041215 11.580329133264  14.593472448358 11.580329133264  C 14.8503326900247 11.580329133264  15.0893269515966 11.7092005784483  15.226875 11.921875  Z " fill-rule="nonzero" fill="#15dfa7" stroke="none" transform="matrix(1 0 0 1 109 164 )" />
  </g>
</svg>