<?xml version="1.0" encoding="utf-8"?>
<svg version="1.1" xmlns:xlink="http://www.w3.org/1999/xlink" width="14px" height="12px" xmlns="http://www.w3.org/2000/svg">
  <g transform="matrix(1 0 0 1 -251 -175 )">
    <path d="M 12.7866666757813 2.04999999023437  C 12.8333333515625 1.39999998046875  12.18 0.549999990234372  11.5733333242187 0.549999990234375  L 1.72666667578125 0.849999990234374  C 1.12 0.849999990234374  0.606666675781248 1.39999998046875  0.606666675781248 2.04999999023438  L 0.606666675781248 9.05000000976562  C 0.606666675781248 9.70000001953125  1.12 10.2500000097656  1.72666667578125 10.2500000097656  L 5.41333332421875 10.2500000097656  L 5.50666667578125 11.1500000097656  L 6.44 11.6000000097656  C 6.62666667578125 11.7  6.95333332421874 11.6500000195312  7.09333332421875 11.4500000097656  L 8.21333332421875 10.2500000097656  L 11.3866666757812 10.2500000097656  C 11.9933333515625 10.2500000097656  12.7866666757813 9.70000001953125  12.7866666757813 9.05000000976562  L 12.7866666757813 2.04999999023437  Z " fill-rule="nonzero" fill="#ffd5c2" stroke="none" transform="matrix(1 0 0 1 251 175 )" />
  </g>
</svg>