<?xml version="1.0" encoding="utf-8"?>
<svg version="1.1" xmlns:xlink="http://www.w3.org/1999/xlink" width="14px" height="12px" xmlns="http://www.w3.org/2000/svg">
  <g transform="matrix(1 0 0 1 -250 -175 )">
    <path d="M 13.2533333242188 1.74999999023437  C 13.2066666484375 1.09999998046875  12.74 0.549999990234375  12.1333333242187 0.549999990234375  L 1.91333332421875 0.549999990234375  C 1.3066666484375 0.549999990234375  0.793333324218749 1.09999998046875  0.793333324218749 1.74999999023437  L 0.793333324218749 8.64999999023437  C 0.793333324218749 9.3  1.3066666484375 9.84999999023437  1.91333332421875 9.84999999023437  L 5.6 9.84999999023437  L 6.72 11.0499999902344  C 6.86 11.1999999902344  7.14 11.1999999902344  7.28 11.0499999902344  L 8.4 9.84999999023437  L 12.1333333242188 9.84999999023437  C 12.74 9.84999999023437  13.2533333242188 9.3  13.2533333242188 8.64999999023437  L 13.2533333242188 1.74999999023437  Z " fill-rule="nonzero" fill="#fb560a" stroke="none" transform="matrix(1 0 0 1 250 175 )" />
  </g>
</svg>