<?xml version="1.0" encoding="utf-8"?>
<svg version="1.1" xmlns:xlink="http://www.w3.org/1999/xlink" width="18px" height="17px" xmlns="http://www.w3.org/2000/svg">
  <g transform="matrix(1 0 0 1 -239 -166 )">
    <path d="M 17.5846153846154 2.92777776855469  C 17.5846153846154 2.03055553710938  16.3846153936298 0.944444435221355  15.5076923076923 0.944444435221354  L 1.56923077824519 1.32222223144531  C 0.692307692307694 1.32222223144531  0 2.03055556477865  0 2.92777776855469  L 0 12.2777777685547  C 0 13.175  0.692307692307694 13.8833333333333  1.56923077824519 13.8833333333333  L 6.83076923978366 13.8833333333333  L 7.33846153846154 15.1583333333333  L 8.0769230859375 15.536111101888  C 8.49230770132212 15.725  9.04615385516827 15.6305555371094  9.36923076021635 15.3  L 10.7538461448317 13.836111101888  L 16.0153846063702 13.836111101888  C 16.8923076923077 13.836111101888  17.5846153846154 13.1277777685547  17.5846153846154 12.2305555647786  L 17.5846153846154 2.92777776855469  Z " fill-rule="nonzero" fill="#dae9ff" stroke="none" transform="matrix(1 0 0 1 239 166 )" />
  </g>
</svg>