<?xml version="1.0" encoding="utf-8"?>
<svg version="1.1" xmlns:xlink="http://www.w3.org/1999/xlink" width="6px" height="11px" xmlns="http://www.w3.org/2000/svg">
  <g transform="matrix(1 0 0 1 -216 -548 )">
    <path d="M 5.67191212181346 4.55000814941406  C 5.67191212181346 4.49724598260189  5.64858770292501 4.44673576767716  5.607263484375 4.41000823828125  L 4.690900453125 4.41000823828125  C 4.60774206019601 4.48777689095608  4.60774206019601 4.61223940787204  4.690900453125 4.69000806054687  L 4.9963548046875 4.97000786132812  C 5.03642119959537 5.00788838824717  5.09152324716129 5.02926910123396  5.14908196875 5.02926910123396  C 5.20664069033872 5.02926910123396  5.26174273790463 5.00788838824717  5.3018091328125 4.97000786132812  L 5.607263484375 4.69000806054687  C 5.64858770292501 4.65328053115096  5.67191212181346 4.60277031622623  5.67191212181346 4.55000814941406  Z M 1.810902421875 7.00000647070312  C 1.90315004782322 6.79761728137063  2.00880135770503 6.60058366926209  2.1272658515625 6.4100068828125  C 2.06956134028792 6.36801884055329  1.99902066430144 6.34355202585973  1.9254478125 6.340006921875  C 1.83314587014496 6.34068150706579  1.74489234684836 6.37483888511072  1.6799934140625 6.43500685351563  C 1.61561733244739 6.49282032610059  1.5800981399539 6.57240962866257  1.5818116640625 6.655006703125  C 1.58049866068399 6.73900731540471  1.61584467001043 6.8200085945123  1.6799934140625 6.88000656835937  L 1.810902421875 7.00000647070312  Z M 5.1272638125 9.2550049453125  C 5.1272638125 9.2550049453125  5.1272638125 6.68500668945313  4.2163553203125 6.68500668945313  L 2.945447109375 6.68500668945312  C 2.80728927338898 6.6907293385006  2.67666099300305 6.74434542694293  2.5799928046875 6.83500659960937  C 2.41540278826251 6.99037278718813  2.28567837335108 7.17384017148878  2.1981748828125 7.37500622460937  C 2.09847108847865 7.58907144389471  2.01642283087826 7.80969009450296  1.9527205078125 8.0350057734375  C 1.887266015625 8.2600056171875  1.838175140625 8.48000546679687  1.79999334375 8.67000533007812  C 1.7290843125 9.01000510351562  1.70181159375 9.25500492382812  1.70181159375 9.2550049453125  L 1.70181159375 9.3000049140625  C 1.66464690134183 9.82093504168135  2.07087898154723 10.2804207477359  2.63453821875 10.3550041933594  L 4.1945371640625 10.3550041933594  C 4.77877874895665 10.2798519447056  5.19198460854275 9.79254289698543  5.1272638125 9.2550049453125  Z M 3.1745378671875 3.73000871289062  C 3.2509014609375 4.07000848632813  3.414537703125 4.0400085  3.6163557421875 4.00000852539062  L 4.35817340625 3.86500861914062  C 4.55945375340729 3.82493368564701  4.68977900515911 3.64573647874731  4.6527186796875 3.46000890039063  L 4.5054460546875 2.78000935351563  C 4.46180971875 2.595009484375  4.4290824609375 2.44500957421875  4.0581736171875 2.51000954101562  C 3.56076537439758 2.75680741339878  3.22961889488867 3.2140076011121  3.1745378671875 3.73000871289062  Z M 1.025448421875 9.6150046953125  C 1.025448421875 9.6150046953125  1.0581756796875 9.500004765625  1.096357453125 9.3000049140625  L 1.0363575 9.3000049140625  C 0.846572508671553 9.3000049140625  0.692721375000001 9.44103511992809  0.692721375000001 9.6150046953125  L 0.692721375000001 10.2450042578125  C 0.69570034208047 10.4170181011332  0.848682391986506 10.5550257186455  1.0363575 10.5550040449219  L 1.30908459375 10.5550040449219  C 1.1252544992195 10.2702798720241  1.02736171902597 9.94585316331112  1.025448421875 9.6150046953125  Z M 3.218174203125 1.21001041992188  C 3.08629794117258 1.10919000913758  2.92077932802824 1.0527340535303  2.749083609375 1.05001054296875  C 2.32432671970613 1.05001054296875  1.9799932265625 1.36564957835041  1.9799932265625 1.75501006054688  C 1.98055206719682 2.03526478884158  2.1596768452976 2.28938029805671  2.43817471875 2.40500959960938  C 2.52064347056613 1.92948017207815  2.80003594300593 1.50143658735199  3.218174203125 1.21001041992188  Z " fill-rule="nonzero" fill="#cda05a" stroke="none" transform="matrix(1 0 0 1 216 548 )" />
  </g>
</svg>