<?xml version="1.0" encoding="utf-8"?>
<svg version="1.1" xmlns:xlink="http://www.w3.org/1999/xlink" width="18px" height="16px" xmlns="http://www.w3.org/2000/svg">
  <g transform="matrix(1 0 0 1 -238 -166 )">
    <path d="M 17.5846153846154 2.61818181818182  C 17.5846153846154 1.6969696875  16.8923076923077 0.969696960227273  16.0153846063702 1  L 1.56923077824519 1  C 0.692307692307692 0.969696960227273  0 1.6969696875  0 2.61818181818182  L 0 12.2181818181818  C 0 13.1393939488636  0.692307692307693 13.8666666761364  1.56923077824519 13.8666666761364  L 6.83076923978365 13.8666666761364  L 8.21538462439904 15.3696969602273  C 8.53846155649038 15.7090909090909  9.04615385516827 15.7090909090909  9.36923076021635 15.3696969602273  L 10.7538461448317 13.8666666761364  L 16.0153846063702 13.8666666761364  C 16.8923076923077 13.8666666761364  17.5846153846154 13.1393939488636  17.5846153846154 12.2181818181818  L 17.5846153846154 2.61818181818182  Z " fill-rule="nonzero" fill="#3889ff" stroke="none" transform="matrix(1 0 0 1 238 166 )" />
  </g>
</svg>