<?xml version="1.0" encoding="utf-8"?>
<svg version="1.1" xmlns:xlink="http://www.w3.org/1999/xlink" width="13px" height="6px" xmlns="http://www.w3.org/2000/svg">
  <g transform="matrix(1 0 0 1 -239 -170 )">
    <path d="M 2.07037037977431 2.75000000976563  C 1.44444444444444 2.80000001953125  1.01111111111111 2.30000000976562  1.15555555555556 1.65  C 1.25185184244792 1.05  1.82962962022569 0.549999990234374  2.45555555555556 0.549999990234374  L 7.31851850911458 0.549999990234374  C 7.89629628689236 0.549999990234374  8.42592590711805 1.05  8.42592593532986 1.65  C 8.42592593532986 2.25  7.94444444444444 2.75000000976563  7.36666666666667 2.75000000976563  L 2.07037037977431 2.75000000976563  Z M 1.15555555555556 4.85000000976563  L 1.15555555555556 4.59999999023437  C 1.25185184244792 4.09999998046875  1.68518517578125 3.69999999023437  2.16666666666667 3.69999999023437  L 10.7851851757813 3.69999999023437  C 11.2666666666667 3.69999999023437  11.7 4.09999998046875  11.7481481575521 4.59999999023438  L 11.7481481575521 4.85000000976563  C 11.7962963151042 5.45000000976563  11.3629629817708 5.95000001953125  10.7851851757813 5.94999999023438  L 2.02222222222222 5.94999999023438  C 1.44444444444445 5.94999999023438  1.01111111111111 5.44999998046875  1.15555555555556 4.85000000976563  Z " fill-rule="nonzero" fill="#dae9ff" stroke="none" transform="matrix(1 0 0 1 239 170 )" />
  </g>
</svg>