<?xml version="1.0" encoding="utf-8"?>
<svg version="1.1" xmlns:xlink="http://www.w3.org/1999/xlink" width="12px" height="6px" xmlns="http://www.w3.org/2000/svg">
  <g transform="matrix(1 0 0 1 -239 -170 )">
    <path d="M 0.249999990234375 1.44999999023438  C 0.249999990234375 0.949999980468751  0.699999990234375 0.549999990234375  1.14999999023437 0.549999990234375  L 6.45 0.549999990234375  C 6.95000000976562 0.549999990234375  7.35 0.949999980468751  7.35 1.44999999023438  C 7.35 1.95  6.95000000976562 2.34999999023438  6.45 2.34999999023438  L 1.14999999023437 2.34999999023438  C 0.64999998046875 2.34999999023438  0.249999990234375 1.95  0.249999990234375 1.44999999023438  Z M 0.249999990234375 4.59999999023438  C 0.249999990234375 4.09999998046875  0.699999990234375 3.69999999023437  1.14999999023437 3.69999999023437  L 9.99999999023438 3.69999999023437  C 10.5 3.69999999023437  10.8999999902344 4.09999998046875  10.8999999902344 4.59999999023438  C 10.8999999902344 5.1  10.5 5.49999999023438  9.99999999023438 5.49999999023438  L 1.14999999023437 5.49999999023438  C 0.64999998046875 5.49999999023438  0.249999990234375 5.1  0.249999990234375 4.59999999023438  Z " fill-rule="nonzero" fill="#ffffff" stroke="none" transform="matrix(1 0 0 1 239 170 )" />
  </g>
</svg>