<?xml version="1.0" encoding="utf-8"?>
<svg version="1.1" xmlns:xlink="http://www.w3.org/1999/xlink" width="23px" height="12px" xmlns="http://www.w3.org/2000/svg">
  <g transform="matrix(1 0 0 1 -41 -237 )">
    <path d="M 21.9761267748479 6.0848275862069  C 19.7467129817444 6.0848275862069  17.8358002028398 3.96620689655172  17.8358002028398 1.40619827586207  C 17.8358002028398 3.96620689655172  16.0045243407708 6.0848275862069  13.6954969574037 6.0848275862069  C 16.0045243407708 6.0848275862069  17.8358002028398 8.20344827586207  17.8358002028398 10.7634568965517  C 17.8358002028398 8.20344827586207  19.6670993914807 6.0848275862069  21.9761267748479 6.0848275862069  Z M 9.23669269776876 7.14413793103448  C 6.92768864097363 7.14413793103448  5.09638945233266 5.02551724137931  5.09638945233266 2.46550862068966  C 5.09638945233266 5.02551724137931  3.26509026369168 7.14413793103448  0.956086206896552 7.14413793103448  C 3.26509026369168 7.14413793103448  5.09638945233266 9.26275862068966  5.09638945233266 11.8227672413793  C 5.09638945233266 9.26275862068966  6.92768864097363 7.14413793103448  9.23669269776876 7.14413793103448  Z " fill-rule="nonzero" fill="#ffffff" stroke="none" transform="matrix(1 0 0 1 41 237 )" />
  </g>
</svg>